<?xml version="1.0" encoding="UTF-8" standalone="no"?>
<!-- Created with Inkscape (http://www.inkscape.org/) -->

<svg
   xmlns:dc="http://purl.org/dc/elements/1.1/"
   xmlns:cc="http://creativecommons.org/ns#"
   xmlns:rdf="http://www.w3.org/1999/02/22-rdf-syntax-ns#"
   xmlns:svg="http://www.w3.org/2000/svg"
   xmlns="http://www.w3.org/2000/svg"
   xmlns:sodipodi="http://sodipodi.sourceforge.net/DTD/sodipodi-0.dtd"
   xmlns:inkscape="http://www.inkscape.org/namespaces/inkscape"
   width="360"
   height="117"
   viewBox="0 0 360.00001 116.99999"
   id="svg2"
   version="1.1"
   inkscape:version="0.91 r"
   sodipodi:docname="donar.svg">
  <defs
     id="defs4">
    <filter
       inkscape:collect="always"
       style="color-interpolation-filters:sRGB"
       id="filter4305"
       x="-0.0071742856"
       width="1.0143486"
       y="-0.021834784"
       height="1.0436696">
      <feGaussianBlur
         inkscape:collect="always"
         stdDeviation="1.04625"
         id="feGaussianBlur4307" />
    </filter>
  </defs>
  <sodipodi:namedview
     id="base"
     pagecolor="#ffffff"
     bordercolor="#666666"
     borderopacity="1.0"
     inkscape:pageopacity="0.0"
     inkscape:pageshadow="2"
     inkscape:zoom="2.1663889"
     inkscape:cx="126.79166"
     inkscape:cy="59.319919"
     inkscape:document-units="px"
     inkscape:current-layer="layer1"
     showgrid="false"
     units="px"
     inkscape:window-width="1440"
     inkscape:window-height="843"
     inkscape:window-x="1280"
     inkscape:window-y="150"
     inkscape:window-maximized="1" />
  <metadata
     id="metadata7">
    <rdf:RDF>
      <cc:Work
         rdf:about="">
        <dc:format>image/svg+xml</dc:format>
        <dc:type
           rdf:resource="http://purl.org/dc/dcmitype/StillImage" />
        <dc:title />
      </cc:Work>
    </rdf:RDF>
  </metadata>
  <g
     inkscape:label="Capa 1"
     inkscape:groupmode="layer"
     id="layer1"
     transform="translate(0,-935.36221)">
    <g
       id="g4201"
       style="fill:#000000;fill-opacity:0.22651933;filter:url(#filter4305)"
       transform="translate(2,2)">
      <path
         id="path4203"
         d="m 72.437887,945.97032 c 9.227773,-7.37845 21.528123,-11.17947 33.215963,-8.99439 8.29395,1.34153 16.44733,5.75234 20.91562,13.15112 3.26336,5.14255 4.3478,11.33191 4.54862,17.3485 0.87357,24.01553 -5.94434,47.95995 -17.86312,68.63175 -2.65085,4.4413 -5.45232,8.8216 -8.82613,12.7446 4.42812,-6.9821 8.87633,-14.4723 9.03699,-23.0195 3.15291,-9.2688 7.31996,-18.2835 8.78596,-28.04017 1.83753,-11.46404 3.06254,-23.73096 -1.39571,-34.74782 -2.86171,-7.25649 -9.60933,-12.57182 -17.18032,-13.92352 -9.147449,-2.2054 -19.55003,0.1118 -26.036582,7.25649 -8.263827,9.11635 -11.005048,21.83046 -11.968994,33.81281 -8.02284,-5.35598 -16.196297,-11.10832 -25.795591,-13.05965 -5.783675,-1.21958 -12.330473,-0.69109 -17.260654,2.84568 -7.089018,7.08372 -9.870403,18.09042 -7.169347,27.78608 3.705167,14.2081 13.84668,25.4384 24.23922,35.1645 -12.02924,-7.2158 -23.626713,-16.3932 -30.3442097,-29.087 -5.4924804,-10.3359 -6.1250698,-23.75124 0.1506166,-33.8839 5.3418661,-7.226 13.7864331,-12.15513 22.6627671,-13.16128 8.816087,-1.06714 17.431353,2.35785 24.771398,7.0329 1.395714,-10.86441 6.888196,-21.14952 15.513503,-27.8572 z"
         inkscape:connector-curvature="0"
         style="opacity:1;fill:#000000;fill-opacity:0.22651933" />
      <path
         id="path4205"
         d="m 111.16642,975.87031 c 0,4.16689 0.0201,8.40493 -1.26518,12.40921 -2.67093,9.05537 -6.54106,13.48888 -12.445224,20.54208 -5.589247,6.0888 -6.112124,16.6541 3.614794,13.8524 6.1317,-0.6061 12.30667,-3.8327 12.39502,3.1584 -0.16066,8.5472 -4.60887,16.0374 -9.03699,23.0195 -0.53218,0.8435 -1.0744,1.6769 -1.62666,2.5103 l 0.0301,-0.8435 c 4.11134,-11.9123 2.50782,-24.5109 -17.681615,-13.7488 -15.429976,7.6661 -26.834869,16.4995 -43.277912,12.641 12.983144,-3.6384 25.544563,-11.0677 32.362471,-23.1923 3.214053,-6.5331 -1.117422,-13.7922 -7.852142,-12.8056 -6.10499,0.8537 -11.02513,4.9393 -16.105927,8.1305 2.891837,-6.3215 7.731648,-12.023 14.439105,-14.2589 16.461792,-5.6656 16.721069,10.9274 46.45014,-31.41429 z"
         inkscape:connector-curvature="0"
         style="opacity:1;fill:#000000;fill-opacity:0.22651933"
         sodipodi:nodetypes="ccccccccccccccc" />
      <path
         id="path4207"
         d="m 75.761492,984.05165 c 4.317674,-1.83953 9.850321,0.20326 11.868582,4.51244 2.209043,5.52875 -2.058426,13.05961 -8.143333,13.12061 -3.424016,-0.4065 -6.787785,-2.4188 -8.555019,-5.44743 -2.128714,-4.42097 0.160657,-10.54935 4.82977,-12.18562 z"
         inkscape:connector-curvature="0"
         style="opacity:1;fill:#000000;fill-opacity:0.22651933" />
      <g
         id="g4209"
         style="fill:#000000;fill-opacity:0.22651933">
        <path
           style="opacity:1;fill:#000000;fill-opacity:0.22651933"
           inkscape:connector-curvature="0"
           d="m 194.82434,999.2137 c 6.7175,-1.23993 14.12783,0.1321 19.4697,4.5937 10.34233,8.9741 11.17574,26.4039 2.95208,37.065 -8.60522,10.6815 -27.0206,10.6409 -35.52542,-0.1321 -5.99454,-7.7951 -6.85807,-18.8526 -3.33364,-27.908 2.62072,-7.0431 9.06711,-12.46 16.43728,-13.6186 m 0.95391,8.9435 c -4.75949,1.2196 -7.80194,5.8439 -8.66548,10.5087 -1.08443,5.6609 -0.69283,12.1247 2.87176,16.8607 4.74944,6.3621 15.78461,5.8438 19.85126,-1.0265 3.53447,-6.1588 3.50434,-14.2182 0.45185,-20.56 -2.55044,-5.295 -9.12736,-7.4496 -14.50939,-5.7829 z"
           id="path4211" />
        <path
           style="opacity:1;fill:#000000;fill-opacity:0.22651933"
           inkscape:connector-curvature="0"
           d="m 132.65988,999.7828 c 7.17939,0.051 14.35877,-0.051 21.52812,0.041 6.84803,0.1524 13.90693,3.5367 17.19037,9.8379 4.04656,7.8053 4.11685,17.4196 1.13464,25.601 -2.50023,6.9109 -9.15748,11.8502 -16.38708,12.3685 -7.81197,0.437 -15.65407,0.071 -23.46605,0.1931 -0.0201,-16.0171 -0.0301,-32.0342 0,-48.0412 m 10.27205,8.9131 c 0.0201,10.092 -0.0703,20.1738 0.0502,30.2557 4.12689,-0.1931 8.30399,0.3252 12.40076,-0.3456 4.89002,-0.9146 8.09313,-5.671 8.63535,-10.4477 0.64263,-5.5592 0.40164,-12.1856 -3.81562,-16.3525 -4.69923,-4.299 -11.5071,-2.8863 -17.27069,-3.1099 z"
           id="path4213" />
        <path
           style="opacity:1;fill:#000000;fill-opacity:0.22651933"
           inkscape:connector-curvature="0"
           d="m 226.54418,999.793 c 3.46418,0 6.92836,0 10.40258,0.02 6.47651,10.8339 13.12372,21.5662 19.70065,32.3391 0.0201,-10.7932 -0.0301,-21.5763 0.0201,-32.3696 3.24327,0.01 6.49659,0.02 9.75995,0.01 0.0402,15.9968 -0.0301,31.9834 0.0301,47.9802 -3.51438,0.061 -7.01873,0.071 -10.52307,-0.031 -6.48655,-10.7526 -13.04339,-21.4747 -19.61027,-32.1867 -0.0301,10.7526 -0.0101,21.4951 -0.0101,32.2477 -3.26335,0.01 -6.52671,0.02 -9.80011,0 0.0301,-16.007 -0.0201,-32.0139 0.0301,-48.0107 z"
           id="path4215" />
        <path
           style="opacity:1;fill:#000000;fill-opacity:0.22651933"
           inkscape:connector-curvature="0"
           d="m 285.09385,999.793 c 3.53447,0 7.06893,0 10.6034,-0.01 5.92425,15.9866 11.78826,32.0038 17.65226,48.0209 -3.55455,0.02 -7.11914,0.02 -10.67369,0.01 -1.27522,-3.5368 -2.4902,-7.0939 -3.67505,-10.6713 -5.88408,0.01 -11.77821,-0.041 -17.67234,0.041 -1.14468,3.5774 -2.40986,7.1041 -3.665,10.6307 -3.48426,0 -6.96852,0.01 -10.45278,-0.01 5.94433,-16.0171 11.94891,-31.9936 17.8832,-48.0107 m 5.07075,11.9925 c -1.93793,5.8438 -4.0566,11.6266 -6.02466,17.4603 4.07669,0.041 8.15338,0.041 12.23007,0.01 -2.20905,-5.7726 -3.70517,-11.8197 -6.20541,-17.4704 z"
           id="path4217" />
        <path
           style="opacity:1;fill:#000000;fill-opacity:0.22651933"
           inkscape:connector-curvature="0"
           d="m 314.34358,999.8743 c 8.2337,-0.1626 16.46741,-0.051 24.70111,-0.081 4.15701,-0.051 8.60522,1.0874 11.43681,4.3701 5.62302,6.0776 3.96624,17.3485 -3.70516,20.9056 1.96805,1.057 3.91603,2.4087 4.83981,4.5633 2.69101,5.7218 0.77316,12.4498 3.38385,18.2225 -3.41397,-0.051 -6.82795,-0.041 -10.24192,-0.041 -1.79736,-5.5085 -0.0904,-12.0942 -3.64492,-16.9522 -4.67916,-3.4961 -11.04522,-1.1891 -16.42725,-1.8497 -0.0201,6.2605 -0.01,12.5312 -0.01,18.7917 -3.43406,0.01 -6.85807,0.02 -10.28209,0 -0.0301,-15.9765 0.0502,-31.9529 -0.0502,-47.9294 m 10.33229,8.0492 c -0.01,4.4819 -0.01,8.9639 0,13.4458 4.75948,-0.1016 9.55913,0.3253 14.30857,-0.2235 6.05479,-1.0773 6.17528,-11.6877 0.13054,-12.8768 -4.75949,-0.7724 -9.62942,-0.1422 -14.43911,-0.3455 z"
           id="path4219" />
      </g>
      <g
         id="g4221"
         style="fill:#000000;fill-opacity:0.22651933">
        <path
           style="opacity:1;fill:#000000;fill-opacity:0.22651933"
           inkscape:connector-curvature="0"
           d="m 142.37966,973.43992 c 4.40805,-6.97193 15.52355,-7.54106 20.86541,-1.41268 4.80969,5.72185 4.61891,14.76706 0.0602,20.59054 1.10452,1.01632 2.22913,2.03263 3.35373,3.03879 -0.93382,0.99599 -1.87769,1.97165 -2.81151,2.96764 -1.26518,-1.13828 -2.5404,-2.27655 -3.81562,-3.3945 -4.90006,2.16476 -11.02513,2.1241 -15.27251,-1.45333 -5.69331,-4.87831 -6.25561,-14.15727 -2.37975,-20.33646 m 4.58879,14.1471 c 1.39571,3.56727 5.50252,4.6344 8.92654,3.89249 -0.91374,-0.89436 -1.83752,-1.78871 -2.7613,-2.66274 0.97398,-0.98583 1.93793,-1.96149 2.91191,-2.94732 1.06436,0.99599 2.12872,1.98182 3.21316,2.96764 3.1027,-5.50843 1.75719,-16.07811 -6.06483,-16.00696 -7.05889,0.10163 -8.71567,9.49238 -6.22548,14.75689 z"
           id="path4223" />
        <path
           style="opacity:1;fill:#000000;fill-opacity:0.22651933"
           inkscape:connector-curvature="0"
           d="m 189.36198,968.29736 c 1.84756,0 3.69513,0 5.54269,0 -0.01,1.51431 -0.01,3.03878 -0.01,4.55309 -1.83752,0.0102 -3.67504,0.0102 -5.51257,0.0203 -0.01,-1.52447 -0.0201,-3.04895 -0.0201,-4.57342 z"
           id="path4225" />
        <path
           style="opacity:1;fill:#000000;fill-opacity:0.22651933"
           inkscape:connector-curvature="0"
           d="m 168.28571,976.15348 c 1.83752,0.0102 3.67504,0.0102 5.5226,0.0203 0.0904,4.37016 -0.17069,8.76064 0.11046,13.1308 0.0602,4.3295 6.9886,4.0246 7.42037,0.0508 0.54222,-4.37015 0.12049,-8.79112 0.25103,-13.18161 1.83752,-0.0102 3.67504,-0.0102 5.5226,-0.0203 0,6.70768 0,13.4052 0.01,20.10271 -1.82749,-0.0305 -3.63488,-0.061 -5.45232,-0.12196 0.10041,-0.64027 0.31127,-1.92083 0.41168,-2.56111 -2.47011,2.56111 -6.19536,4.10591 -9.6495,2.66275 -2.57052,-0.54881 -3.80557,-3.24205 -4.0064,-5.66088 -0.34139,-4.79701 -0.0502,-9.61434 -0.14057,-14.42151 z"
           id="path4227" />
        <path
           style="opacity:1;fill:#000000;fill-opacity:0.22651933"
           inkscape:connector-curvature="0"
           d="m 189.36198,976.16364 c 1.84756,0 3.68509,-0.0102 5.53265,-0.0102 -0.01,6.69751 0.0301,13.39503 -0.0201,20.09255 -1.83753,-0.0102 -3.66501,-0.0102 -5.50253,0 -0.01,-6.69752 0.01,-13.38487 -0.01,-20.08239 z"
           id="path4229" />
        <path
           style="opacity:1;fill:#000000;fill-opacity:0.22651933"
           inkscape:connector-curvature="0"
           d="m 198.92111,978.78573 c 3.64492,-3.91281 10.57328,-4.25836 14.26841,-0.23375 2.28937,2.40867 2.74122,5.85398 2.90187,9.04521 -4.89001,0.0305 -9.79007,-0.061 -14.69013,0.0813 1.77271,5.77581 5.64375,6.56779 9.83024,2.45948 1.51621,0 3.03241,0 4.54862,0.0203 -1.84756,5.44745 -8.10317,7.9171 -13.29442,5.89463 -6.9384,-2.19524 -8.29395,-12.27709 -3.56459,-17.2672 m 2.42995,5.17305 c 3.1027,0.10163 6.2054,0.10163 9.3081,0.0813 -2.58442,-5.99677 -7.04612,-5.71964 -9.3081,-0.0813 z"
           id="path4231"
           sodipodi:nodetypes="ccccccccccc" />
        <path
           style="opacity:1;fill:#000000;fill-opacity:0.22651933"
           inkscape:connector-curvature="0"
           d="m 217.22604,976.14331 c 1.76723,0.0102 3.53447,0.0203 5.3017,0.0203 -0.0201,0.84354 -0.0502,2.53063 -0.0703,3.37417 1.7572,-2.5103 4.47833,-3.98396 7.52079,-4.07543 0.0402,1.72774 0.0703,3.45547 0.10041,5.18321 -2.60065,0 -6.05478,0.31506 -6.85807,3.38433 -1.00411,3.96363 -0.22091,8.14069 -0.47193,12.19578 -1.83753,0 -3.66501,0.0102 -5.50253,0.0102 -0.0402,-6.69752 0.01,-13.39504 -0.0201,-20.09256 z"
           id="path4233" />
        <path
           style="opacity:1;fill:#000000;fill-opacity:0.22651933"
           inkscape:connector-curvature="0"
           d="m 234.82809,976.56 c 2.97217,-1.22974 6.39618,-1.1586 9.33823,0.14229 6.91832,3.12009 7.29988,14.47233 1.02419,18.46645 -4.07669,2.35785 -9.66958,2.06312 -13.21409,-1.1586 -4.72936,-4.83766 -3.82566,-14.83821 2.85167,-17.45014 m 1.98814,3.90265 c -3.81562,3.07944 -3.18303,12.03318 2.62073,12.25677 4.55866,-0.23376 5.41215,-5.94545 4.27751,-9.48223 -0.52214,-3.0591 -4.42813,-4.46162 -6.89824,-2.77454 z"
           id="path4235" />
      </g>
    </g>
    <g
       id="g4182">
      <path
         style="opacity:1;fill:#ed217c"
         inkscape:connector-curvature="0"
         d="m 72.437887,945.97032 c 9.227773,-7.37845 21.528123,-11.17947 33.215963,-8.99439 8.29395,1.34153 16.44733,5.75234 20.91562,13.15112 3.26336,5.14255 4.3478,11.33191 4.54862,17.3485 0.87357,24.01553 -5.94434,47.95995 -17.86312,68.63175 -2.65085,4.4413 -5.45232,8.8216 -8.82613,12.7446 4.42812,-6.9821 8.87633,-14.4723 9.03699,-23.0195 3.15291,-9.2688 7.31996,-18.2835 8.78596,-28.04017 1.83753,-11.46404 3.06254,-23.73096 -1.39571,-34.74782 -2.86171,-7.25649 -9.60933,-12.57182 -17.18032,-13.92352 -9.147449,-2.2054 -19.55003,0.1118 -26.036582,7.25649 -8.263827,9.11635 -11.005048,21.83046 -11.968994,33.81281 -8.02284,-5.35598 -16.196297,-11.10832 -25.795591,-13.05965 -5.783675,-1.21958 -12.330473,-0.69109 -17.260654,2.84568 -7.089018,7.08372 -9.870403,18.09042 -7.169347,27.78608 3.705167,14.2081 13.84668,25.4384 24.23922,35.1645 -12.02924,-7.2158 -23.626713,-16.3932 -30.3442097,-29.087 -5.4924804,-10.3359 -6.1250698,-23.75124 0.1506166,-33.8839 5.3418661,-7.226 13.7864331,-12.15513 22.6627671,-13.16128 8.816087,-1.06714 17.431353,2.35785 24.771398,7.0329 1.395714,-10.86441 6.888196,-21.14952 15.513503,-27.8572 z"
         id="path4156" />
      <path
         sodipodi:nodetypes="ccccccccccccccc"
         style="opacity:1;fill:#09d3c5;fill-opacity:1"
         inkscape:connector-curvature="0"
         d="m 111.16642,975.87031 c 0,4.16689 0.0201,8.40493 -1.26518,12.40921 -2.67093,9.05537 -6.54106,13.48888 -12.445224,20.54208 -5.589247,6.0888 -6.112124,16.6541 3.614794,13.8524 6.1317,-0.6061 12.30667,-3.8327 12.39502,3.1584 -0.16066,8.5472 -4.60887,16.0374 -9.03699,23.0195 -0.53218,0.8435 -1.0744,1.6769 -1.62666,2.5103 l 0.0301,-0.8435 c 4.11134,-11.9123 2.50782,-24.5109 -17.681615,-13.7488 -15.429976,7.6661 -26.834869,16.4995 -43.277912,12.641 12.983144,-3.6384 25.544563,-11.0677 32.362471,-23.1923 3.214053,-6.5331 -1.117422,-13.7922 -7.852142,-12.8056 -6.10499,0.8537 -11.02513,4.9393 -16.105927,8.1305 2.891837,-6.3215 7.731648,-12.023 14.439105,-14.2589 16.461792,-5.6656 16.721069,10.9274 46.45014,-31.41429 z"
         id="path4175" />
      <path
         style="opacity:1;fill:#09d3c5;fill-opacity:1"
         inkscape:connector-curvature="0"
         d="m 75.761492,984.05165 c 4.317674,-1.83953 9.850321,0.20326 11.868582,4.51244 2.209043,5.52875 -2.058426,13.05961 -8.143333,13.12061 -3.424016,-0.4065 -6.787785,-2.4188 -8.555019,-5.44743 -2.128714,-4.42097 0.160657,-10.54935 4.82977,-12.18562 z"
         id="path4177" />
      <g
         style="fill:#63c62f;fill-opacity:1"
         id="g4164">
        <path
           id="path4256"
           d="m 194.82434,999.2137 c 6.7175,-1.23993 14.12783,0.1321 19.4697,4.5937 10.34233,8.9741 11.17574,26.4039 2.95208,37.065 -8.60522,10.6815 -27.0206,10.6409 -35.52542,-0.1321 -5.99454,-7.7951 -6.85807,-18.8526 -3.33364,-27.908 2.62072,-7.0431 9.06711,-12.46 16.43728,-13.6186 m 0.95391,8.9435 c -4.75949,1.2196 -7.80194,5.8439 -8.66548,10.5087 -1.08443,5.6609 -0.69283,12.1247 2.87176,16.8607 4.74944,6.3621 15.78461,5.8438 19.85126,-1.0265 3.53447,-6.1588 3.50434,-14.2182 0.45185,-20.56 -2.55044,-5.295 -9.12736,-7.4496 -14.50939,-5.7829 z"
           inkscape:connector-curvature="0"
           style="opacity:1;fill:#63c62f;fill-opacity:1" />
        <path
           id="path4258"
           d="m 132.65988,999.7828 c 7.17939,0.051 14.35877,-0.051 21.52812,0.041 6.84803,0.1524 13.90693,3.5367 17.19037,9.8379 4.04656,7.8053 4.11685,17.4196 1.13464,25.601 -2.50023,6.9109 -9.15748,11.8502 -16.38708,12.3685 -7.81197,0.437 -15.65407,0.071 -23.46605,0.1931 -0.0201,-16.0171 -0.0301,-32.0342 0,-48.0412 m 10.27205,8.9131 c 0.0201,10.092 -0.0703,20.1738 0.0502,30.2557 4.12689,-0.1931 8.30399,0.3252 12.40076,-0.3456 4.89002,-0.9146 8.09313,-5.671 8.63535,-10.4477 0.64263,-5.5592 0.40164,-12.1856 -3.81562,-16.3525 -4.69923,-4.299 -11.5071,-2.8863 -17.27069,-3.1099 z"
           inkscape:connector-curvature="0"
           style="opacity:1;fill:#63c62f;fill-opacity:1" />
        <path
           id="path4260"
           d="m 226.54418,999.793 c 3.46418,0 6.92836,0 10.40258,0.02 6.47651,10.8339 13.12372,21.5662 19.70065,32.3391 0.0201,-10.7932 -0.0301,-21.5763 0.0201,-32.3696 3.24327,0.01 6.49659,0.02 9.75995,0.01 0.0402,15.9968 -0.0301,31.9834 0.0301,47.9802 -3.51438,0.061 -7.01873,0.071 -10.52307,-0.031 -6.48655,-10.7526 -13.04339,-21.4747 -19.61027,-32.1867 -0.0301,10.7526 -0.0101,21.4951 -0.0101,32.2477 -3.26335,0.01 -6.52671,0.02 -9.80011,0 0.0301,-16.007 -0.0201,-32.0139 0.0301,-48.0107 z"
           inkscape:connector-curvature="0"
           style="opacity:1;fill:#63c62f;fill-opacity:1" />
        <path
           id="path4262"
           d="m 285.09385,999.793 c 3.53447,0 7.06893,0 10.6034,-0.01 5.92425,15.9866 11.78826,32.0038 17.65226,48.0209 -3.55455,0.02 -7.11914,0.02 -10.67369,0.01 -1.27522,-3.5368 -2.4902,-7.0939 -3.67505,-10.6713 -5.88408,0.01 -11.77821,-0.041 -17.67234,0.041 -1.14468,3.5774 -2.40986,7.1041 -3.665,10.6307 -3.48426,0 -6.96852,0.01 -10.45278,-0.01 5.94433,-16.0171 11.94891,-31.9936 17.8832,-48.0107 m 5.07075,11.9925 c -1.93793,5.8438 -4.0566,11.6266 -6.02466,17.4603 4.07669,0.041 8.15338,0.041 12.23007,0.01 -2.20905,-5.7726 -3.70517,-11.8197 -6.20541,-17.4704 z"
           inkscape:connector-curvature="0"
           style="opacity:1;fill:#63c62f;fill-opacity:1" />
        <path
           id="path4264"
           d="m 314.34358,999.8743 c 8.2337,-0.1626 16.46741,-0.051 24.70111,-0.081 4.15701,-0.051 8.60522,1.0874 11.43681,4.3701 5.62302,6.0776 3.96624,17.3485 -3.70516,20.9056 1.96805,1.057 3.91603,2.4087 4.83981,4.5633 2.69101,5.7218 0.77316,12.4498 3.38385,18.2225 -3.41397,-0.051 -6.82795,-0.041 -10.24192,-0.041 -1.79736,-5.5085 -0.0904,-12.0942 -3.64492,-16.9522 -4.67916,-3.4961 -11.04522,-1.1891 -16.42725,-1.8497 -0.0201,6.2605 -0.01,12.5312 -0.01,18.7917 -3.43406,0.01 -6.85807,0.02 -10.28209,0 -0.0301,-15.9765 0.0502,-31.9529 -0.0502,-47.9294 m 10.33229,8.0492 c -0.01,4.4819 -0.01,8.9639 0,13.4458 4.75948,-0.1016 9.55913,0.3253 14.30857,-0.2235 6.05479,-1.0773 6.17528,-11.6877 0.13054,-12.8768 -4.75949,-0.7724 -9.62942,-0.1422 -14.43911,-0.3455 z"
           inkscape:connector-curvature="0"
           style="opacity:1;fill:#63c62f;fill-opacity:1" />
      </g>
      <g
         style="fill:#0d426e;fill-opacity:1"
         id="g4171">
        <path
           id="path4267"
           d="m 142.37966,973.43992 c 4.40805,-6.97193 15.52355,-7.54106 20.86541,-1.41268 4.80969,5.72185 4.61891,14.76706 0.0602,20.59054 1.10452,1.01632 2.22913,2.03263 3.35373,3.03879 -0.93382,0.99599 -1.87769,1.97165 -2.81151,2.96764 -1.26518,-1.13828 -2.5404,-2.27655 -3.81562,-3.3945 -4.90006,2.16476 -11.02513,2.1241 -15.27251,-1.45333 -5.69331,-4.87831 -6.25561,-14.15727 -2.37975,-20.33646 m 4.58879,14.1471 c 1.39571,3.56727 5.50252,4.6344 8.92654,3.89249 -0.91374,-0.89436 -1.83752,-1.78871 -2.7613,-2.66274 0.97398,-0.98583 1.93793,-1.96149 2.91191,-2.94732 1.06436,0.99599 2.12872,1.98182 3.21316,2.96764 3.1027,-5.50843 1.75719,-16.07811 -6.06483,-16.00696 -7.05889,0.10163 -8.71567,9.49238 -6.22548,14.75689 z"
           inkscape:connector-curvature="0"
           style="opacity:1;fill:#0d426e;fill-opacity:1" />
        <path
           id="path4269"
           d="m 189.36198,968.29736 c 1.84756,0 3.69513,0 5.54269,0 -0.01,1.51431 -0.01,3.03878 -0.01,4.55309 -1.83752,0.0102 -3.67504,0.0102 -5.51257,0.0203 -0.01,-1.52447 -0.0201,-3.04895 -0.0201,-4.57342 z"
           inkscape:connector-curvature="0"
           style="opacity:1;fill:#0d426e;fill-opacity:1" />
        <path
           id="path4271"
           d="m 168.28571,976.15348 c 1.83752,0.0102 3.67504,0.0102 5.5226,0.0203 0.0904,4.37016 -0.17069,8.76064 0.11046,13.1308 0.0602,4.3295 6.9886,4.0246 7.42037,0.0508 0.54222,-4.37015 0.12049,-8.79112 0.25103,-13.18161 1.83752,-0.0102 3.67504,-0.0102 5.5226,-0.0203 0,6.70768 0,13.4052 0.01,20.10271 -1.82749,-0.0305 -3.63488,-0.061 -5.45232,-0.12196 0.10041,-0.64027 0.31127,-1.92083 0.41168,-2.56111 -2.47011,2.56111 -6.19536,4.10591 -9.6495,2.66275 -2.57052,-0.54881 -3.80557,-3.24205 -4.0064,-5.66088 -0.34139,-4.79701 -0.0502,-9.61434 -0.14057,-14.42151 z"
           inkscape:connector-curvature="0"
           style="opacity:1;fill:#0d426e;fill-opacity:1" />
        <path
           id="path4273"
           d="m 189.36198,976.16364 c 1.84756,0 3.68509,-0.0102 5.53265,-0.0102 -0.01,6.69751 0.0301,13.39503 -0.0201,20.09255 -1.83753,-0.0102 -3.66501,-0.0102 -5.50253,0 -0.01,-6.69752 0.01,-13.38487 -0.01,-20.08239 z"
           inkscape:connector-curvature="0"
           style="opacity:1;fill:#0d426e;fill-opacity:1" />
        <path
           sodipodi:nodetypes="ccccccccccc"
           id="path4275"
           d="m 198.92111,978.78573 c 3.64492,-3.91281 10.57328,-4.25836 14.26841,-0.23375 2.28937,2.40867 2.74122,5.85398 2.90187,9.04521 -4.89001,0.0305 -9.79007,-0.061 -14.69013,0.0813 1.77271,5.77581 5.64375,6.56779 9.83024,2.45948 1.51621,0 3.03241,0 4.54862,0.0203 -1.84756,5.44745 -8.10317,7.9171 -13.29442,5.89463 -6.9384,-2.19524 -8.29395,-12.27709 -3.56459,-17.2672 m 2.42995,5.17305 c 3.1027,0.10163 6.2054,0.10163 9.3081,0.0813 -2.58442,-5.99677 -7.04612,-5.71964 -9.3081,-0.0813 z"
           inkscape:connector-curvature="0"
           style="opacity:1;fill:#0d426e;fill-opacity:1" />
        <path
           id="path4277"
           d="m 217.22604,976.14331 c 1.76723,0.0102 3.53447,0.0203 5.3017,0.0203 -0.0201,0.84354 -0.0502,2.53063 -0.0703,3.37417 1.7572,-2.5103 4.47833,-3.98396 7.52079,-4.07543 0.0402,1.72774 0.0703,3.45547 0.10041,5.18321 -2.60065,0 -6.05478,0.31506 -6.85807,3.38433 -1.00411,3.96363 -0.22091,8.14069 -0.47193,12.19578 -1.83753,0 -3.66501,0.0102 -5.50253,0.0102 -0.0402,-6.69752 0.01,-13.39504 -0.0201,-20.09256 z"
           inkscape:connector-curvature="0"
           style="opacity:1;fill:#0d426e;fill-opacity:1" />
        <path
           id="path4279"
           d="m 234.82809,976.56 c 2.97217,-1.22974 6.39618,-1.1586 9.33823,0.14229 6.91832,3.12009 7.29988,14.47233 1.02419,18.46645 -4.07669,2.35785 -9.66958,2.06312 -13.21409,-1.1586 -4.72936,-4.83766 -3.82566,-14.83821 2.85167,-17.45014 m 1.98814,3.90265 c -3.81562,3.07944 -3.18303,12.03318 2.62073,12.25677 4.55866,-0.23376 5.41215,-5.94545 4.27751,-9.48223 -0.52214,-3.0591 -4.42813,-4.46162 -6.89824,-2.77454 z"
           inkscape:connector-curvature="0"
           style="opacity:1;fill:#0d426e;fill-opacity:1" />
      </g>
    </g>
  </g>
</svg>
