<?xml version="1.0" encoding="UTF-8" standalone="no"?>
<!-- Created with Inkscape (http://www.inkscape.org/) -->
<svg id="svg2" xmlns:rdf="http://www.w3.org/1999/02/22-rdf-syntax-ns#" xmlns="http://www.w3.org/2000/svg" xml:space="preserve" height="384.93" viewBox="0 0 1007.7466 384.92761" width="1007.7" version="1.1" xmlns:cc="http://creativecommons.org/ns#" xmlns:xlink="http://www.w3.org/1999/xlink" xmlns:dc="http://purl.org/dc/elements/1.1/"><metadata id="metadata8"><rdf:RDF><cc:Work rdf:about=""><dc:format>image/svg+xml</dc:format><dc:type rdf:resource="http://purl.org/dc/dcmitype/StillImage"/><dc:title/></cc:Work></rdf:RDF></metadata><defs id="defs6"><filter id="filter4530" style="color-interpolation-filters:sRGB" height="1.0443" width="1.0165" y="-.022138" x="-.0082308"><feGaussianBlur id="feGaussianBlur4532" stdDeviation="2.7200669"/></filter><clipPath id="clipPath4650" clipPathUnits="userSpaceOnUse"><rect id="rect4652" transform="scale(1,-1)" height="306.82" width="817.19" stroke="#c23e4f" y="-675.83" x="-1.7775" stroke-width="2.4849" fill="none"/></clipPath><linearGradient id="linearGradient4660" y2="-406.96" gradientUnits="userSpaceOnUse" x2="393.18" y1="-616.67" x1="393.18"><stop id="stop4656" stop-color="#c23e4f" offset="0"/><stop id="stop4662" stop-color="#ff8393" offset=".5"/><stop id="stop4658" stop-color="#c23e4f" offset="1"/></linearGradient><radialGradient id="radialGradient4670" gradientUnits="userSpaceOnUse" cy="-511.81" cx="393.18" gradientTransform="matrix(1.0846 0 0 .58937 -33.267 -210.17)" r="396.57"><stop id="stop4666" stop-color="#ffb3be" offset="0"/><stop id="stop4668" stop-color="#f05b6f" offset="1"/></radialGradient></defs><g id="g10" transform="matrix(1.25 0 0 -1.25 8.3971 826.23)"><rect id="rect4504" fill-opacity=".48066" transform="matrix(1,0,0,-1,3.2,-4.8)" height="294.89" filter="url(#filter4530)" width="793.14" y="-659.26" x="-3.3895"/><rect id="rect4231" transform="scale(1,-1)" height="294.89" width="793.14" y="-659.26" x="-3.3895" fill="url(#radialGradient4670)"/><g id="g4407" clip-path="url(#clipPath4650)" transform="matrix(.97057 0 0 .96109 -1.6643 9.7222)"><path id="path4295" stroke-linejoin="round" d="m341.72 325.89-0.27344 2.2695c-20.344-0.43426-40.907 1.2611-52.424 8.2383-1.709 1.0355-3.3401 2.1632-4.9023 3.3574l-1.2109-1.0391-15.08 14.508 1.9863 1.7051c-5.95 8.4446-9.9731 17.426-12.572 24.541h-15.459v10.352l-28.117 8.0508v-0.084h-37.844v21.064h-31.713v-15.377h-31.33v-23.557h-33.354v23.557h-141.41v38.094h141.41v5.4043h-141.41v38.092h141.41v19.889h33.354v-19.889h31.33v-19.043h31.713v21.037h37.844v-0.29101l28.117 7.5781v5.9336h49.064v-4.0039h39.785v3.9336h27.564v-3.9336h31.84v4.0059h27.564v-4.0059h25.494v-17.033h-25.494v-4.0098h-27.564v4.0098h-31.84v-4.084h-27.564v4.084h-39.785v-12.529h61.793v3.9356h27.564v-3.9356h31.842v4.0098h27.564v-4.0098h25.492v-17.033h-25.492v-4.0078h-27.564v4.0078h-31.842v-4.0801h-27.564v4.0801h-61.793v-13.025h77.18v3.9355h27.566v-3.9355h31.842v4.0059h27.564v-4.0059h25.494v-17.033h-25.494v-4.0098h-27.564v4.0098h-31.842v-4.084h-27.566v4.084h-77.18v-14.027h56.234v3.9356h27.564v-3.9356h31.842v4.0059h27.566v-4.0059h25.49v-17.037h-25.49v-4.0059h-27.566v4.0059h-31.842v-4.0801h-27.564v4.0801h-56.234v-9.0879h-5.3008c1.1792-2.5272 2.5216-5.09 4.0156-7.5879l1.5098 1.2949 15.078-14.508-2.5566-2.1934c0.0356-0.0218 0.0698-0.0468 0.10546-0.0684 5.3885-3.2638 18.672-4.4654 34.848-4.2012l-0.30859 2.5684 21.828 2.1719 0.4375-3.6387c11.01 0.88324 22.32 2.2342 32.758 3.9297l4.6641-23.674c-5.2257-0.85001-18.597-2.8761-34.537-4.2109l0.15625-1.2891-21.826-2.1738zm-99.93 81.11v11.857h-28.117v-3.916l28.12-7.94zm-28.117 59.027h28.117v11.291l-28.117-7.5781v-3.7129z" transform="matrix(.8 0 0 -.8 0 799.92)" stroke="#fff" stroke-linecap="round" stroke-width="15" fill="#fff"/><g id="g5033" transform="matrix(1 0 0 .90877 0 56.814)"><path id="path254-3" d="m202.68 472.29c0.72137 3.5756 7.6431 35.345 28.542 49.278 20.375 13.583 76.152 4.4595 87.125 2.4956l-3.7319-20.84c-27.585 4.9307-62.823 6.6132-71.651 0.72971-11.575-7.7182-18.026-28.504-19.535-35.862l-20.749 4.1989z" fill="#6d6e71"/><path id="path256" d="m-49.583 428.98v33.535h164.87v-33.535h-164.87z" fill="#909295"/><path id="path258-9" d="m-49.583 390.69v33.532h164.87v-33.532h-164.87z" fill="#909295"/><path id="path260" d="m74.129 407.46v41.524h125.04v-41.524h-125.04z" fill="#6d6e71"/><path id="path270-9" d="m164.76 450.51v14.994l32.195 10.145h170.68v-14.996h-170.24l-32.634-10.143z" fill="#6d6e71"/><path id="path272" d="m277.67 457.19v22.054h22.052v-22.054h-22.052z" fill="#909295"/><path id="path274" d="m325.19 457.12v22.052h22.054v-22.052h-22.054z" fill="#909295"/><path id="path276" d="m230.48 433.31v14.994h153.92v-14.994h-153.92z" fill="#6d6e71"/><path id="path278" d="m294.42 429.84v22.054h22.054v-22.054h-22.054z" fill="#909295"/><path id="path280" d="m341.95 429.78v22.052h22.052v-22.052h-22.052z" fill="#909295"/><path id="path282" d="m227.35 406.85v14.994h144.73v-14.994h-144.73z" fill="#6d6e71"/><path id="path284" d="m282.12 403.38v22.052h22.052v-22.052h-22.052z" fill="#909295"/><path id="path286" d="m329.64 403.32v22.052h22.052v-22.052h-22.052z" fill="#909295"/><path id="path290" d="m169.61 389.58v14.994l29.549-8.7606h155.32v-14.994h-155.32l-29.549 8.7606z" fill="#6d6e71"/><path id="path292" d="m264.51 377.36v22.052h22.052v-22.052h-22.052z" fill="#909295"/><path id="path294" d="m312.03 377.3v22.052h22.052v-22.052h-22.052z" fill="#909295"/><path id="path296" d="m232.68 483.65v-106.35h-39.252v106.35h39.252z" fill="#31a463"/><path id="path298" d="m170.94 467.52v-78.587h-30.274v78.587h30.274z" fill-opacity=".94118" fill="#31a463"/><path id="path300" d="m90.226 483.25v-110.07h-26.682v110.07h26.682z" fill="#58595b"/><path id="path304" d="m270.59 505.39 2.7854 25.427 17.461-1.9139-2.7833-25.425-17.463 1.9118z" fill="#909295"/><path id="path308" d="m232.86 489.19-18.595 17.565 12.063 12.772 18.595-17.565-12.063-12.772z" fill="#909295"/></g></g><g id="g4399" transform="matrix(1.0009 0 0 .94108 -14.307 24.555)"><g id="text4287" stroke-linejoin="round" transform="scale(.92428 -1.0819)" stroke="#fff" stroke-linecap="round" stroke-width="12" fill="#fff"><path id="path4718" d="m470.32-496.71v59.766h-14.914v-3.5439q-2.1411 2.2149-4.5036 3.3224-2.3626 1.1075-4.9466 1.1075-3.47 0-6.0172-1.8088-2.5472-1.8458-3.2855-4.2452-0.70138-2.3995-0.70138-7.826v-22.924q0-5.648 0.70138-8.0106 0.73831-2.3626 3.3224-4.1345 2.5841-1.8088 6.1648-1.8088 2.7686 0 5.0574 0.99671 2.3257 0.99671 4.2083 2.9901v-13.88h14.914zm-14.914 23.109q0-2.6948-0.47989-3.6177-0.44298-0.92288-1.8088-0.92288-1.3289 0-1.8088 0.84905-0.44298 0.81213-0.44298 3.6915v23.995q0 2.9901 0.44298 3.9499 0.44298 0.92288 1.6981 0.92288 1.4397 0 1.9196-1.0336 0.47989-1.0705 0.47989-5.1681v-22.666z"/><path id="path4720" d="m509.45-460.57h-19.307v10.595q0 3.3224 0.47989 4.2822 0.4799 0.95979 1.8458 0.95979 1.6981 0 2.2518-1.2551 0.59064-1.292 0.59064-4.9466v-6.4602h14.139v3.6177q0 4.5406-0.59065 6.977-0.55373 2.4364-2.6579 5.205t-5.3527 4.1714q-3.2116 1.3659-8.0844 1.3659-4.7252 0-8.3428-1.3659-3.6177-1.3659-5.648-3.7284-1.9934-2.3995-2.7686-5.242-0.77522-2.8794-0.77522-8.3428v-14.286q0-6.4232 1.735-10.115 1.735-3.7284 5.6849-5.6849 3.9499-1.9934 9.0811-1.9934 6.2756 0 10.336 2.3995 4.0976 2.3626 5.7218 6.3125 1.6612 3.913 1.6612 11.038v6.4971zm-14.951-7.9737v-3.5808q0-3.8023-0.40607-4.9097-0.40606-1.1075-1.6612-1.1075-1.5504 0-1.9196 0.9598-0.36915 0.92287-0.36915 5.0574v3.5808h4.356z"/><path id="path4722" d="m528.09-496.71h15.652q6.3494 0 9.7456 0.99671 3.4331 0.99671 5.1312 2.8794 1.735 1.8827 2.3257 4.5775 0.62756 2.6579 0.62756 8.269v5.205q0 5.7219-1.1813 8.3428-1.1813 2.621-4.356 4.0238-3.1378 1.4028-8.2321 1.4028h-4.1714v24.069h-15.541v-59.766zm15.541 10.226v15.209q0.66447 0.0369 1.1444 0.0369 2.1411 0 2.9532-1.0336 0.84905-1.0705 0.84905-4.3929v-4.9097q0-3.064-0.9598-3.9868-0.95979-0.92288-3.9868-0.92288z"/><path id="path4724" d="m580.51-485.93-0.59064 6.4232q3.2485-6.9031 9.4134-7.3092v17.239q-4.0976 0-6.0172 1.1074-1.9196 1.1075-2.3626 3.1009-0.44299 1.9565-0.44299 9.0811v19.344h-14.914v-48.986h14.914z"/><path id="path4726" d="m626.36-468.73v11.997q0 6.6078-0.66447 9.7087-0.66448 3.064-2.8425 5.7588-2.178 2.6579-5.6111 3.9499-3.3962 1.2551-7.826 1.2551-4.9466 0-8.3798-1.0706-3.4331-1.1074-5.3527-3.2854-1.8827-2.2149-2.6948-5.3158-0.81213-3.1378-0.81213-9.3765v-12.551q0-6.8293 1.4766-10.668 1.4766-3.8392 5.3158-6.1648 3.8392-2.3257 9.8194-2.3257 5.0205 0 8.6012 1.5135 3.6177 1.4766 5.5742 3.8761t2.6579 4.9466q0.7383 2.5472 0.7383 7.7522zm-14.914-3.6915q0-3.7654-0.40607-4.7252-0.40606-0.99671-1.735-0.99671-1.329 0-1.7719 0.99671-0.44298 0.9598-0.44298 4.7252v22.112q0 3.47 0.44298 4.5406 0.44298 1.0336 1.735 1.0336 1.3289 0 1.735-0.95979 0.44298-0.9598 0.44298-4.1345v-22.592zm10.447-26.8-12.145 10.004h-7.4938l6.4971-10.004h13.142z"/><path id="path4728" d="m647.03-492.46v7.7153h4.0238v7.7522h-4.0238v26.21q0 4.8359 0.4799 5.3896 0.51681 0.55373 4.1714 0.55373v7.8998h-6.0172q-5.0943 0-7.2723-0.40607-2.178-0.44298-3.8392-1.9565-1.6612-1.5504-2.0672-3.507-0.40607-1.9934-0.40607-9.3026v-24.881h-3.2116v-7.7522h3.2116v-7.7153h14.951z"/><path id="path4730" d="m688.12-460.57h-19.307v10.595q0 3.3224 0.4799 4.2822 0.4799 0.95979 1.8458 0.95979 1.6981 0 2.2518-1.2551 0.59064-1.292 0.59064-4.9466v-6.4602h14.139v3.6177q0 4.5406-0.59064 6.977-0.55373 2.4364-2.6579 5.205t-5.3527 4.1714q-3.2116 1.3659-8.0844 1.3659-4.7251 0-8.3428-1.3659t-5.648-3.7284q-1.9934-2.3995-2.7686-5.242-0.77522-2.8794-0.77522-8.3428v-14.286q0-6.4232 1.735-10.115 1.735-3.7284 5.6849-5.6849 3.9499-1.9934 9.0811-1.9934 6.2756 0 10.336 2.3995 4.0976 2.3626 5.7219 6.3125 1.6612 3.913 1.6612 11.038v6.4971zm-14.951-7.9737v-3.5808q0-3.8023-0.40607-4.9097-0.40607-1.1075-1.6612-1.1075-1.5504 0-1.9196 0.9598-0.36915 0.92287-0.36915 5.0574v3.5808h4.356z"/><path id="path4732" d="m723.49-470.28h-13.216v-2.6579q0-3.3962-0.40607-4.2822-0.36915-0.92288-1.9196-0.92288-1.2551 0-1.8827 0.84905-0.62756 0.81213-0.62756 2.4733 0 2.2518 0.29533 3.3224 0.33223 1.0336 1.8827 2.2887 1.5874 1.2551 6.4602 3.6546 6.4971 3.1747 8.5274 5.9803t2.0303 8.1583q0 5.9803-1.5504 9.0442-1.5504 3.027-5.205 4.6882-3.6177 1.6243-8.7489 1.6243-5.6849 0-9.7456-1.7719-4.0238-1.7719-5.5373-4.799-1.5135-3.027-1.5135-9.155v-2.3626h13.216v3.1009q0 3.9499 0.4799 5.1312 0.51681 1.1813 1.9934 1.1813 1.5874 0 2.2149-0.77522 0.62756-0.81213 0.62756-3.3593 0-3.5069-0.81214-4.3929-0.84904-0.88596-8.6751-5.242-6.5709-3.6915-8.0106-6.6817-1.4397-3.027-1.4397-7.1615 0-5.8695 1.5504-8.6382 1.5504-2.8056 5.242-4.3191 3.7284-1.5135 8.6382-1.5135 4.8728 0 8.269 1.2551 3.4331 1.2182 5.242 3.2485 1.8458 2.0303 2.2149 3.7654 0.40607 1.735 0.40607 5.4265v2.8425z"/><path id="path4734" d="m743.97-496.71v7.7891h-15.357v-7.7891h15.357zm0 10.779v48.986h-15.357v-48.986h15.357z"/><path id="path4736" d="m779.74-470.28h-13.216v-2.6579q0-3.3962-0.40606-4.2822-0.36915-0.92288-1.9196-0.92288-1.2551 0-1.8827 0.84905-0.62756 0.81213-0.62756 2.4733 0 2.2518 0.29533 3.3224 0.33223 1.0336 1.8827 2.2887 1.5874 1.2551 6.4602 3.6546 6.4971 3.1747 8.5274 5.9803t2.0303 8.1583q0 5.9803-1.5504 9.0442-1.5504 3.027-5.205 4.6882-3.6177 1.6243-8.7489 1.6243-5.6849 0-9.7456-1.7719-4.0238-1.7719-5.5373-4.799-1.5135-3.027-1.5135-9.155v-2.3626h13.216v3.1009q0 3.9499 0.4799 5.1312 0.51681 1.1813 1.9934 1.1813 1.5874 0 2.2149-0.77522 0.62756-0.81213 0.62756-3.3593 0-3.5069-0.81214-4.3929-0.84905-0.88596-8.6751-5.242-6.5709-3.6915-8.0106-6.6817-1.4397-3.027-1.4397-7.1615 0-5.8695 1.5504-8.6382 1.5504-2.8056 5.242-4.3191 3.7284-1.5135 8.6382-1.5135 4.8728 0 8.269 1.2551 3.4331 1.2182 5.242 3.2485 1.8458 2.0303 2.2149 3.7654 0.40607 1.735 0.40607 5.4265v2.8425z"/><path id="path4738" d="m831.91-468.73v11.997q0 6.6078-0.66447 9.7087-0.66448 3.064-2.8425 5.7588-2.178 2.6579-5.6111 3.9499-3.3962 1.2551-7.826 1.2551-4.9466 0-8.3798-1.0706-3.4331-1.1074-5.3527-3.2854-1.8827-2.2149-2.6948-5.3158-0.81213-3.1378-0.81213-9.3765v-12.551q0-6.8293 1.4766-10.668 1.4766-3.8392 5.3158-6.1648 3.8392-2.3257 9.8194-2.3257 5.0205 0 8.6012 1.5135 3.6177 1.4766 5.5742 3.8761t2.6579 4.9466q0.7383 2.5472 0.7383 7.7522zm-14.914-3.6915q0-3.7654-0.40607-4.7252-0.40606-0.99671-1.735-0.99671-1.329 0-1.7719 0.99671-0.44298 0.9598-0.44298 4.7252v22.112q0 3.47 0.44298 4.5406 0.44298 1.0336 1.735 1.0336 1.329 0 1.735-0.95979 0.44298-0.9598 0.44298-4.1345v-22.592z"/><path id="path4740" d="m469.58-395.04h-15.541v-10.41q0-4.5406-0.51681-5.648-0.4799-1.1444-2.178-1.1444-1.9196 0-2.4364 1.3659-0.51681 1.3659-0.51681 5.9064v27.76q0 4.356 0.51681 5.6849 0.51681 1.329 2.3257 1.329 1.735 0 2.2518-1.329 0.55373-1.329 0.55373-6.2387v-7.4938h15.541v2.3257q0 9.2657-1.329 13.142-1.292 3.8761-5.7957 6.7924-4.4667 2.9163-11.038 2.9163-6.8293 0-11.259-2.4733-4.4298-2.4733-5.8695-6.8293-1.4397-4.3929-1.4397-13.179v-17.461q0-6.4602 0.44298-9.6718 0.44298-3.2485 2.621-6.2387 2.2149-2.9901 6.091-4.6882 3.913-1.735 8.9704-1.735 6.8662 0 11.333 2.6579 4.4667 2.6579 5.8695 6.6447 1.4028 3.9499 1.4028 12.33v5.6849z"/><path id="path4742" d="m508.53-393.12v11.997q0 6.6078-0.66448 9.7087-0.66447 3.064-2.8425 5.7588-2.178 2.6579-5.6111 3.9499-3.3962 1.2551-7.826 1.2551-4.9466 0-8.3798-1.0705-3.4331-1.1075-5.3527-3.2854-1.8827-2.2149-2.6948-5.3158-0.81214-3.1378-0.81214-9.3765v-12.551q0-6.8293 1.4766-10.668 1.4766-3.8392 5.3158-6.1648 3.8392-2.3257 9.8194-2.3257 5.0205 0 8.6012 1.5135 3.6177 1.4766 5.5742 3.8761t2.6579 4.9466q0.73831 2.5472 0.73831 7.7522zm-14.914-3.6915q0-3.7654-0.40607-4.7251-0.40607-0.99671-1.735-0.99671t-1.7719 0.99671q-0.44298 0.95979-0.44298 4.7251v22.112q0 3.47 0.44298 4.5406 0.44299 1.0336 1.735 1.0336 1.329 0 1.735-0.9598 0.44299-0.95979 0.44299-4.1345v-22.592z"/><path id="path4744" d="m528.83-421.11v59.766h-15.357v-59.766h15.357z"/><path id="path4746" d="m567.11-391.83h-14.065v-5.648q0-2.9532-0.47989-3.9868-0.4799-1.0705-1.7719-1.0705t-1.735 0.92288q-0.44298 0.92288-0.44298 4.1345v23.109q0 2.621 0.66447 3.9499 0.66448 1.292 1.9565 1.292 1.5135 0 2.0303-1.3659 0.55373-1.3659 0.55373-5.1681v-5.8326h13.289q-0.0369 5.8695-0.44298 8.8227-0.36915 2.9163-2.4733 6.0172-2.0672 3.064-5.4265 4.6513-3.3593 1.5504-8.3059 1.5504-6.3125 0-10.004-2.1411-3.6915-2.178-5.242-6.0541-1.5135-3.913-1.5135-11.075v-13.917q0-6.2387 1.2551-9.4134t5.3527-5.648q4.0976-2.5102 9.9671-2.5102 5.8326 0 9.9671 2.4733t5.5004 6.2387 1.3659 10.668z"/><path id="path4748" d="m586.42-421.11v13.437q1.9196-1.7719 4.1345-2.6579 2.2518-0.88597 4.799-0.88597 3.913 0 6.6447 1.9934 2.7686 1.9934 3.3593 4.6144 0.62756 2.5841 0.62756 9.4872v33.777h-14.914v-34.479q0-4.2822-0.44298-5.5004-0.40607-1.2182-1.8827-1.2182-1.3659 0-1.8458 1.2551-0.47989 1.2551-0.47989 4.9836v34.959h-14.914v-59.766h14.914z"/><path id="path4750" d="m644.82-393.12v11.997q0 6.6078-0.66448 9.7087-0.66447 3.064-2.8425 5.7588-2.178 2.6579-5.6111 3.9499-3.3962 1.2551-7.826 1.2551-4.9466 0-8.3798-1.0705-3.4331-1.1075-5.3527-3.2854-1.8827-2.2149-2.6948-5.3158-0.81214-3.1378-0.81214-9.3765v-12.551q0-6.8293 1.4766-10.668 1.4766-3.8392 5.3158-6.1648 3.8392-2.3257 9.8194-2.3257 5.0205 0 8.6012 1.5135 3.6177 1.4766 5.5742 3.8761t2.6579 4.9466q0.73831 2.5472 0.73831 7.7522zm-14.914-3.6915q0-3.7654-0.40607-4.7251-0.40607-0.99671-1.735-0.99671-1.329 0-1.7719 0.99671-0.44299 0.95979-0.44299 4.7251v22.112q0 3.47 0.44299 4.5406 0.44298 1.0336 1.735 1.0336 1.329 0 1.735-0.9598 0.44298-0.95979 0.44298-4.1345v-22.592zm10.447-26.8-12.145 10.004h-7.4938l6.4971-10.004h13.142z"/><path id="path4752" d="m664.94-410.33-0.2584 4.5036q1.6243-2.6948 3.9499-4.0238 2.3626-1.3659 5.4265-1.3659 3.8392 0 6.2756 1.8088t3.1378 4.5775q0.70139 2.7317 0.70139 9.155v34.331h-14.914v-33.925q0-5.0574-0.33224-6.1648-0.33223-1.1074-1.8458-1.1074-1.5874 0-1.9934 1.292-0.40606 1.2551-0.40606 6.7924v33.113h-14.914v-48.986h15.172z"/><path id="path4754" d="m729.91-421.11 8.8966 59.766h-15.91l-0.77522-10.742h-5.5742l-0.92288 10.742h-16.095l7.8998-59.766h22.481zm-8.2321 38.429q-1.1813-10.152-2.3626-25.065-2.3626 17.129-2.9532 25.065h5.3158z"/><path id="path4756" d="m774.83-410.33v55.963h-14.914v-10.927q-2.178 3.1747-4.0238 3.9868-1.8088 0.84905-4.5036 0.84905-3.913 0-6.4971-1.8458-2.5472-1.8458-3.4331-4.7621-0.88596-2.9532-0.88596-9.0073v-21.595q0-4.9836 0.66447-7.42 0.66447-2.4733 3.1747-4.2822 2.5472-1.8458 6.0172-1.8458 2.8056 0 5.1681 1.2551 2.3626 1.2551 4.3191 3.8023l0.25841-4.1714h14.655zm-14.914 13.326q0-3.2485-0.51681-4.3929-0.4799-1.1444-1.7719-1.1444-1.2551 0-1.6981 0.99671-0.44298 0.99671-0.44298 4.5406v21.817q0 3.9499 0.44298 5.0205 0.44298 1.0336 1.8088 1.0336 1.292 0 1.735-1.0705 0.44298-1.1075 0.44298-4.7621v-22.038z"/><path id="path4758" d="m814.3-410.33v48.986h-15.172l0.2584-4.0607q-1.5504 2.4733-3.8392 3.7284-2.2518 1.2182-5.205 1.2182-3.3593 0-5.5742-1.1813t-3.2855-3.1378q-1.0336-1.9565-1.292-4.0607-0.2584-2.1411-0.2584-8.4536v-33.039h14.914v33.334q0 5.7219 0.33223 6.7924 0.36915 1.0705 1.9196 1.0705 1.6612 0 1.9565-1.1075 0.33223-1.1074 0.33223-7.1246v-32.965h14.914z"/><path id="path4760" d="m835.08-410.33v48.986h-15.357v-48.986h15.357zm5.0574-13.289-12.145 10.004h-7.4938l6.4971-10.004h13.142z"/></g><g id="text5122" fill="#ff8d2c" transform="scale(.92428 -1.0819)"><path id="path4673" style="" d="m470.32-496.71v59.766h-14.914v-3.5439q-2.1411 2.2149-4.5036 3.3224-2.3626 1.1075-4.9466 1.1075-3.47 0-6.0172-1.8088-2.5472-1.8458-3.2855-4.2452-0.70138-2.3995-0.70138-7.826v-22.924q0-5.648 0.70138-8.0106 0.73831-2.3626 3.3224-4.1345 2.5841-1.8088 6.1648-1.8088 2.7686 0 5.0574 0.99671 2.3257 0.99671 4.2083 2.9901v-13.88h14.914zm-14.914 23.109q0-2.6948-0.47989-3.6177-0.44298-0.92288-1.8088-0.92288-1.3289 0-1.8088 0.84905-0.44298 0.81213-0.44298 3.6915v23.995q0 2.9901 0.44298 3.9499 0.44298 0.92288 1.6981 0.92288 1.4397 0 1.9196-1.0336 0.47989-1.0705 0.47989-5.1681v-22.666z"/><path id="path4675" style="" d="m509.45-460.57h-19.307v10.595q0 3.3224 0.47989 4.2822 0.4799 0.95979 1.8458 0.95979 1.6981 0 2.2518-1.2551 0.59064-1.292 0.59064-4.9466v-6.4602h14.139v3.6177q0 4.5406-0.59065 6.977-0.55373 2.4364-2.6579 5.205t-5.3527 4.1714q-3.2116 1.3659-8.0844 1.3659-4.7252 0-8.3428-1.3659-3.6177-1.3659-5.648-3.7284-1.9934-2.3995-2.7686-5.242-0.77522-2.8794-0.77522-8.3428v-14.286q0-6.4232 1.735-10.115 1.735-3.7284 5.6849-5.6849 3.9499-1.9934 9.0811-1.9934 6.2756 0 10.336 2.3995 4.0976 2.3626 5.7218 6.3125 1.6612 3.913 1.6612 11.038v6.4971zm-14.951-7.9737v-3.5808q0-3.8023-0.40607-4.9097-0.40606-1.1075-1.6612-1.1075-1.5504 0-1.9196 0.9598-0.36915 0.92287-0.36915 5.0574v3.5808h4.356z"/><path id="path4677" style="" d="m528.09-496.71h15.652q6.3494 0 9.7456 0.99671 3.4331 0.99671 5.1312 2.8794 1.735 1.8827 2.3257 4.5775 0.62756 2.6579 0.62756 8.269v5.205q0 5.7219-1.1813 8.3428-1.1813 2.621-4.356 4.0238-3.1378 1.4028-8.2321 1.4028h-4.1714v24.069h-15.541v-59.766zm15.541 10.226v15.209q0.66447 0.0369 1.1444 0.0369 2.1411 0 2.9532-1.0336 0.84905-1.0705 0.84905-4.3929v-4.9097q0-3.064-0.9598-3.9868-0.95979-0.92288-3.9868-0.92288z"/><path id="path4679" style="" d="m580.51-485.93-0.59064 6.4232q3.2485-6.9031 9.4134-7.3092v17.239q-4.0976 0-6.0172 1.1074-1.9196 1.1075-2.3626 3.1009-0.44299 1.9565-0.44299 9.0811v19.344h-14.914v-48.986h14.914z"/><path id="path4681" style="" d="m626.36-468.73v11.997q0 6.6078-0.66447 9.7087-0.66448 3.064-2.8425 5.7588-2.178 2.6579-5.6111 3.9499-3.3962 1.2551-7.826 1.2551-4.9466 0-8.3798-1.0706-3.4331-1.1074-5.3527-3.2854-1.8827-2.2149-2.6948-5.3158-0.81213-3.1378-0.81213-9.3765v-12.551q0-6.8293 1.4766-10.668 1.4766-3.8392 5.3158-6.1648 3.8392-2.3257 9.8194-2.3257 5.0205 0 8.6012 1.5135 3.6177 1.4766 5.5742 3.8761t2.6579 4.9466q0.7383 2.5472 0.7383 7.7522zm-14.914-3.6915q0-3.7654-0.40607-4.7252-0.40606-0.99671-1.735-0.99671-1.329 0-1.7719 0.99671-0.44298 0.9598-0.44298 4.7252v22.112q0 3.47 0.44298 4.5406 0.44298 1.0336 1.735 1.0336 1.3289 0 1.735-0.95979 0.44298-0.9598 0.44298-4.1345v-22.592zm10.447-26.8-12.145 10.004h-7.4938l6.4971-10.004h13.142z"/><path id="path4683" style="" d="m647.03-492.46v7.7153h4.0238v7.7522h-4.0238v26.21q0 4.8359 0.4799 5.3896 0.51681 0.55373 4.1714 0.55373v7.8998h-6.0172q-5.0943 0-7.2723-0.40607-2.178-0.44298-3.8392-1.9565-1.6612-1.5504-2.0672-3.507-0.40607-1.9934-0.40607-9.3026v-24.881h-3.2116v-7.7522h3.2116v-7.7153h14.951z"/><path id="path4685" style="" d="m688.12-460.57h-19.307v10.595q0 3.3224 0.4799 4.2822 0.4799 0.95979 1.8458 0.95979 1.6981 0 2.2518-1.2551 0.59064-1.292 0.59064-4.9466v-6.4602h14.139v3.6177q0 4.5406-0.59064 6.977-0.55373 2.4364-2.6579 5.205t-5.3527 4.1714q-3.2116 1.3659-8.0844 1.3659-4.7251 0-8.3428-1.3659t-5.648-3.7284q-1.9934-2.3995-2.7686-5.242-0.77522-2.8794-0.77522-8.3428v-14.286q0-6.4232 1.735-10.115 1.735-3.7284 5.6849-5.6849 3.9499-1.9934 9.0811-1.9934 6.2756 0 10.336 2.3995 4.0976 2.3626 5.7219 6.3125 1.6612 3.913 1.6612 11.038v6.4971zm-14.951-7.9737v-3.5808q0-3.8023-0.40607-4.9097-0.40607-1.1075-1.6612-1.1075-1.5504 0-1.9196 0.9598-0.36915 0.92287-0.36915 5.0574v3.5808h4.356z"/><path id="path4687" style="" d="m723.49-470.28h-13.216v-2.6579q0-3.3962-0.40607-4.2822-0.36915-0.92288-1.9196-0.92288-1.2551 0-1.8827 0.84905-0.62756 0.81213-0.62756 2.4733 0 2.2518 0.29533 3.3224 0.33223 1.0336 1.8827 2.2887 1.5874 1.2551 6.4602 3.6546 6.4971 3.1747 8.5274 5.9803t2.0303 8.1583q0 5.9803-1.5504 9.0442-1.5504 3.027-5.205 4.6882-3.6177 1.6243-8.7489 1.6243-5.6849 0-9.7456-1.7719-4.0238-1.7719-5.5373-4.799-1.5135-3.027-1.5135-9.155v-2.3626h13.216v3.1009q0 3.9499 0.4799 5.1312 0.51681 1.1813 1.9934 1.1813 1.5874 0 2.2149-0.77522 0.62756-0.81213 0.62756-3.3593 0-3.5069-0.81214-4.3929-0.84904-0.88596-8.6751-5.242-6.5709-3.6915-8.0106-6.6817-1.4397-3.027-1.4397-7.1615 0-5.8695 1.5504-8.6382 1.5504-2.8056 5.242-4.3191 3.7284-1.5135 8.6382-1.5135 4.8728 0 8.269 1.2551 3.4331 1.2182 5.242 3.2485 1.8458 2.0303 2.2149 3.7654 0.40607 1.735 0.40607 5.4265v2.8425z"/><path id="path4689" style="" d="m743.97-496.71v7.7891h-15.357v-7.7891h15.357zm0 10.779v48.986h-15.357v-48.986h15.357z"/><path id="path4691" style="" d="m779.74-470.28h-13.216v-2.6579q0-3.3962-0.40606-4.2822-0.36915-0.92288-1.9196-0.92288-1.2551 0-1.8827 0.84905-0.62756 0.81213-0.62756 2.4733 0 2.2518 0.29533 3.3224 0.33223 1.0336 1.8827 2.2887 1.5874 1.2551 6.4602 3.6546 6.4971 3.1747 8.5274 5.9803t2.0303 8.1583q0 5.9803-1.5504 9.0442-1.5504 3.027-5.205 4.6882-3.6177 1.6243-8.7489 1.6243-5.6849 0-9.7456-1.7719-4.0238-1.7719-5.5373-4.799-1.5135-3.027-1.5135-9.155v-2.3626h13.216v3.1009q0 3.9499 0.4799 5.1312 0.51681 1.1813 1.9934 1.1813 1.5874 0 2.2149-0.77522 0.62756-0.81213 0.62756-3.3593 0-3.5069-0.81214-4.3929-0.84905-0.88596-8.6751-5.242-6.5709-3.6915-8.0106-6.6817-1.4397-3.027-1.4397-7.1615 0-5.8695 1.5504-8.6382 1.5504-2.8056 5.242-4.3191 3.7284-1.5135 8.6382-1.5135 4.8728 0 8.269 1.2551 3.4331 1.2182 5.242 3.2485 1.8458 2.0303 2.2149 3.7654 0.40607 1.735 0.40607 5.4265v2.8425z"/><path id="path4693" style="" d="m831.91-468.73v11.997q0 6.6078-0.66447 9.7087-0.66448 3.064-2.8425 5.7588-2.178 2.6579-5.6111 3.9499-3.3962 1.2551-7.826 1.2551-4.9466 0-8.3798-1.0706-3.4331-1.1074-5.3527-3.2854-1.8827-2.2149-2.6948-5.3158-0.81213-3.1378-0.81213-9.3765v-12.551q0-6.8293 1.4766-10.668 1.4766-3.8392 5.3158-6.1648 3.8392-2.3257 9.8194-2.3257 5.0205 0 8.6012 1.5135 3.6177 1.4766 5.5742 3.8761t2.6579 4.9466q0.7383 2.5472 0.7383 7.7522zm-14.914-3.6915q0-3.7654-0.40607-4.7252-0.40606-0.99671-1.735-0.99671-1.329 0-1.7719 0.99671-0.44298 0.9598-0.44298 4.7252v22.112q0 3.47 0.44298 4.5406 0.44298 1.0336 1.735 1.0336 1.329 0 1.735-0.95979 0.44298-0.9598 0.44298-4.1345v-22.592z"/><path id="path4695" style="" d="m469.58-395.04h-15.541v-10.41q0-4.5406-0.51681-5.648-0.4799-1.1444-2.178-1.1444-1.9196 0-2.4364 1.3659-0.51681 1.3659-0.51681 5.9064v27.76q0 4.356 0.51681 5.6849 0.51681 1.329 2.3257 1.329 1.735 0 2.2518-1.329 0.55373-1.329 0.55373-6.2387v-7.4938h15.541v2.3257q0 9.2657-1.329 13.142-1.292 3.8761-5.7957 6.7924-4.4667 2.9163-11.038 2.9163-6.8293 0-11.259-2.4733-4.4298-2.4733-5.8695-6.8293-1.4397-4.3929-1.4397-13.179v-17.461q0-6.4602 0.44298-9.6718 0.44298-3.2485 2.621-6.2387 2.2149-2.9901 6.091-4.6882 3.913-1.735 8.9704-1.735 6.8662 0 11.333 2.6579 4.4667 2.6579 5.8695 6.6447 1.4028 3.9499 1.4028 12.33v5.6849z"/><path id="path4697" style="" d="m508.53-393.12v11.997q0 6.6078-0.66448 9.7087-0.66447 3.064-2.8425 5.7588-2.178 2.6579-5.6111 3.9499-3.3962 1.2551-7.826 1.2551-4.9466 0-8.3798-1.0705-3.4331-1.1075-5.3527-3.2854-1.8827-2.2149-2.6948-5.3158-0.81214-3.1378-0.81214-9.3765v-12.551q0-6.8293 1.4766-10.668 1.4766-3.8392 5.3158-6.1648 3.8392-2.3257 9.8194-2.3257 5.0205 0 8.6012 1.5135 3.6177 1.4766 5.5742 3.8761t2.6579 4.9466q0.73831 2.5472 0.73831 7.7522zm-14.914-3.6915q0-3.7654-0.40607-4.7251-0.40607-0.99671-1.735-0.99671t-1.7719 0.99671q-0.44298 0.95979-0.44298 4.7251v22.112q0 3.47 0.44298 4.5406 0.44299 1.0336 1.735 1.0336 1.329 0 1.735-0.9598 0.44299-0.95979 0.44299-4.1345v-22.592z"/><path id="path4699" style="" d="m528.83-421.11v59.766h-15.357v-59.766h15.357z"/><path id="path4701" style="" d="m567.11-391.83h-14.065v-5.648q0-2.9532-0.47989-3.9868-0.4799-1.0705-1.7719-1.0705t-1.735 0.92288q-0.44298 0.92288-0.44298 4.1345v23.109q0 2.621 0.66447 3.9499 0.66448 1.292 1.9565 1.292 1.5135 0 2.0303-1.3659 0.55373-1.3659 0.55373-5.1681v-5.8326h13.289q-0.0369 5.8695-0.44298 8.8227-0.36915 2.9163-2.4733 6.0172-2.0672 3.064-5.4265 4.6513-3.3593 1.5504-8.3059 1.5504-6.3125 0-10.004-2.1411-3.6915-2.178-5.242-6.0541-1.5135-3.913-1.5135-11.075v-13.917q0-6.2387 1.2551-9.4134t5.3527-5.648q4.0976-2.5102 9.9671-2.5102 5.8326 0 9.9671 2.4733t5.5004 6.2387 1.3659 10.668z"/><path id="path4703" style="" d="m586.42-421.11v13.437q1.9196-1.7719 4.1345-2.6579 2.2518-0.88597 4.799-0.88597 3.913 0 6.6447 1.9934 2.7686 1.9934 3.3593 4.6144 0.62756 2.5841 0.62756 9.4872v33.777h-14.914v-34.479q0-4.2822-0.44298-5.5004-0.40607-1.2182-1.8827-1.2182-1.3659 0-1.8458 1.2551-0.47989 1.2551-0.47989 4.9836v34.959h-14.914v-59.766h14.914z"/><path id="path4705" style="" d="m644.82-393.12v11.997q0 6.6078-0.66448 9.7087-0.66447 3.064-2.8425 5.7588-2.178 2.6579-5.6111 3.9499-3.3962 1.2551-7.826 1.2551-4.9466 0-8.3798-1.0705-3.4331-1.1075-5.3527-3.2854-1.8827-2.2149-2.6948-5.3158-0.81214-3.1378-0.81214-9.3765v-12.551q0-6.8293 1.4766-10.668 1.4766-3.8392 5.3158-6.1648 3.8392-2.3257 9.8194-2.3257 5.0205 0 8.6012 1.5135 3.6177 1.4766 5.5742 3.8761t2.6579 4.9466q0.73831 2.5472 0.73831 7.7522zm-14.914-3.6915q0-3.7654-0.40607-4.7251-0.40607-0.99671-1.735-0.99671-1.329 0-1.7719 0.99671-0.44299 0.95979-0.44299 4.7251v22.112q0 3.47 0.44299 4.5406 0.44298 1.0336 1.735 1.0336 1.329 0 1.735-0.9598 0.44298-0.95979 0.44298-4.1345v-22.592zm10.447-26.8-12.145 10.004h-7.4938l6.4971-10.004h13.142z"/><path id="path4707" style="" d="m664.94-410.33-0.2584 4.5036q1.6243-2.6948 3.9499-4.0238 2.3626-1.3659 5.4265-1.3659 3.8392 0 6.2756 1.8088t3.1378 4.5775q0.70139 2.7317 0.70139 9.155v34.331h-14.914v-33.925q0-5.0574-0.33224-6.1648-0.33223-1.1074-1.8458-1.1074-1.5874 0-1.9934 1.292-0.40606 1.2551-0.40606 6.7924v33.113h-14.914v-48.986h15.172z"/><path id="path4709" style="" d="m729.91-421.11 8.8966 59.766h-15.91l-0.77522-10.742h-5.5742l-0.92288 10.742h-16.095l7.8998-59.766h22.481zm-8.2321 38.429q-1.1813-10.152-2.3626-25.065-2.3626 17.129-2.9532 25.065h5.3158z"/><path id="path4711" style="" d="m774.83-410.33v55.963h-14.914v-10.927q-2.178 3.1747-4.0238 3.9868-1.8088 0.84905-4.5036 0.84905-3.913 0-6.4971-1.8458-2.5472-1.8458-3.4331-4.7621-0.88596-2.9532-0.88596-9.0073v-21.595q0-4.9836 0.66447-7.42 0.66447-2.4733 3.1747-4.2822 2.5472-1.8458 6.0172-1.8458 2.8056 0 5.1681 1.2551 2.3626 1.2551 4.3191 3.8023l0.25841-4.1714h14.655zm-14.914 13.326q0-3.2485-0.51681-4.3929-0.4799-1.1444-1.7719-1.1444-1.2551 0-1.6981 0.99671-0.44298 0.99671-0.44298 4.5406v21.817q0 3.9499 0.44298 5.0205 0.44298 1.0336 1.8088 1.0336 1.292 0 1.735-1.0705 0.44298-1.1075 0.44298-4.7621v-22.038z"/><path id="path4713" style="" d="m814.3-410.33v48.986h-15.172l0.2584-4.0607q-1.5504 2.4733-3.8392 3.7284-2.2518 1.2182-5.205 1.2182-3.3593 0-5.5742-1.1813t-3.2855-3.1378q-1.0336-1.9565-1.292-4.0607-0.2584-2.1411-0.2584-8.4536v-33.039h14.914v33.334q0 5.7219 0.33223 6.7924 0.36915 1.0705 1.9196 1.0705 1.6612 0 1.9565-1.1075 0.33223-1.1074 0.33223-7.1246v-32.965h14.914z"/><path id="path4715" style="" d="m835.08-410.33v48.986h-15.357v-48.986h15.357zm5.0574-13.289-12.145 10.004h-7.4938l6.4971-10.004h13.142z"/></g></g><g id="g4249" stroke-linejoin="round" transform="matrix(1.0234 0 0 -1.0012 -21.584 -12.963)" stroke="#fff" stroke-linecap="round" stroke-width="11.749" fill="#fff"><path id="path4251" d="m119.43-622.3q0 2.0528-0.68427 4.3195-0.68428 2.2667-2.0956 4.4906-1.4113 2.1811-3.6352 4.234-2.1811 2.0528-5.2604 3.678-3.0792 1.6252-7.0138 2.7371-3.9346 1.0692-8.8528 1.3686 2.9937 1.112 5.0038 2.8654 2.0101 1.7535 3.3358 3.9346 1.3686 2.1384 2.1384 4.5333 0.81257 2.395 1.3686 4.7044 0.55597 2.3094 0.98364 4.4478 0.47044 2.0956 1.0692 3.7208 0.64151 1.5824 1.5824 2.566 0.94088 0.94088 2.5233 0.94088 1.4541 0 3.1648-0.47044 1.7535-0.5132 3.5497-1.4113 1.839-0.89811 3.5924-2.1384 1.7962-1.2402 3.3358-2.7371l4.961 8.3824q0-0.0428-0.81258 0.55597-0.81258 0.55598-2.2667 1.4541-1.4541 0.85534-3.4641 1.8818-1.9673 1.0692-4.3623 1.9673-2.395 0.89811-5.0893 1.4968-2.6516 0.59874-5.4314 0.59874-3.122 0-5.3459-1.5396-2.1811-1.5396-3.7208-4.0629-1.5396-2.5233-2.566-5.7308-1.0264-3.2503-1.7962-6.6289-0.76981-3.3786-1.4541-6.5862-0.64151-3.2503-1.4541-5.7736-0.81258-2.5233-1.9245-4.0629t-2.7799-1.5396h-2.6943q-0.85534 9.366-2.1384 16.808-1.283 7.3987-3.4214 12.574-2.0956 5.1748-5.3031 7.9119-3.1648 2.7371-7.7836 2.7371-3.4214 0-6.2868-1.3258-2.8226-1.283-5.1321-3.5497-2.2667-2.2667-3.9774-5.3031-1.7107-3.0365-2.8654-6.5006-1.1119-3.5069-1.7107-7.2277-0.55597-3.7208-0.55597-7.3987 0-6.6289 1.6252-12.958 1.6679-6.3723 4.7472-12.018 3.122-5.6453 7.527-10.35 4.405-4.7472 9.8792-8.1686 5.517-3.4641 11.975-5.3887 6.5006-1.9245 13.728-1.9245 3.2075 0 6.3723 0.59874t6.0302 1.7535q2.8654 1.1547 5.3031 2.8654 2.4805 1.7107 4.234 3.9346 1.7962 2.1811 2.8226 4.8755 1.0264 2.6943 1.0264 5.8591zm-26.558-10.307q-7.0566 0-12.616 1.9673-5.517 1.9673-9.7082 5.3031t-7.1421 7.7409q-2.9509 4.405-4.7899 9.2377t-2.6943 9.7937q-0.81258 4.961-0.81258 9.4516 0 3.4641 0.59874 6.971 0.59874 3.4642 1.8818 6.244 1.283 2.7799 3.2931 4.5333 2.0528 1.7107 4.9182 1.7107 1.4541 0 2.566-1.112 1.1119-1.1547 1.9673-3.0365 0.85534-1.9245 1.4969-4.405 0.64151-2.5233 1.0692-5.2176 0.42767-2.6943 0.68428-5.4314 0.2566-2.7371 0.3849-5.1321 0.17107-2.395 0.21384-4.234 0.04277-1.8818 0.04277-2.8654-3.3358-1.5824-5.0893-2.9509-1.7107-1.3686-1.7107-3.1648 0-0.42768 0.04277-1.0264 0.08553-0.59874 0.29937-1.112 0.21384-0.5132 0.59874-0.85534 0.42767-0.38491 1.1119-0.38491 0.29937 0 1.1975 0.12831 0.89811 0.0855 1.8818 0.2566 0.98365 0.1283 1.7962 0.2566 0.85534 0.0855 1.1119 0.0855l0.04277-0.89812q0.04277-0.68427 0.1283-1.8818 0.1283-1.1975 0.3849-2.566 0.2566-1.3686 0.72704-2.7371 0.51321-1.4113 1.3258-2.5233 0.81258-1.1547 1.9245-1.839 1.1547-0.72704 2.7799-0.72704 2.1384 0 2.8226 0.98364 0.72704 0.94088 0.72704 2.4377v0.3849q-0.04277 1.6252-0.51321 4.3195-0.42767 2.6516-0.81258 6.1585 6.9711-0.1283 11.504-1.3686 4.5333-1.283 7.1849-3.2075t3.7208-4.1912q1.0692-2.3094 1.0692-4.4478 0-2.0956-1.0264-4.0201-0.98365-1.9245-2.9509-3.3786-1.9673-1.4969-4.8755-2.3522-2.9082-0.89811-6.7572-0.89811z"/><path id="path4253" d="m134.06-568.28q-4.0201 0-7.0566-1.4541-2.9937-1.4541-5.0038-3.8918-2.0101-2.4805-3.0365-5.688-0.98364-3.2503-0.98364-6.8 0-2.395 0.47044-5.0465 0.47044-2.6943 1.4113-5.2604 0.98364-2.566 2.4377-4.8755 1.4541-2.3522 3.3786-4.1056 1.9673-1.7962 4.3623-2.8226 2.4377-1.0692 5.3887-1.0692 2.395 0 4.4478 0.76981t3.5497 2.1811q1.5396 1.3686 2.395 3.3358 0.85534 1.9673 0.85534 4.405 0 2.6516-1.3258 5.3031-1.283 2.6516-3.5924 5.0038t-5.517 4.1912q-3.1648 1.839-6.8855 2.8654 0.64151 1.1547 1.2402 1.9245 0.64151 0.76981 1.283 1.1975 0.64151 0.42768 1.3258 0.59875 0.72705 0.17106 1.5396 0.17106 2.566 0 5.3887-1.0264 2.8654-1.0264 5.5597-2.566t5.0893-3.3358q2.395-1.839 4.0629-3.4641l5.517 5.7308q-3.7635 3.8918-7.9975 6.8855-1.839 1.283-3.9774 2.5233-2.0956 1.2402-4.4478 2.2239-2.3094 0.94088-4.8327 1.5396-2.4805 0.55598-5.0465 0.55598zm-5.688-20.101q1.5396 0 3.3358-0.76981 1.839-0.81258 3.3786-2.0528 1.5824-1.2402 2.6516-2.6943t1.0692-2.8226q0-1.9245-0.72704-3.1648-0.68428-1.2402-1.7107-1.2402-1.839 0-3.1648 0.68428-1.283 0.68427-2.1811 1.7962-0.85534 1.0692-1.4113 2.4805-0.51321 1.3686-0.81258 2.7799-0.25661 1.4113-0.34214 2.7371-0.0855 1.3258-0.0855 2.2667z"/><path id="path4255" d="m198.04-578.76q-0.98365 1.3686-2.6516 3.2075-1.6252 1.839-3.678 3.5069t-4.405 2.8226-4.7044 1.1547q-2.8226 0-4.7044-1.7962-1.8818-1.839-3.2503-5.3031-1.0264 1.1975-2.5233 2.4377-1.4968 1.2402-3.2931 2.2667-1.7535 0.98365-3.678 1.6252-1.9245 0.64151-3.849 0.64151-2.0528 0-4.0201-0.81257-1.9245-0.85535-3.4214-2.395-1.4968-1.5824-2.395-3.8063-0.89811-2.2667-0.89811-5.0893 0-3.2076 0.89811-6.5862t2.4805-6.5862q1.5824-3.2503 3.7208-6.1157 2.1811-2.8654 4.7472-5.0038 2.566-2.1384 5.3887-3.3786 2.8654-1.283 5.8164-1.283 0.98364 0 1.5396 0.3849 0.55597 0.38491 0.89811 0.89811 0.3849 0.47044 0.72704 0.94088t0.85535 0.68428q0.5132 0.21384 1.0264 0.29937 0.55597 0.0428 1.112 0.0428 0.47044 0 0.94088 0 0.5132-0.0428 0.98364-0.0428 0.64151 0 1.1975 0.1283 0.55597 0.1283 0.98364 0.55598 0.42767 0.42767 0.64151 1.1975 0.2566 0.76981 0.2566 2.0956 0 2.0528-0.42767 4.5761-0.42767 2.4805-0.94088 5.1321-0.5132 2.6088-0.94088 5.2604-0.42767 2.6088-0.42767 4.961 0 2.0101 0.34214 3.1648 0.3849 1.112 1.5824 1.112 0.89811 0 1.8818-0.42767 0.98365-0.47044 1.9673-1.1975 1.0264-0.72704 2.0101-1.6252 1.0264-0.94088 1.9245-1.9245 2.0956-2.3094 4.234-5.2176l2.0528 9.4943zm-36.523-3.3786q0 1.0692 0.1283 2.0956 0.17107 0.98365 0.55597 1.7962 0.38491 0.76981 1.0264 1.283 0.64151 0.47044 1.6252 0.47044 1.5824 0 2.8654-1.3686t2.2239-3.2931q0.94088-1.9245 1.4969-3.9774 0.59874-2.0528 0.76981-3.4214l2.6088-12.574q-1.7535 0-3.4214 0.89811-1.6679 0.85535-3.1648 2.3522-1.4541 1.4969-2.6943 3.4214t-2.1384 4.0629q-0.89812 2.0956-1.4113 4.234-0.47044 2.1384-0.47044 4.0201z"/><path id="path4257" d="m202.53-568.28q-2.3094 0-4.3195-2.0101-1.9673-2.0528-3.4642-5.4742-1.4541-3.4214-2.3094-7.9119-0.81257-4.5333-0.81257-9.4943 0-3.8063 0.55597-8.2541 0.55597-4.4906 1.6252-9.2377 1.0692-4.7472 2.5233-9.5371 1.4969-4.7899 3.3358-9.195 1.8818-4.405 4.0629-8.2113 2.1811-3.849 4.5761-6.6717 2.395-2.8654 5.0038-4.4906t5.3031-1.6252q1.839 0 3.0365 0.85534 1.1975 0.81258 1.8818 2.1811 0.68428 1.3686 0.94088 3.122 0.29937 1.7107 0.29937 3.5069 0 4.0201-0.94088 8.2113-0.89811 4.1484-2.4805 8.3824-1.5396 4.1912-3.5924 8.4252t-4.2767 8.4251q-2.2239 4.1484-4.4906 8.2113-2.2239 4.0201-4.1912 7.8692-0.21383 0.42767-0.47044 1.112-0.21383 0.68427-0.42767 1.4968-0.21383 0.76981-0.42767 1.6679-0.21384 0.89812-0.34214 1.7535v0.59874q0 1.112 0.21384 2.1811 0.2566 1.0264 0.59874 1.8818 0.34214 0.81258 0.72704 1.3258 0.38491 0.47044 0.72705 0.47044 0.81257 0 1.839-0.34213 1.0692-0.34214 2.2239-0.89812 1.1975-0.59874 2.4377-1.3258 1.2402-0.76981 2.395-1.5396 2.6943-1.7962 5.6453-4.1484l3.5069 8.9811q-3.8063 2.7371-7.527 4.8755-1.6252 0.89811-3.3786 1.7962-1.7107 0.85535-3.4641 1.5396-1.7535 0.68427-3.4214 1.1119-1.6679 0.38491-3.122 0.38491zm0.0428-34.214q1.9245-3.4214 4.0629-7.6981 2.1811-4.2767 4.1056-8.81t3.3358-9.0239q1.4113-4.5333 1.7962-8.4251 0-1.2402-0.0855-2.0956-0.0428-0.89811-0.3849-0.89811-1.2402 0-2.6943 1.6252-1.4113 1.5824-2.8654 4.3195-1.4113 2.7371-2.7371 6.3723-1.283 3.6352-2.3094 7.7409t-1.6252 8.4679q-0.59874 4.3195-0.59874 8.4251z"/><path id="path4259" d="m243.63-577.39q-1.5396 1.4113-3.849 3.0365-2.2667 1.5824-4.9182 2.9509-2.6516 1.3258-5.4314 2.2239-2.7371 0.89811-5.2176 0.89811-2.2239 0-3.7635-0.59874-1.4969-0.64151-2.4377-1.7535-0.94087-1.112-1.3686-2.6943-0.3849-1.6252-0.3849-3.5497 0-2.6943 0.59874-6.244 0.64151-3.5924 1.5396-7.3987 0.89811-3.849 1.8818-7.6553 1.0264-3.8063 1.7962-7.0138 0.29937-1.112 1.1975-1.8818 0.89812-0.81258 2.0101-1.283 1.1547-0.51321 2.3522-0.72704 1.2402-0.25661 2.2239-0.25661 1.7962 0 2.4377 0.68428 0.64151 0.64151 0.64151 1.7535 0 0.94087-0.42767 2.7371-0.42768 1.7535-1.0692 4.0201-0.64151 2.2239-1.3686 4.8327-0.72704 2.566-1.3686 5.1748-0.64151 2.566-1.0692 5.0465-0.42767 2.4377-0.42767 4.405 0 1.9245 0.42767 3.0792 0.42767 1.112 1.7535 1.112 1.5396 0 3.4214-1.0692t3.8063-2.566q1.9245-1.5396 3.7635-3.1648t3.2503-2.7799v8.6818zm-19.117-43.965q0-0.98365 0.42768-2.2239 0.42767-1.2402 1.3686-2.3094 0.98364-1.1119 2.566-1.839 1.6252-0.76981 4.0201-0.76981 1.4969 0 2.8226 0.34214 1.3258 0.34214 2.3094 1.0692 0.98365 0.68428 1.5396 1.839 0.59874 1.1547 0.59874 2.7371 0 1.4541-0.47044 2.8226-0.47044 1.3686-1.4968 2.4377-1.0264 1.0692-2.6088 1.7534-1.5396 0.64151-3.7208 0.64151-3.7635 0-5.5597-1.7535-1.7962-1.7962-1.7962-4.7472z"/><path id="path4261" d="m236.23-576.28q0-0.94088 0.34214-1.5396 0.34214-0.64151 0.89811-1.1975 0.55598-0.55597 1.283-1.112 0.72704-0.59874 1.4968-1.4541l13.301-17.877q-0.76981-0.34213-1.3258-0.6415-0.55598-0.29937-1.0264-0.51321-0.42767-0.2566-0.89811-0.38491-0.47044-0.1283-1.0264-0.1283-1.3686 0-2.2667 0.0428-0.89811 0.0428-1.5396 0.29937-0.59874 0.2566-1.1119 0.76981-0.47044 0.51321-1.0692 1.4541-1.3258 2.0528-2.2239 3.0365-0.89811 0.94088-1.6252 0.94088-0.68427 0-0.98364-0.59874-0.25661-0.64151-0.25661-1.6679 0-0.42768 0.0428-0.89812 0.0428-0.5132 0.1283-1.0264 0.64151-3.7208 1.839-6.0302t2.6516-3.5497q1.4969-1.283 3.0792-1.7107 1.6252-0.47044 2.9937-0.47044 1.0264 0 2.0528 0.51321 1.0264 0.47044 2.0101 1.0692 1.0264 0.59874 2.0528 1.112 1.0692 0.47044 2.1811 0.5132 0.85535 0.0428 1.5396 0.0428 0.72705 0 1.3258 0 1.7107 0 2.7371-0.0428 1.0264-0.0855 1.5396-0.17107 0.55598-0.0855 0.76981-0.1283 0.21384-0.0855 0.34214-0.0855 1.4968 0 2.1384 1.0692 0.68428 1.0264 0.68428 2.8226 0 1.1547-0.25661 2.4805-0.0855 0.34213-0.85534 0.89811-0.76981 0.5132-2.566 0.98364-0.51321 0.94088-1.7107 2.6516t-2.7799 3.8063q-1.5396 2.0956-3.2503 4.3195-1.6679 2.2239-3.2076 4.1912-1.4968 1.9245-2.6516 3.3786-1.1119 1.4113-1.4968 1.9245l-0.21383 0.85535q0.0428 0 0.76981 0.29937 0.72704 0.29937 1.7107 0.68427 0.98364 0.34214 2.0528 0.64151 1.112 0.29937 1.9245 0.29937 1.7962 0 3.2503-0.5132 1.4968-0.55598 2.7371-1.3686 1.283-0.81258 2.3522-1.7107 1.112-0.94088 2.0956-1.7535 1.0264-0.81258 2.0101-1.3258 0.98365-0.55598 2.0528-0.55598 0.81258 0 1.4541 0.38491 0.68427 0.3849 1.1119 0.98364 0.47044 0.59874 0.68428 1.3686 0.2566 0.72705 0.2566 1.4541 0 1.2402-0.94088 2.6088-0.94087 1.3258-2.5233 2.6088t-3.678 2.4377-4.405 2.0528q-2.2667 0.85535-4.6616 1.3686-2.3522 0.51321-4.4478 0.51321-0.17107 0-0.89811-0.17107-0.72705-0.17107-1.9245-0.55597-1.1975-0.42767-2.7799-1.0692-1.5824-0.64151-3.4641-1.6252-1.6252 0.51321-2.8226 0.51321-1.283 0-2.2239-0.42767-0.94088-0.47044-1.5824-1.2402-0.59874-0.76981-0.89811-1.7535-0.29937-0.98365-0.29937-2.0956z"/><path id="path4263" d="m314.02-578.76q-0.98365 1.3686-2.6516 3.2075-1.6252 1.839-3.678 3.5069t-4.405 2.8226-4.7044 1.1547q-2.8226 0-4.7044-1.7962-1.8818-1.839-3.2503-5.3031-1.0264 1.1975-2.5233 2.4377-1.4968 1.2402-3.2931 2.2667-1.7535 0.98365-3.678 1.6252-1.9245 0.64151-3.849 0.64151-2.0528 0-4.0201-0.81257-1.9245-0.85535-3.4214-2.395-1.4968-1.5824-2.395-3.8063-0.89811-2.2667-0.89811-5.0893 0-3.2076 0.89811-6.5862t2.4805-6.5862q1.5824-3.2503 3.7208-6.1157 2.1811-2.8654 4.7472-5.0038 2.566-2.1384 5.3887-3.3786 2.8654-1.283 5.8164-1.283 0.98364 0 1.5396 0.3849 0.55597 0.38491 0.89811 0.89811 0.3849 0.47044 0.72704 0.94088t0.85535 0.68428q0.5132 0.21384 1.0264 0.29937 0.55597 0.0428 1.112 0.0428 0.47044 0 0.94088 0 0.5132-0.0428 0.98364-0.0428 0.64151 0 1.1975 0.1283 0.55597 0.1283 0.98364 0.55598 0.42768 0.42767 0.64151 1.1975 0.25661 0.76981 0.25661 2.0956 0 2.0528-0.42768 4.5761-0.42767 2.4805-0.94088 5.1321-0.5132 2.6088-0.94088 5.2604-0.42767 2.6088-0.42767 4.961 0 2.0101 0.34214 3.1648 0.38491 1.112 1.5824 1.112 0.89811 0 1.8818-0.42767 0.98364-0.47044 1.9673-1.1975 1.0264-0.72704 2.0101-1.6252 1.0264-0.94088 1.9245-1.9245 2.0956-2.3094 4.234-5.2176l2.0528 9.4943zm-36.523-3.3786q0 1.0692 0.1283 2.0956 0.17107 0.98365 0.55598 1.7962 0.3849 0.76981 1.0264 1.283 0.64151 0.47044 1.6252 0.47044 1.5824 0 2.8654-1.3686t2.2239-3.2931q0.94088-1.9245 1.4969-3.9774 0.59874-2.0528 0.76981-3.4214l2.6088-12.574q-1.7535 0-3.4214 0.89811-1.6679 0.85535-3.1648 2.3522-1.4541 1.4969-2.6943 3.4214t-2.1384 4.0629q-0.89811 2.0956-1.4113 4.234-0.47044 2.1384-0.47044 4.0201z"/><path id="path4265" d="m367.82-577.86q-4.1057 2.395-7.3132 4.1912t-5.7308 2.9937q-2.4805 1.1975-4.4478 1.7962-1.9245 0.59874-3.5069 0.59874-3.2503 0-5.7308-1.9673t-4.1484-5.6453q-1.6679-3.7208-2.5233-8.9811-0.81258-5.2604-0.81258-11.847 0-2.566 0.21384-5.4742 0.21383-2.9082 0.59874-5.7736-1.283-0.17106-2.0101-0.29937-0.68428-0.17106-1.4968-0.29937-0.76981-0.17107-2.0101-0.34213-1.1975-0.17107-3.5069-0.42768-1.0264-0.1283-1.5824-0.47044-0.55597-0.3849-0.81257-0.85534-0.25661-0.51321-0.29937-1.0264-0.0428-0.55598-0.0428-0.94088 0-0.85535 0.85534-1.283 0.81258-0.47044 2.1384-0.68428 1.283-0.21383 2.8226-0.21383 1.5824-0.0428 2.9937 0 1.4541 0.0428 2.566 0.0855 1.1547 0 1.5824-0.0855 1.1547-5.7736 2.9082-11.162 1.7962-5.4314 3.9774-9.6226 2.2239-4.234 4.8327-6.7572 2.6088-2.566 5.4742-2.566 1.839 0 3.3358 1.0264 1.5396 1.0264 2.6088 2.7371t1.6252 4.0201q0.59874 2.2667 0.59874 4.7472 0 2.0956-0.59874 4.4478-0.59874 2.3094-1.6252 4.7472-1.0264 2.395-2.4377 4.8755-1.3686 2.4805-2.9082 4.9182 0.38491 0.0428 1.283 0.0855 0.89811 0 2.0528 0.0428 1.1975 0.0428 2.566 0.1283 1.3686 0.0428 2.6516 0.0855 1.283 0.0428 2.395 0.0855 1.112 0.0428 1.839 0.0855 0.85535 0.0428 1.2402 0.85535 0.38491 0.81258 0.38491 2.0528 0 1.4969-0.85535 2.4377-0.85534 0.94088-1.8818 0.94088h-16.423q-1.2402 1.7107-2.5233 3.3786-1.2402 1.6252-2.3094 2.9509-0.17107 2.6516-0.29937 5.2176-0.0428 1.112-0.0855 2.3094-0.0428 1.1547-0.0855 2.3094-0.0428 1.1547-0.0855 2.2239 0 1.0692 0 1.9673 0 2.3094 0.42767 3.8918t1.2402 2.6088q0.81258 0.98365 1.9673 1.4541 1.1975 0.42767 2.6516 0.42767 0.89811 0 2.2239-0.42767 1.3686-0.42768 2.9509-1.1547 1.6252-0.76981 3.3786-1.7962 1.7962-1.0264 3.5069-2.2239 1.7535-1.2402 3.3358-2.566 1.5824-1.3686 2.8654-2.7799v10.948zm-13.686-54.143q0-0.47044-0.0855-1.0264-0.0428-0.59875-0.2566-1.112-0.21384-0.51321-0.68428-0.85535-0.42767-0.34213-1.2402-0.34213-1.112 0-2.2667 1.9673-1.112 1.9673-2.1811 5.0465-1.0264 3.0365-1.9673 6.7145-0.89812 3.678-1.6679 7.1421 0.64151 0.0855 1.283 0.17106 0.64151 0.0428 1.3258 0.12831 1.283-2.1811 2.6516-4.7044 1.4113-2.566 2.5233-5.0038 1.112-2.4805 1.839-4.6189 0.72704-2.1384 0.72704-3.5069z"/><path id="path4267" d="m398.45-606.56q0 1.1547-0.25661 3.1648-0.2566 1.9673-0.68427 4.3623-0.38491 2.3522-0.85535 4.8755t-0.89811 4.7044q-0.3849 2.1811-0.64151 3.849-0.2566 1.6252-0.2566 2.2667 0 1.1975 0.0428 2.2239 0.0428 0.98364 0.2566 1.7534 0.21384 0.72705 0.64151 1.1547 0.47044 0.38491 1.3258 0.38491 0.94088 0 2.2667-0.47044 1.3686-0.47044 2.8654-1.2402 1.5396-0.81258 3.122-1.7962 1.5824-1.0264 2.9937-2.1384 1.4541-1.112 2.6088-2.1811 1.1975-1.112 1.9245-2.0528 0 1.4113 0 2.566 0.0428 1.1547 0.0428 2.2239 0 1.0264 0 2.1384 0.0428 1.1119 0.0428 2.4805-0.94088 0.94087-2.3522 2.0101-1.3686 1.0692-3.0792 2.1384-1.6679 1.0692-3.5924 2.0528-1.8818 0.98365-3.8063 1.7535-1.9245 0.72704-3.8063 1.1975-1.8818 0.42768-3.5069 0.42768-1.6252 0-2.7799-0.64151t-2.0101-1.7962q-0.81258-1.1547-1.4113-2.7371-0.55597-1.6252-0.98365-3.5924-1.5396 2.0101-3.2503 3.7208-1.7107 1.6679-3.5069 2.9082-1.7535 1.2402-3.5924 1.9673-1.7962 0.68427-3.5069 0.68427-1.4113 0-2.6516-0.47044-1.2402-0.47044-2.2239-1.5824-0.94088-1.112-1.4969-2.9082-0.55597-1.839-0.55597-4.5333 0-3.2931 0.76981-8.3824 0.81258-5.0893 1.9673-11.633 0.0855-0.64151 0.29937-1.7107 0.2566-1.112 0.64151-2.395 0.42767-1.283 1.0264-2.6088 0.59874-1.3258 1.4113-2.395 0.81258-1.0692 1.8818-1.7535 1.112-0.68427 2.4805-0.72704 2.2667 0.0855 3.2503 0.59874 0.98365 0.47044 0.98365 1.1975-0.38491 2.2667-0.85535 5.0465-0.42767 2.7799-0.89811 5.6025t-0.89811 5.517q-0.42767 2.6516-0.76981 4.7472t-0.55598 3.3786q-0.17107 1.283-0.17107 1.3258 0 0.76981 0.12831 1.4968 0.17107 0.68428 0.47044 1.2402 0.29937 0.55597 0.76981 0.89811t1.1119 0.34214q0.94088 0 1.9245-0.47044 0.98365-0.51321 1.839-1.4113 0.89811-0.94088 1.5824-2.2667 0.68427-1.3686 1.0264-3.0792l4.234-21.726q0.21383-1.0264 1.7107-1.7107 1.5396-0.72704 3.4641-0.72704 2.1811 0 3.4642 0.76981 1.283 0.76981 1.283 1.9673z"/><path id="path4269" d="m456.82-624.39q0 2.8226 1.6252 5.0465 1.6679 2.2239 4.3623 4.1484 2.7371 1.8818 6.1585 3.5924 3.4641 1.7107 7.0566 3.5497 3.6352 1.7962 7.0566 3.8918 3.4641 2.0528 6.1585 4.6616 2.7371 2.6088 4.3623 5.9019 1.6679 3.2931 1.6679 7.527 0 3.849-1.2402 7.0994-1.2402 3.2075-3.4214 5.7736-2.1384 2.566-5.0893 4.5333t-6.3723 3.2503-7.1849 1.9245q-3.7635 0.68427-7.5698 0.68427-5.3459 0-10.392-1.3258-5.0465-1.283-8.9811-3.9346-3.9346-2.6088-6.3296-6.5434-2.3522-3.9774-2.3522-9.2805 0-2.7371 0.85534-4.7899 0.89812-2.0956 2.1811-3.4642 1.3258-1.4113 2.8654-2.0956 1.5396-0.72705 2.8654-0.72705 1.3686 0 2.2667 0.76981 0.94087 0.72705 0.94087 2.3094 0 0.72704-0.17106 1.5396-0.17107 0.81257-0.38491 1.7962-0.17107 0.94088-0.34214 2.0956t-0.17107 2.5233q0 2.9937 1.3686 5.1748t3.6352 3.5924q2.2667 1.4113 5.2176 2.0956 2.9509 0.68427 6.1157 0.68427 3.7208 0 7.4415-0.89811t6.6717-2.6516q2.9509-1.7534 4.7899-4.2767 1.839-2.566 1.839-5.8591 0-3.0365-1.6679-5.4314-1.6252-2.395-4.3622-4.405-2.6943-2.0528-6.1585-3.8491-3.4641-1.7962-7.0566-3.6352-3.5924-1.839-7.0566-3.849-3.4642-2.0528-6.2012-4.4906-2.6943-2.4377-4.3623-5.4314-1.6252-3.0365-1.6252-6.8855 0-3.5924 1.7107-7.0566 1.7535-3.5069 5.2176-6.244 3.5069-2.7799 8.7245-4.4906t12.231-1.7107q4.4478 0 8.6818 1.3258 4.2767 1.3258 7.6126 3.7635 3.3358 2.4377 5.3459 5.8163 2.0528 3.3786 2.0528 7.4843 0 2.4377-0.85535 5.0038-0.81257 2.566-2.6516 5.3459-1.7962 2.6943-3.9346 4.0201-2.0956 1.283-3.8063 1.283-1.283 0-2.0956-0.72704-0.81258-0.76981-0.81258-2.2667 0-1.112 0.51321-2.6088 0.51321-1.5396 1.7535-3.5069 1.1547-1.8818 1.7107-3.5069 0.55597-1.6679 0.55597-3.0792 0-2.1811-1.1975-3.8063-1.1547-1.6679-3.2503-2.7799-2.0528-1.112-4.961-1.6679-2.9082-0.55597-6.3723-0.55597-3.849 0-6.7144 0.89811-2.8226 0.85535-4.7472 2.2667-1.8818 1.3686-2.8226 3.0792-0.89812 1.7107-0.89812 3.3786z"/><path id="path4271" d="m529.74-600.32q1.2402 2.4805 1.839 5.2604 0.64151 2.7371 0.64151 5.2604t-0.55597 5.0893q-0.55598 2.566-1.6252 4.961-1.0264 2.395-2.566 4.4906-1.4968 2.0956-3.4642 3.6352-1.9245 1.5396-4.234 2.4377-2.3094 0.89811-4.9182 0.89811-3.7635 0-6.4578-1.6252-2.6516-1.6679-4.3623-4.3195t-2.5233-5.9874q-0.76981-3.3358-0.76981-6.7572 0-4.7044 1.4113-8.7673 1.4113-4.1056 4.0201-7.0994 2.6516-3.0365 6.4578-4.7472 3.8063-1.7535 8.5534-1.7535 4.0629 0 7.6126 1.283 3.5497 1.2402 6.6289 3.3786 3.122 2.0956 5.7736 4.8327 2.6943 2.7371 5.0038 5.6453l-0.81258 6.0302q-1.1547-1.5396-3.122-3.3358t-4.1912-3.5069q-2.1811-1.7107-4.3195-3.2076-2.1384-1.5396-3.678-2.566l-0.34214 0.47044zm-13.215 23.821q1.4541 0 2.8226-1.4541 1.3686-1.4968 2.395-3.7208 1.0264-2.2667 1.6252-4.961 0.64151-2.7371 0.64151-5.2176 0-1.9673-0.29937-3.6352-0.29937-1.7107-0.89811-2.9509t-1.5396-1.9673q-0.94088-0.72705-2.2667-0.72705-1.7535 0-3.3358 1.4969-1.5824 1.4968-2.7799 3.849-1.1975 2.3094-1.8818 5.1321-0.68427 2.8226-0.68427 5.4314 0 1.7962 0.34214 3.3786 0.34213 1.5824 1.0692 2.7799 0.72704 1.1547 1.9245 1.8818 1.1975 0.68428 2.8654 0.68428z"/><path id="path4273" d="m550.31-568.28q-2.3094 0-4.3195-2.0101-1.9673-2.0528-3.4641-5.4742-1.4541-3.4214-2.3094-7.9119-0.81258-4.5333-0.81258-9.4943 0-3.8063 0.55597-8.2541 0.55598-4.4906 1.6252-9.2377 1.0692-4.7472 2.5233-9.5371 1.4969-4.7899 3.3358-9.195 1.8818-4.405 4.0629-8.2113 2.1811-3.849 4.5761-6.6717 2.395-2.8654 5.0038-4.4906t5.3031-1.6252q1.839 0 3.0365 0.85534 1.1975 0.81258 1.8818 2.1811 0.68427 1.3686 0.94087 3.122 0.29937 1.7107 0.29937 3.5069 0 4.0201-0.94087 8.2113-0.89812 4.1484-2.4805 8.3824-1.5396 4.1912-3.5924 8.4252t-4.2767 8.4251q-2.2239 4.1484-4.4906 8.2113-2.2239 4.0201-4.1912 7.8692-0.21384 0.42767-0.47044 1.112-0.21384 0.68427-0.42768 1.4968-0.21383 0.76981-0.42767 1.6679-0.21383 0.89812-0.34214 1.7535v0.59874q0 1.112 0.21384 2.1811 0.2566 1.0264 0.59874 1.8818 0.34214 0.81258 0.72704 1.3258 0.38491 0.47044 0.72705 0.47044 0.81258 0 1.839-0.34213 1.0692-0.34214 2.2239-0.89812 1.1975-0.59874 2.4377-1.3258 1.2402-0.76981 2.395-1.5396 2.6943-1.7962 5.6453-4.1484l3.5069 8.9811q-3.8063 2.7371-7.527 4.8755-1.6252 0.89811-3.3786 1.7962-1.7107 0.85535-3.4642 1.5396-1.7535 0.68427-3.4214 1.1119-1.6679 0.38491-3.122 0.38491zm0.0428-34.214q1.9245-3.4214 4.0629-7.6981 2.1811-4.2767 4.1056-8.81t3.3358-9.0239q1.4113-4.5333 1.7962-8.4251 0-1.2402-0.0855-2.0956-0.0428-0.89811-0.38491-0.89811-1.2402 0-2.6943 1.6252-1.4113 1.5824-2.8654 4.3195-1.4113 2.7371-2.7371 6.3723-1.283 3.6352-2.3094 7.7409t-1.6252 8.4679q-0.59874 4.3195-0.59874 8.4251z"/><path id="path4275" d="m591.41-577.39q-1.5396 1.4113-3.849 3.0365-2.2667 1.5824-4.9182 2.9509-2.6516 1.3258-5.4314 2.2239-2.7371 0.89811-5.2176 0.89811-2.2239 0-3.7635-0.59874-1.4968-0.64151-2.4377-1.7535-0.94088-1.112-1.3686-2.6943-0.38491-1.6252-0.38491-3.5497 0-2.6943 0.59874-6.244 0.64151-3.5924 1.5396-7.3987 0.89811-3.849 1.8818-7.6553 1.0264-3.8063 1.7962-7.0138 0.29937-1.112 1.1975-1.8818 0.89811-0.81258 2.0101-1.283 1.1547-0.51321 2.3522-0.72704 1.2402-0.25661 2.2239-0.25661 1.7962 0 2.4377 0.68428 0.64151 0.64151 0.64151 1.7535 0 0.94087-0.42767 2.7371-0.42767 1.7535-1.0692 4.0201-0.64151 2.2239-1.3686 4.8327-0.72705 2.566-1.3686 5.1748-0.64151 2.566-1.0692 5.0465-0.42767 2.4377-0.42767 4.405 0 1.9245 0.42767 3.0792 0.42768 1.112 1.7535 1.112 1.5396 0 3.4214-1.0692t3.8063-2.566q1.9245-1.5396 3.7635-3.1648t3.2503-2.7799v8.6818zm-19.117-43.965q0-0.98365 0.42767-2.2239t1.3686-2.3094q0.98365-1.1119 2.566-1.839 1.6252-0.76981 4.0201-0.76981 1.4969 0 2.8226 0.34214 1.3258 0.34214 2.3094 1.0692 0.98365 0.68428 1.5396 1.839 0.59874 1.1547 0.59874 2.7371 0 1.4541-0.47044 2.8226-0.47044 1.3686-1.4968 2.4377-1.0264 1.0692-2.6088 1.7534-1.5396 0.64151-3.7208 0.64151-3.7635 0-5.5597-1.7535-1.7962-1.7962-1.7962-4.7472z"/><path id="path4277" d="m601.55-568.28q-3.9346 0-6.9283-1.4541-2.9509-1.4541-4.961-3.8918t-3.0365-5.6453q-1.0264-3.2075-1.0264-6.6717 0-2.4805 0.5132-5.1748 0.51321-2.6943 1.4969-5.2604 1.0264-2.6088 2.4805-4.961 1.4968-2.3522 3.4214-4.1057 1.9673-1.7962 4.3623-2.8226 2.395-1.0692 5.2604-1.0692 2.4377 0 4.4906 0.76981 2.0956 0.72705 3.5497 2.0528 1.4969 1.3258 2.3094 3.1648 0.85535 1.7962 0.85535 3.8918 0 1.4541-0.38491 2.8654-0.3849 1.4113-1.1547 2.566-0.72705 1.112-1.7962 1.7962-1.0692 0.68427-2.395 0.68427-2.0101 0-2.6516-1.0692-0.59874-1.0692-0.59874-2.9509 0-0.76981 0.0428-1.6252 0.0855-0.85535 0.0855-1.5396 0-1.0264-0.21384-1.7107-0.21383-0.68428-0.94088-0.68428-1.7534 0-2.9937 0.85535-1.2402 0.81257-2.1384 2.1811-0.85535 1.3258-1.3686 3.0365-0.51321 1.6679-0.81258 3.3358t-0.38491 3.2076q-0.0855 1.4968-0.0855 2.5233 0 1.5396 0.2566 3.2076 0.29937 1.6679 1.0692 3.0792 0.76981 1.3686 2.0956 2.3094 1.3258 0.89811 3.4214 0.89811 2.0528 0 4.5333-1.2402 2.4805-1.283 4.961-3.2075 2.5233-1.9245 4.7899-4.234 2.2667-2.3094 3.8918-4.3623l2.9509 4.961q-3.2075 4.5761-6.9283 8.1685-1.5824 1.5396-3.4642 2.9937-1.839 1.4541-3.8918 2.6088-2.0101 1.112-4.234 1.839-2.1811 0.68428-4.4478 0.68428z"/><path id="path4279" d="m645.81-577.39q-1.5396 1.4113-3.849 3.0365-2.2667 1.5824-4.9182 2.9509-2.6516 1.3258-5.4314 2.2239-2.7371 0.89811-5.2176 0.89811-2.2239 0-3.7635-0.59874-1.4968-0.64151-2.4377-1.7535-0.94088-1.112-1.3686-2.6943-0.38491-1.6252-0.38491-3.5497 0-2.6943 0.59874-6.244 0.64151-3.5924 1.5396-7.3987 0.89812-3.849 1.8818-7.6553 1.0264-3.8063 1.7962-7.0138 0.29937-1.112 1.1975-1.8818 0.89811-0.81258 2.0101-1.283 1.1547-0.51321 2.3522-0.72704 1.2402-0.25661 2.2239-0.25661 1.7962 0 2.4377 0.68428 0.6415 0.64151 0.6415 1.7535 0 0.94087-0.42767 2.7371-0.42767 1.7535-1.0692 4.0201-0.64151 2.2239-1.3686 4.8327-0.72704 2.566-1.3686 5.1748-0.64151 2.566-1.0692 5.0465-0.42768 2.4377-0.42768 4.405 0 1.9245 0.42768 3.0792 0.42767 1.112 1.7534 1.112 1.5396 0 3.4214-1.0692t3.8063-2.566q1.9245-1.5396 3.7635-3.1648t3.2503-2.7799v8.6818zm-19.117-43.965q0-0.98365 0.42767-2.2239t1.3686-2.3094q0.98365-1.1119 2.566-1.839 1.6252-0.76981 4.0201-0.76981 1.4968 0 2.8226 0.34214t2.3094 1.0692q0.98365 0.68428 1.5396 1.839 0.59874 1.1547 0.59874 2.7371 0 1.4541-0.47044 2.8226-0.47044 1.3686-1.4969 2.4377-1.0264 1.0692-2.6088 1.7534-1.5396 0.64151-3.7208 0.64151-3.7635 0-5.5597-1.7535-1.7962-1.7962-1.7962-4.7472z"/><path id="path4281" d="m678.31-577.86q-4.1056 2.395-7.3132 4.1912-3.2075 1.7962-5.7308 2.9937-2.4805 1.1975-4.4478 1.7962-1.9245 0.59874-3.5069 0.59874-3.2503 0-5.7308-1.9673t-4.1484-5.6453q-1.6679-3.7208-2.5233-8.9811-0.81258-5.2604-0.81258-11.847 0-2.566 0.21384-5.4742t0.59874-5.7736q-1.283-0.17106-2.0101-0.29937-0.68427-0.17106-1.4968-0.29937-0.76981-0.17107-2.0101-0.34213-1.1975-0.17107-3.5069-0.42768-1.0264-0.1283-1.5824-0.47044-0.55598-0.3849-0.81258-0.85534-0.2566-0.51321-0.29937-1.0264-0.0428-0.55598-0.0428-0.94088 0-0.85535 0.85535-1.283 0.81257-0.47044 2.1384-0.68428 1.283-0.21383 2.8226-0.21383 1.5824-0.0428 2.9937 0 1.4541 0.0428 2.566 0.0855 1.1547 0 1.5824-0.0855 1.1547-5.7736 2.9082-11.162 1.7962-5.4314 3.9774-9.6226 2.2239-4.234 4.8327-6.7572 2.6088-2.566 5.4742-2.566 1.839 0 3.3358 1.0264 1.5396 1.0264 2.6088 2.7371t1.6252 4.0201q0.59874 2.2667 0.59874 4.7472 0 2.0956-0.59874 4.4478-0.59874 2.3094-1.6252 4.7472-1.0264 2.395-2.4377 4.8755-1.3686 2.4805-2.9082 4.9182 0.38491 0.0428 1.283 0.0855 0.89811 0 2.0528 0.0428 1.1975 0.0428 2.566 0.1283 1.3686 0.0428 2.6516 0.0855 1.283 0.0428 2.395 0.0855 1.1119 0.0428 1.839 0.0855 0.85534 0.0428 1.2402 0.85535 0.3849 0.81258 0.3849 2.0528 0 1.4969-0.85534 2.4377-0.85535 0.94088-1.8818 0.94088h-16.423q-1.2402 1.7107-2.5233 3.3786-1.2402 1.6252-2.3094 2.9509-0.17107 2.6516-0.29937 5.2176-0.0428 1.112-0.0855 2.3094-0.0428 1.1547-0.0855 2.3094-0.0428 1.1547-0.0855 2.2239 0 1.0692 0 1.9673 0 2.3094 0.42767 3.8918t1.2402 2.6088q0.81258 0.98365 1.9673 1.4541 1.1975 0.42767 2.6516 0.42767 0.89811 0 2.2239-0.42767 1.3686-0.42768 2.9509-1.1547 1.6252-0.76981 3.3786-1.7962 1.7962-1.0264 3.5069-2.2239 1.7535-1.2402 3.3358-2.566 1.5824-1.3686 2.8654-2.7799v10.948zm-13.686-54.143q0-0.47044-0.0855-1.0264-0.0428-0.59875-0.2566-1.112-0.21384-0.51321-0.68428-0.85535-0.42767-0.34213-1.2402-0.34213-1.1119 0-2.2667 1.9673-1.112 1.9673-2.1811 5.0465-1.0264 3.0365-1.9673 6.7145-0.89811 3.678-1.6679 7.1421 0.6415 0.0855 1.283 0.17106 0.64151 0.0428 1.3258 0.12831 1.283-2.1811 2.6516-4.7044 1.4113-2.566 2.5233-5.0038 1.112-2.4805 1.839-4.6189 0.72705-2.1384 0.72705-3.5069z"/><path id="path4283" d="m708.94-606.56q0 1.1547-0.2566 3.1648-0.25661 1.9673-0.68428 4.3623-0.38491 2.3522-0.85534 4.8755-0.47044 2.5233-0.89812 4.7044-0.3849 2.1811-0.64151 3.849-0.2566 1.6252-0.2566 2.2667 0 1.1975 0.0428 2.2239 0.0428 0.98364 0.2566 1.7534 0.21384 0.72705 0.64151 1.1547 0.47044 0.38491 1.3258 0.38491 0.94088 0 2.2667-0.47044 1.3686-0.47044 2.8654-1.2402 1.5396-0.81258 3.122-1.7962 1.5824-1.0264 2.9937-2.1384 1.4541-1.112 2.6088-2.1811 1.1975-1.112 1.9245-2.0528 0 1.4113 0 2.566 0.0428 1.1547 0.0428 2.2239 0 1.0264 0 2.1384 0.0428 1.1119 0.0428 2.4805-0.94088 0.94087-2.3522 2.0101-1.3686 1.0692-3.0792 2.1384-1.6679 1.0692-3.5924 2.0528-1.8818 0.98365-3.8063 1.7535-1.9245 0.72704-3.8063 1.1975-1.8818 0.42768-3.5069 0.42768-1.6252 0-2.7799-0.64151t-2.0101-1.7962q-0.81258-1.1547-1.4113-2.7371-0.55597-1.6252-0.98364-3.5924-1.5396 2.0101-3.2503 3.7208-1.7107 1.6679-3.5069 2.9082-1.7534 1.2402-3.5924 1.9673-1.7962 0.68427-3.5069 0.68427-1.4113 0-2.6516-0.47044-1.2402-0.47044-2.2239-1.5824-0.94088-1.112-1.4969-2.9082-0.55597-1.839-0.55597-4.5333 0-3.2931 0.76981-8.3824 0.81258-5.0893 1.9673-11.633 0.0855-0.64151 0.29937-1.7107 0.25661-1.112 0.64151-2.395 0.42767-1.283 1.0264-2.6088 0.59874-1.3258 1.4113-2.395 0.81258-1.0692 1.8818-1.7535 1.112-0.68427 2.4805-0.72704 2.2667 0.0855 3.2503 0.59874 0.98365 0.47044 0.98365 1.1975-0.38491 2.2667-0.85535 5.0465-0.42767 2.7799-0.89811 5.6025t-0.89811 5.517q-0.42767 2.6516-0.76981 4.7472t-0.55597 3.3786q-0.17107 1.283-0.17107 1.3258 0 0.76981 0.1283 1.4968 0.17107 0.68428 0.47044 1.2402 0.29937 0.55597 0.76981 0.89811t1.112 0.34214q0.94088 0 1.9245-0.47044 0.98365-0.51321 1.839-1.4113 0.89812-0.94088 1.5824-2.2667 0.68428-1.3686 1.0264-3.0792l4.234-21.726q0.21384-1.0264 1.7107-1.7107 1.5396-0.72704 3.4642-0.72704 2.1811 0 3.4641 0.76981t1.283 1.9673z"/><path id="path4285" d="m736.99-600.61q-2.8226 1.3686-5.0465 3.6352-2.1811 2.2239-3.678 4.8327-1.4541 2.6088-2.2239 5.2604-0.76981 2.6516-0.76981 4.7899 0 0.85535 0.17107 1.7107 0.21384 0.85535 0.72704 1.5396 0.51321 0.68428 1.4541 1.112 0.94088 0.42767 2.4377 0.42767 0.76981 0 1.4968-0.3849 0.76981-0.38491 1.4541-0.98365 0.68428-0.64151 1.283-1.4113 0.6415-0.81258 1.1547-1.6679 1.1975-1.9673 2.1811-4.4478-0.1283-0.59874-0.21384-1.8818-0.0855-1.3258-0.1283-2.9082-0.0428-1.6252-0.0855-3.3358-0.0428-1.7107-0.0855-3.122 0-1.4113-0.0428-2.3094-0.0428-0.89811-0.0855-0.85534zm29.424 23.95q-3.0365 2.3522-5.9874 4.1912-1.2402 0.76981-2.6088 1.5396-1.3686 0.72704-2.6943 1.3258-1.3258 0.55598-2.6088 0.94088-1.2402 0.34214-2.3094 0.34214-0.59874 0-1.7962-0.2566-1.1547-0.25661-2.566-1.0264-1.3686-0.81257-2.7799-2.3094-1.3686-1.4968-2.395-3.9774-1.5824 1.5396-3.3786 2.9509-1.7534 1.3686-3.678 2.395-1.8818 1.0264-3.849 1.6679-1.9245 0.59874-3.8918 0.59874-2.7799 0-4.8327-1.1975-2.0101-1.1975-3.3786-3.1648-1.3258-2.0101-2.0101-4.5333-0.64151-2.5233-0.64151-5.2176 0-2.7371 0.68428-5.517 0.72704-2.8226 2.0528-5.4314 1.3686-2.6516 3.2931-4.961 1.9245-2.3522 4.3623-4.1484 2.4377-1.839 5.3031-3.0365t6.1157-1.4968q0.1283-5.4742 0.98365-10.82 0.85534-5.3459 2.2667-10.179 1.4113-4.8327 3.2931-8.9384 1.9245-4.1057 4.1912-7.0994t4.8327-4.6616q2.566-1.7107 5.3031-1.7107 2.0101 0 3.4214 1.0692 1.4113 1.0264 2.2667 2.7799 0.89811 1.7107 1.283 4.0201 0.38491 2.2667 0.38491 4.7044 0 1.4968-0.1283 3.0792-0.55598 6.0302-2.0528 11.419-1.4968 5.3459-3.5069 10.435-2.0101 5.0893-4.3623 10.093-2.3522 5.0038-4.5761 10.392-0.21383 0.59874-0.42767 1.4541-0.21383 0.85535-0.42767 1.8818-0.17107 0.98365-0.29937 2.0528-0.1283 1.0264-0.1283 2.0101 0 1.2402 0.1283 2.3522 0.17107 1.112 0.51321 2.0101 0.34213 0.85534 0.89811 1.3686 0.59874 0.51321 1.4541 0.51321 0.81258 0 1.7535-0.29937 0.98365-0.34214 2.0528-0.89812 1.0692-0.55597 2.1384-1.2402 1.112-0.72704 2.1384-1.4541 2.3522-1.7107 4.9182-3.8918l1.283 9.8792zm-9.3233-54.956q0.25661-2.9937 0.25661-4.7472 0-2.3094-0.42768-3.2075-0.3849-0.89811-1.1547-0.89811-1.3686 0-2.4805 1.7534-1.112 1.7107-1.9673 4.405-0.85535 2.6943-1.4969 5.9446-0.64151 3.2503-1.0692 6.2868-0.42767 3.0365-0.68427 5.4742-0.25661 2.4377-0.34214 3.4642-0.17107 2.0956-0.29937 4.0629-0.0855 1.9245-0.1283 3.5497-0.0428 1.5824-0.0428 2.7799t0 1.839v0.42767q2.4377-5.5597 4.4906-11.077 0.85534-2.3522 1.7107-4.9182 0.89811-2.6088 1.6252-5.2176 0.72705-2.6088 1.2402-5.1321 0.55598-2.5233 0.76981-4.7899z"/></g><g id="text5134" fill="#25aae3" transform="matrix(1.0234 0 0 -1.0012 -21.584 -12.963)"><path id="path4195" d="m119.43-622.3q0 2.0528-0.68427 4.3195-0.68428 2.2667-2.0956 4.4906-1.4113 2.1811-3.6352 4.234-2.1811 2.0528-5.2604 3.678-3.0792 1.6252-7.0138 2.7371-3.9346 1.0692-8.8528 1.3686 2.9937 1.112 5.0038 2.8654 2.0101 1.7535 3.3358 3.9346 1.3686 2.1384 2.1384 4.5333 0.81257 2.395 1.3686 4.7044 0.55597 2.3094 0.98364 4.4478 0.47044 2.0956 1.0692 3.7208 0.64151 1.5824 1.5824 2.566 0.94088 0.94088 2.5233 0.94088 1.4541 0 3.1648-0.47044 1.7535-0.5132 3.5497-1.4113 1.839-0.89811 3.5924-2.1384 1.7962-1.2402 3.3358-2.7371l4.961 8.3824q0-0.0428-0.81258 0.55597-0.81258 0.55598-2.2667 1.4541-1.4541 0.85534-3.4641 1.8818-1.9673 1.0692-4.3623 1.9673-2.395 0.89811-5.0893 1.4968-2.6516 0.59874-5.4314 0.59874-3.122 0-5.3459-1.5396-2.1811-1.5396-3.7208-4.0629-1.5396-2.5233-2.566-5.7308-1.0264-3.2503-1.7962-6.6289-0.76981-3.3786-1.4541-6.5862-0.64151-3.2503-1.4541-5.7736-0.81258-2.5233-1.9245-4.0629t-2.7799-1.5396h-2.6943q-0.85534 9.366-2.1384 16.808-1.283 7.3987-3.4214 12.574-2.0956 5.1748-5.3031 7.9119-3.1648 2.7371-7.7836 2.7371-3.4214 0-6.2868-1.3258-2.8226-1.283-5.1321-3.5497-2.2667-2.2667-3.9774-5.3031-1.7107-3.0365-2.8654-6.5006-1.1119-3.5069-1.7107-7.2277-0.55597-3.7208-0.55597-7.3987 0-6.6289 1.6252-12.958 1.6679-6.3723 4.7472-12.018 3.122-5.6453 7.527-10.35 4.405-4.7472 9.8792-8.1686 5.517-3.4641 11.975-5.3887 6.5006-1.9245 13.728-1.9245 3.2075 0 6.3723 0.59874t6.0302 1.7535q2.8654 1.1547 5.3031 2.8654 2.4805 1.7107 4.234 3.9346 1.7962 2.1811 2.8226 4.8755 1.0264 2.6943 1.0264 5.8591zm-26.558-10.307q-7.0566 0-12.616 1.9673-5.517 1.9673-9.7082 5.3031t-7.1421 7.7409q-2.9509 4.405-4.7899 9.2377t-2.6943 9.7937q-0.81258 4.961-0.81258 9.4516 0 3.4641 0.59874 6.971 0.59874 3.4642 1.8818 6.244 1.283 2.7799 3.2931 4.5333 2.0528 1.7107 4.9182 1.7107 1.4541 0 2.566-1.112 1.1119-1.1547 1.9673-3.0365 0.85534-1.9245 1.4969-4.405 0.64151-2.5233 1.0692-5.2176 0.42767-2.6943 0.68428-5.4314 0.2566-2.7371 0.3849-5.1321 0.17107-2.395 0.21384-4.234 0.04277-1.8818 0.04277-2.8654-3.3358-1.5824-5.0893-2.9509-1.7107-1.3686-1.7107-3.1648 0-0.42768 0.04277-1.0264 0.08553-0.59874 0.29937-1.112 0.21384-0.5132 0.59874-0.85534 0.42767-0.38491 1.1119-0.38491 0.29937 0 1.1975 0.12831 0.89811 0.0855 1.8818 0.2566 0.98365 0.1283 1.7962 0.2566 0.85534 0.0855 1.1119 0.0855l0.04277-0.89812q0.04277-0.68427 0.1283-1.8818 0.1283-1.1975 0.3849-2.566 0.2566-1.3686 0.72704-2.7371 0.51321-1.4113 1.3258-2.5233 0.81258-1.1547 1.9245-1.839 1.1547-0.72704 2.7799-0.72704 2.1384 0 2.8226 0.98364 0.72704 0.94088 0.72704 2.4377v0.3849q-0.04277 1.6252-0.51321 4.3195-0.42767 2.6516-0.81258 6.1585 6.9711-0.1283 11.504-1.3686 4.5333-1.283 7.1849-3.2075t3.7208-4.1912q1.0692-2.3094 1.0692-4.4478 0-2.0956-1.0264-4.0201-0.98365-1.9245-2.9509-3.3786-1.9673-1.4969-4.8755-2.3522-2.9082-0.89811-6.7572-0.89811z"/><path id="path4197" d="m134.06-568.28q-4.0201 0-7.0566-1.4541-2.9937-1.4541-5.0038-3.8918-2.0101-2.4805-3.0365-5.688-0.98364-3.2503-0.98364-6.8 0-2.395 0.47044-5.0465 0.47044-2.6943 1.4113-5.2604 0.98364-2.566 2.4377-4.8755 1.4541-2.3522 3.3786-4.1056 1.9673-1.7962 4.3623-2.8226 2.4377-1.0692 5.3887-1.0692 2.395 0 4.4478 0.76981t3.5497 2.1811q1.5396 1.3686 2.395 3.3358 0.85534 1.9673 0.85534 4.405 0 2.6516-1.3258 5.3031-1.283 2.6516-3.5924 5.0038t-5.517 4.1912q-3.1648 1.839-6.8855 2.8654 0.64151 1.1547 1.2402 1.9245 0.64151 0.76981 1.283 1.1975 0.64151 0.42768 1.3258 0.59875 0.72705 0.17106 1.5396 0.17106 2.566 0 5.3887-1.0264 2.8654-1.0264 5.5597-2.566t5.0893-3.3358q2.395-1.839 4.0629-3.4641l5.517 5.7308q-3.7635 3.8918-7.9975 6.8855-1.839 1.283-3.9774 2.5233-2.0956 1.2402-4.4478 2.2239-2.3094 0.94088-4.8327 1.5396-2.4805 0.55598-5.0465 0.55598zm-5.688-20.101q1.5396 0 3.3358-0.76981 1.839-0.81258 3.3786-2.0528 1.5824-1.2402 2.6516-2.6943t1.0692-2.8226q0-1.9245-0.72704-3.1648-0.68428-1.2402-1.7107-1.2402-1.839 0-3.1648 0.68428-1.283 0.68427-2.1811 1.7962-0.85534 1.0692-1.4113 2.4805-0.51321 1.3686-0.81258 2.7799-0.25661 1.4113-0.34214 2.7371-0.0855 1.3258-0.0855 2.2667z"/><path id="path4199" d="m198.04-578.76q-0.98365 1.3686-2.6516 3.2075-1.6252 1.839-3.678 3.5069t-4.405 2.8226-4.7044 1.1547q-2.8226 0-4.7044-1.7962-1.8818-1.839-3.2503-5.3031-1.0264 1.1975-2.5233 2.4377-1.4968 1.2402-3.2931 2.2667-1.7535 0.98365-3.678 1.6252-1.9245 0.64151-3.849 0.64151-2.0528 0-4.0201-0.81257-1.9245-0.85535-3.4214-2.395-1.4968-1.5824-2.395-3.8063-0.89811-2.2667-0.89811-5.0893 0-3.2076 0.89811-6.5862t2.4805-6.5862q1.5824-3.2503 3.7208-6.1157 2.1811-2.8654 4.7472-5.0038 2.566-2.1384 5.3887-3.3786 2.8654-1.283 5.8164-1.283 0.98364 0 1.5396 0.3849 0.55597 0.38491 0.89811 0.89811 0.3849 0.47044 0.72704 0.94088t0.85535 0.68428q0.5132 0.21384 1.0264 0.29937 0.55597 0.0428 1.112 0.0428 0.47044 0 0.94088 0 0.5132-0.0428 0.98364-0.0428 0.64151 0 1.1975 0.1283 0.55597 0.1283 0.98364 0.55598 0.42767 0.42767 0.64151 1.1975 0.2566 0.76981 0.2566 2.0956 0 2.0528-0.42767 4.5761-0.42767 2.4805-0.94088 5.1321-0.5132 2.6088-0.94088 5.2604-0.42767 2.6088-0.42767 4.961 0 2.0101 0.34214 3.1648 0.3849 1.112 1.5824 1.112 0.89811 0 1.8818-0.42767 0.98365-0.47044 1.9673-1.1975 1.0264-0.72704 2.0101-1.6252 1.0264-0.94088 1.9245-1.9245 2.0956-2.3094 4.234-5.2176l2.0528 9.4943zm-36.523-3.3786q0 1.0692 0.1283 2.0956 0.17107 0.98365 0.55597 1.7962 0.38491 0.76981 1.0264 1.283 0.64151 0.47044 1.6252 0.47044 1.5824 0 2.8654-1.3686t2.2239-3.2931q0.94088-1.9245 1.4969-3.9774 0.59874-2.0528 0.76981-3.4214l2.6088-12.574q-1.7535 0-3.4214 0.89811-1.6679 0.85535-3.1648 2.3522-1.4541 1.4969-2.6943 3.4214t-2.1384 4.0629q-0.89812 2.0956-1.4113 4.234-0.47044 2.1384-0.47044 4.0201z"/><path id="path4201" d="m202.53-568.28q-2.3094 0-4.3195-2.0101-1.9673-2.0528-3.4642-5.4742-1.4541-3.4214-2.3094-7.9119-0.81257-4.5333-0.81257-9.4943 0-3.8063 0.55597-8.2541 0.55597-4.4906 1.6252-9.2377 1.0692-4.7472 2.5233-9.5371 1.4969-4.7899 3.3358-9.195 1.8818-4.405 4.0629-8.2113 2.1811-3.849 4.5761-6.6717 2.395-2.8654 5.0038-4.4906t5.3031-1.6252q1.839 0 3.0365 0.85534 1.1975 0.81258 1.8818 2.1811 0.68428 1.3686 0.94088 3.122 0.29937 1.7107 0.29937 3.5069 0 4.0201-0.94088 8.2113-0.89811 4.1484-2.4805 8.3824-1.5396 4.1912-3.5924 8.4252t-4.2767 8.4251q-2.2239 4.1484-4.4906 8.2113-2.2239 4.0201-4.1912 7.8692-0.21383 0.42767-0.47044 1.112-0.21383 0.68427-0.42767 1.4968-0.21383 0.76981-0.42767 1.6679-0.21384 0.89812-0.34214 1.7535v0.59874q0 1.112 0.21384 2.1811 0.2566 1.0264 0.59874 1.8818 0.34214 0.81258 0.72704 1.3258 0.38491 0.47044 0.72705 0.47044 0.81257 0 1.839-0.34213 1.0692-0.34214 2.2239-0.89812 1.1975-0.59874 2.4377-1.3258 1.2402-0.76981 2.395-1.5396 2.6943-1.7962 5.6453-4.1484l3.5069 8.9811q-3.8063 2.7371-7.527 4.8755-1.6252 0.89811-3.3786 1.7962-1.7107 0.85535-3.4641 1.5396-1.7535 0.68427-3.4214 1.1119-1.6679 0.38491-3.122 0.38491zm0.0428-34.214q1.9245-3.4214 4.0629-7.6981 2.1811-4.2767 4.1056-8.81t3.3358-9.0239q1.4113-4.5333 1.7962-8.4251 0-1.2402-0.0855-2.0956-0.0428-0.89811-0.3849-0.89811-1.2402 0-2.6943 1.6252-1.4113 1.5824-2.8654 4.3195-1.4113 2.7371-2.7371 6.3723-1.283 3.6352-2.3094 7.7409t-1.6252 8.4679q-0.59874 4.3195-0.59874 8.4251z"/><path id="path4203" d="m243.63-577.39q-1.5396 1.4113-3.849 3.0365-2.2667 1.5824-4.9182 2.9509-2.6516 1.3258-5.4314 2.2239-2.7371 0.89811-5.2176 0.89811-2.2239 0-3.7635-0.59874-1.4969-0.64151-2.4377-1.7535-0.94087-1.112-1.3686-2.6943-0.3849-1.6252-0.3849-3.5497 0-2.6943 0.59874-6.244 0.64151-3.5924 1.5396-7.3987 0.89811-3.849 1.8818-7.6553 1.0264-3.8063 1.7962-7.0138 0.29937-1.112 1.1975-1.8818 0.89812-0.81258 2.0101-1.283 1.1547-0.51321 2.3522-0.72704 1.2402-0.25661 2.2239-0.25661 1.7962 0 2.4377 0.68428 0.64151 0.64151 0.64151 1.7535 0 0.94087-0.42767 2.7371-0.42768 1.7535-1.0692 4.0201-0.64151 2.2239-1.3686 4.8327-0.72704 2.566-1.3686 5.1748-0.64151 2.566-1.0692 5.0465-0.42767 2.4377-0.42767 4.405 0 1.9245 0.42767 3.0792 0.42767 1.112 1.7535 1.112 1.5396 0 3.4214-1.0692t3.8063-2.566q1.9245-1.5396 3.7635-3.1648t3.2503-2.7799v8.6818zm-19.117-43.965q0-0.98365 0.42768-2.2239 0.42767-1.2402 1.3686-2.3094 0.98364-1.1119 2.566-1.839 1.6252-0.76981 4.0201-0.76981 1.4969 0 2.8226 0.34214 1.3258 0.34214 2.3094 1.0692 0.98365 0.68428 1.5396 1.839 0.59874 1.1547 0.59874 2.7371 0 1.4541-0.47044 2.8226-0.47044 1.3686-1.4968 2.4377-1.0264 1.0692-2.6088 1.7534-1.5396 0.64151-3.7208 0.64151-3.7635 0-5.5597-1.7535-1.7962-1.7962-1.7962-4.7472z"/><path id="path4205" d="m236.23-576.28q0-0.94088 0.34214-1.5396 0.34214-0.64151 0.89811-1.1975 0.55598-0.55597 1.283-1.112 0.72704-0.59874 1.4968-1.4541l13.301-17.877q-0.76981-0.34213-1.3258-0.6415-0.55598-0.29937-1.0264-0.51321-0.42767-0.2566-0.89811-0.38491-0.47044-0.1283-1.0264-0.1283-1.3686 0-2.2667 0.0428-0.89811 0.0428-1.5396 0.29937-0.59874 0.2566-1.1119 0.76981-0.47044 0.51321-1.0692 1.4541-1.3258 2.0528-2.2239 3.0365-0.89811 0.94088-1.6252 0.94088-0.68427 0-0.98364-0.59874-0.25661-0.64151-0.25661-1.6679 0-0.42768 0.0428-0.89812 0.0428-0.5132 0.1283-1.0264 0.64151-3.7208 1.839-6.0302t2.6516-3.5497q1.4969-1.283 3.0792-1.7107 1.6252-0.47044 2.9937-0.47044 1.0264 0 2.0528 0.51321 1.0264 0.47044 2.0101 1.0692 1.0264 0.59874 2.0528 1.112 1.0692 0.47044 2.1811 0.5132 0.85535 0.0428 1.5396 0.0428 0.72705 0 1.3258 0 1.7107 0 2.7371-0.0428 1.0264-0.0855 1.5396-0.17107 0.55598-0.0855 0.76981-0.1283 0.21384-0.0855 0.34214-0.0855 1.4968 0 2.1384 1.0692 0.68428 1.0264 0.68428 2.8226 0 1.1547-0.25661 2.4805-0.0855 0.34213-0.85534 0.89811-0.76981 0.5132-2.566 0.98364-0.51321 0.94088-1.7107 2.6516t-2.7799 3.8063q-1.5396 2.0956-3.2503 4.3195-1.6679 2.2239-3.2076 4.1912-1.4968 1.9245-2.6516 3.3786-1.1119 1.4113-1.4968 1.9245l-0.21383 0.85535q0.0428 0 0.76981 0.29937 0.72704 0.29937 1.7107 0.68427 0.98364 0.34214 2.0528 0.64151 1.112 0.29937 1.9245 0.29937 1.7962 0 3.2503-0.5132 1.4968-0.55598 2.7371-1.3686 1.283-0.81258 2.3522-1.7107 1.112-0.94088 2.0956-1.7535 1.0264-0.81258 2.0101-1.3258 0.98365-0.55598 2.0528-0.55598 0.81258 0 1.4541 0.38491 0.68427 0.3849 1.1119 0.98364 0.47044 0.59874 0.68428 1.3686 0.2566 0.72705 0.2566 1.4541 0 1.2402-0.94088 2.6088-0.94087 1.3258-2.5233 2.6088t-3.678 2.4377-4.405 2.0528q-2.2667 0.85535-4.6616 1.3686-2.3522 0.51321-4.4478 0.51321-0.17107 0-0.89811-0.17107-0.72705-0.17107-1.9245-0.55597-1.1975-0.42767-2.7799-1.0692-1.5824-0.64151-3.4641-1.6252-1.6252 0.51321-2.8226 0.51321-1.283 0-2.2239-0.42767-0.94088-0.47044-1.5824-1.2402-0.59874-0.76981-0.89811-1.7535-0.29937-0.98365-0.29937-2.0956z"/><path id="path4207" d="m314.02-578.76q-0.98365 1.3686-2.6516 3.2075-1.6252 1.839-3.678 3.5069t-4.405 2.8226-4.7044 1.1547q-2.8226 0-4.7044-1.7962-1.8818-1.839-3.2503-5.3031-1.0264 1.1975-2.5233 2.4377-1.4968 1.2402-3.2931 2.2667-1.7535 0.98365-3.678 1.6252-1.9245 0.64151-3.849 0.64151-2.0528 0-4.0201-0.81257-1.9245-0.85535-3.4214-2.395-1.4968-1.5824-2.395-3.8063-0.89811-2.2667-0.89811-5.0893 0-3.2076 0.89811-6.5862t2.4805-6.5862q1.5824-3.2503 3.7208-6.1157 2.1811-2.8654 4.7472-5.0038 2.566-2.1384 5.3887-3.3786 2.8654-1.283 5.8164-1.283 0.98364 0 1.5396 0.3849 0.55597 0.38491 0.89811 0.89811 0.3849 0.47044 0.72704 0.94088t0.85535 0.68428q0.5132 0.21384 1.0264 0.29937 0.55597 0.0428 1.112 0.0428 0.47044 0 0.94088 0 0.5132-0.0428 0.98364-0.0428 0.64151 0 1.1975 0.1283 0.55597 0.1283 0.98364 0.55598 0.42768 0.42767 0.64151 1.1975 0.25661 0.76981 0.25661 2.0956 0 2.0528-0.42768 4.5761-0.42767 2.4805-0.94088 5.1321-0.5132 2.6088-0.94088 5.2604-0.42767 2.6088-0.42767 4.961 0 2.0101 0.34214 3.1648 0.38491 1.112 1.5824 1.112 0.89811 0 1.8818-0.42767 0.98364-0.47044 1.9673-1.1975 1.0264-0.72704 2.0101-1.6252 1.0264-0.94088 1.9245-1.9245 2.0956-2.3094 4.234-5.2176l2.0528 9.4943zm-36.523-3.3786q0 1.0692 0.1283 2.0956 0.17107 0.98365 0.55598 1.7962 0.3849 0.76981 1.0264 1.283 0.64151 0.47044 1.6252 0.47044 1.5824 0 2.8654-1.3686t2.2239-3.2931q0.94088-1.9245 1.4969-3.9774 0.59874-2.0528 0.76981-3.4214l2.6088-12.574q-1.7535 0-3.4214 0.89811-1.6679 0.85535-3.1648 2.3522-1.4541 1.4969-2.6943 3.4214t-2.1384 4.0629q-0.89811 2.0956-1.4113 4.234-0.47044 2.1384-0.47044 4.0201z"/><path id="path4209" d="m367.82-577.86q-4.1057 2.395-7.3132 4.1912t-5.7308 2.9937q-2.4805 1.1975-4.4478 1.7962-1.9245 0.59874-3.5069 0.59874-3.2503 0-5.7308-1.9673t-4.1484-5.6453q-1.6679-3.7208-2.5233-8.9811-0.81258-5.2604-0.81258-11.847 0-2.566 0.21384-5.4742 0.21383-2.9082 0.59874-5.7736-1.283-0.17106-2.0101-0.29937-0.68428-0.17106-1.4968-0.29937-0.76981-0.17107-2.0101-0.34213-1.1975-0.17107-3.5069-0.42768-1.0264-0.1283-1.5824-0.47044-0.55597-0.3849-0.81257-0.85534-0.25661-0.51321-0.29937-1.0264-0.0428-0.55598-0.0428-0.94088 0-0.85535 0.85534-1.283 0.81258-0.47044 2.1384-0.68428 1.283-0.21383 2.8226-0.21383 1.5824-0.0428 2.9937 0 1.4541 0.0428 2.566 0.0855 1.1547 0 1.5824-0.0855 1.1547-5.7736 2.9082-11.162 1.7962-5.4314 3.9774-9.6226 2.2239-4.234 4.8327-6.7572 2.6088-2.566 5.4742-2.566 1.839 0 3.3358 1.0264 1.5396 1.0264 2.6088 2.7371t1.6252 4.0201q0.59874 2.2667 0.59874 4.7472 0 2.0956-0.59874 4.4478-0.59874 2.3094-1.6252 4.7472-1.0264 2.395-2.4377 4.8755-1.3686 2.4805-2.9082 4.9182 0.38491 0.0428 1.283 0.0855 0.89811 0 2.0528 0.0428 1.1975 0.0428 2.566 0.1283 1.3686 0.0428 2.6516 0.0855 1.283 0.0428 2.395 0.0855 1.112 0.0428 1.839 0.0855 0.85535 0.0428 1.2402 0.85535 0.38491 0.81258 0.38491 2.0528 0 1.4969-0.85535 2.4377-0.85534 0.94088-1.8818 0.94088h-16.423q-1.2402 1.7107-2.5233 3.3786-1.2402 1.6252-2.3094 2.9509-0.17107 2.6516-0.29937 5.2176-0.0428 1.112-0.0855 2.3094-0.0428 1.1547-0.0855 2.3094-0.0428 1.1547-0.0855 2.2239 0 1.0692 0 1.9673 0 2.3094 0.42767 3.8918t1.2402 2.6088q0.81258 0.98365 1.9673 1.4541 1.1975 0.42767 2.6516 0.42767 0.89811 0 2.2239-0.42767 1.3686-0.42768 2.9509-1.1547 1.6252-0.76981 3.3786-1.7962 1.7962-1.0264 3.5069-2.2239 1.7535-1.2402 3.3358-2.566 1.5824-1.3686 2.8654-2.7799v10.948zm-13.686-54.143q0-0.47044-0.0855-1.0264-0.0428-0.59875-0.2566-1.112-0.21384-0.51321-0.68428-0.85535-0.42767-0.34213-1.2402-0.34213-1.112 0-2.2667 1.9673-1.112 1.9673-2.1811 5.0465-1.0264 3.0365-1.9673 6.7145-0.89812 3.678-1.6679 7.1421 0.64151 0.0855 1.283 0.17106 0.64151 0.0428 1.3258 0.12831 1.283-2.1811 2.6516-4.7044 1.4113-2.566 2.5233-5.0038 1.112-2.4805 1.839-4.6189 0.72704-2.1384 0.72704-3.5069z"/><path id="path4211" d="m398.45-606.56q0 1.1547-0.25661 3.1648-0.2566 1.9673-0.68427 4.3623-0.38491 2.3522-0.85535 4.8755t-0.89811 4.7044q-0.3849 2.1811-0.64151 3.849-0.2566 1.6252-0.2566 2.2667 0 1.1975 0.0428 2.2239 0.0428 0.98364 0.2566 1.7534 0.21384 0.72705 0.64151 1.1547 0.47044 0.38491 1.3258 0.38491 0.94088 0 2.2667-0.47044 1.3686-0.47044 2.8654-1.2402 1.5396-0.81258 3.122-1.7962 1.5824-1.0264 2.9937-2.1384 1.4541-1.112 2.6088-2.1811 1.1975-1.112 1.9245-2.0528 0 1.4113 0 2.566 0.0428 1.1547 0.0428 2.2239 0 1.0264 0 2.1384 0.0428 1.1119 0.0428 2.4805-0.94088 0.94087-2.3522 2.0101-1.3686 1.0692-3.0792 2.1384-1.6679 1.0692-3.5924 2.0528-1.8818 0.98365-3.8063 1.7535-1.9245 0.72704-3.8063 1.1975-1.8818 0.42768-3.5069 0.42768-1.6252 0-2.7799-0.64151t-2.0101-1.7962q-0.81258-1.1547-1.4113-2.7371-0.55597-1.6252-0.98365-3.5924-1.5396 2.0101-3.2503 3.7208-1.7107 1.6679-3.5069 2.9082-1.7535 1.2402-3.5924 1.9673-1.7962 0.68427-3.5069 0.68427-1.4113 0-2.6516-0.47044-1.2402-0.47044-2.2239-1.5824-0.94088-1.112-1.4969-2.9082-0.55597-1.839-0.55597-4.5333 0-3.2931 0.76981-8.3824 0.81258-5.0893 1.9673-11.633 0.0855-0.64151 0.29937-1.7107 0.2566-1.112 0.64151-2.395 0.42767-1.283 1.0264-2.6088 0.59874-1.3258 1.4113-2.395 0.81258-1.0692 1.8818-1.7535 1.112-0.68427 2.4805-0.72704 2.2667 0.0855 3.2503 0.59874 0.98365 0.47044 0.98365 1.1975-0.38491 2.2667-0.85535 5.0465-0.42767 2.7799-0.89811 5.6025t-0.89811 5.517q-0.42767 2.6516-0.76981 4.7472t-0.55598 3.3786q-0.17107 1.283-0.17107 1.3258 0 0.76981 0.12831 1.4968 0.17107 0.68428 0.47044 1.2402 0.29937 0.55597 0.76981 0.89811t1.1119 0.34214q0.94088 0 1.9245-0.47044 0.98365-0.51321 1.839-1.4113 0.89811-0.94088 1.5824-2.2667 0.68427-1.3686 1.0264-3.0792l4.234-21.726q0.21383-1.0264 1.7107-1.7107 1.5396-0.72704 3.4641-0.72704 2.1811 0 3.4642 0.76981 1.283 0.76981 1.283 1.9673z"/><path id="path4213" d="m456.82-624.39q0 2.8226 1.6252 5.0465 1.6679 2.2239 4.3623 4.1484 2.7371 1.8818 6.1585 3.5924 3.4641 1.7107 7.0566 3.5497 3.6352 1.7962 7.0566 3.8918 3.4641 2.0528 6.1585 4.6616 2.7371 2.6088 4.3623 5.9019 1.6679 3.2931 1.6679 7.527 0 3.849-1.2402 7.0994-1.2402 3.2075-3.4214 5.7736-2.1384 2.566-5.0893 4.5333t-6.3723 3.2503-7.1849 1.9245q-3.7635 0.68427-7.5698 0.68427-5.3459 0-10.392-1.3258-5.0465-1.283-8.9811-3.9346-3.9346-2.6088-6.3296-6.5434-2.3522-3.9774-2.3522-9.2805 0-2.7371 0.85534-4.7899 0.89812-2.0956 2.1811-3.4642 1.3258-1.4113 2.8654-2.0956 1.5396-0.72705 2.8654-0.72705 1.3686 0 2.2667 0.76981 0.94087 0.72705 0.94087 2.3094 0 0.72704-0.17106 1.5396-0.17107 0.81257-0.38491 1.7962-0.17107 0.94088-0.34214 2.0956t-0.17107 2.5233q0 2.9937 1.3686 5.1748t3.6352 3.5924q2.2667 1.4113 5.2176 2.0956 2.9509 0.68427 6.1157 0.68427 3.7208 0 7.4415-0.89811t6.6717-2.6516q2.9509-1.7534 4.7899-4.2767 1.839-2.566 1.839-5.8591 0-3.0365-1.6679-5.4314-1.6252-2.395-4.3622-4.405-2.6943-2.0528-6.1585-3.8491-3.4641-1.7962-7.0566-3.6352-3.5924-1.839-7.0566-3.849-3.4642-2.0528-6.2012-4.4906-2.6943-2.4377-4.3623-5.4314-1.6252-3.0365-1.6252-6.8855 0-3.5924 1.7107-7.0566 1.7535-3.5069 5.2176-6.244 3.5069-2.7799 8.7245-4.4906t12.231-1.7107q4.4478 0 8.6818 1.3258 4.2767 1.3258 7.6126 3.7635 3.3358 2.4377 5.3459 5.8163 2.0528 3.3786 2.0528 7.4843 0 2.4377-0.85535 5.0038-0.81257 2.566-2.6516 5.3459-1.7962 2.6943-3.9346 4.0201-2.0956 1.283-3.8063 1.283-1.283 0-2.0956-0.72704-0.81258-0.76981-0.81258-2.2667 0-1.112 0.51321-2.6088 0.51321-1.5396 1.7535-3.5069 1.1547-1.8818 1.7107-3.5069 0.55597-1.6679 0.55597-3.0792 0-2.1811-1.1975-3.8063-1.1547-1.6679-3.2503-2.7799-2.0528-1.112-4.961-1.6679-2.9082-0.55597-6.3723-0.55597-3.849 0-6.7144 0.89811-2.8226 0.85535-4.7472 2.2667-1.8818 1.3686-2.8226 3.0792-0.89812 1.7107-0.89812 3.3786z"/><path id="path4215" d="m529.74-600.32q1.2402 2.4805 1.839 5.2604 0.64151 2.7371 0.64151 5.2604t-0.55597 5.0893q-0.55598 2.566-1.6252 4.961-1.0264 2.395-2.566 4.4906-1.4968 2.0956-3.4642 3.6352-1.9245 1.5396-4.234 2.4377-2.3094 0.89811-4.9182 0.89811-3.7635 0-6.4578-1.6252-2.6516-1.6679-4.3623-4.3195t-2.5233-5.9874q-0.76981-3.3358-0.76981-6.7572 0-4.7044 1.4113-8.7673 1.4113-4.1056 4.0201-7.0994 2.6516-3.0365 6.4578-4.7472 3.8063-1.7535 8.5534-1.7535 4.0629 0 7.6126 1.283 3.5497 1.2402 6.6289 3.3786 3.122 2.0956 5.7736 4.8327 2.6943 2.7371 5.0038 5.6453l-0.81258 6.0302q-1.1547-1.5396-3.122-3.3358t-4.1912-3.5069q-2.1811-1.7107-4.3195-3.2076-2.1384-1.5396-3.678-2.566l-0.34214 0.47044zm-13.215 23.821q1.4541 0 2.8226-1.4541 1.3686-1.4968 2.395-3.7208 1.0264-2.2667 1.6252-4.961 0.64151-2.7371 0.64151-5.2176 0-1.9673-0.29937-3.6352-0.29937-1.7107-0.89811-2.9509t-1.5396-1.9673q-0.94088-0.72705-2.2667-0.72705-1.7535 0-3.3358 1.4969-1.5824 1.4968-2.7799 3.849-1.1975 2.3094-1.8818 5.1321-0.68427 2.8226-0.68427 5.4314 0 1.7962 0.34214 3.3786 0.34213 1.5824 1.0692 2.7799 0.72704 1.1547 1.9245 1.8818 1.1975 0.68428 2.8654 0.68428z"/><path id="path4217" d="m550.31-568.28q-2.3094 0-4.3195-2.0101-1.9673-2.0528-3.4641-5.4742-1.4541-3.4214-2.3094-7.9119-0.81258-4.5333-0.81258-9.4943 0-3.8063 0.55597-8.2541 0.55598-4.4906 1.6252-9.2377 1.0692-4.7472 2.5233-9.5371 1.4969-4.7899 3.3358-9.195 1.8818-4.405 4.0629-8.2113 2.1811-3.849 4.5761-6.6717 2.395-2.8654 5.0038-4.4906t5.3031-1.6252q1.839 0 3.0365 0.85534 1.1975 0.81258 1.8818 2.1811 0.68427 1.3686 0.94087 3.122 0.29937 1.7107 0.29937 3.5069 0 4.0201-0.94087 8.2113-0.89812 4.1484-2.4805 8.3824-1.5396 4.1912-3.5924 8.4252t-4.2767 8.4251q-2.2239 4.1484-4.4906 8.2113-2.2239 4.0201-4.1912 7.8692-0.21384 0.42767-0.47044 1.112-0.21384 0.68427-0.42768 1.4968-0.21383 0.76981-0.42767 1.6679-0.21383 0.89812-0.34214 1.7535v0.59874q0 1.112 0.21384 2.1811 0.2566 1.0264 0.59874 1.8818 0.34214 0.81258 0.72704 1.3258 0.38491 0.47044 0.72705 0.47044 0.81258 0 1.839-0.34213 1.0692-0.34214 2.2239-0.89812 1.1975-0.59874 2.4377-1.3258 1.2402-0.76981 2.395-1.5396 2.6943-1.7962 5.6453-4.1484l3.5069 8.9811q-3.8063 2.7371-7.527 4.8755-1.6252 0.89811-3.3786 1.7962-1.7107 0.85535-3.4642 1.5396-1.7535 0.68427-3.4214 1.1119-1.6679 0.38491-3.122 0.38491zm0.0428-34.214q1.9245-3.4214 4.0629-7.6981 2.1811-4.2767 4.1056-8.81t3.3358-9.0239q1.4113-4.5333 1.7962-8.4251 0-1.2402-0.0855-2.0956-0.0428-0.89811-0.38491-0.89811-1.2402 0-2.6943 1.6252-1.4113 1.5824-2.8654 4.3195-1.4113 2.7371-2.7371 6.3723-1.283 3.6352-2.3094 7.7409t-1.6252 8.4679q-0.59874 4.3195-0.59874 8.4251z"/><path id="path4219" d="m591.41-577.39q-1.5396 1.4113-3.849 3.0365-2.2667 1.5824-4.9182 2.9509-2.6516 1.3258-5.4314 2.2239-2.7371 0.89811-5.2176 0.89811-2.2239 0-3.7635-0.59874-1.4968-0.64151-2.4377-1.7535-0.94088-1.112-1.3686-2.6943-0.38491-1.6252-0.38491-3.5497 0-2.6943 0.59874-6.244 0.64151-3.5924 1.5396-7.3987 0.89811-3.849 1.8818-7.6553 1.0264-3.8063 1.7962-7.0138 0.29937-1.112 1.1975-1.8818 0.89811-0.81258 2.0101-1.283 1.1547-0.51321 2.3522-0.72704 1.2402-0.25661 2.2239-0.25661 1.7962 0 2.4377 0.68428 0.64151 0.64151 0.64151 1.7535 0 0.94087-0.42767 2.7371-0.42767 1.7535-1.0692 4.0201-0.64151 2.2239-1.3686 4.8327-0.72705 2.566-1.3686 5.1748-0.64151 2.566-1.0692 5.0465-0.42767 2.4377-0.42767 4.405 0 1.9245 0.42767 3.0792 0.42768 1.112 1.7535 1.112 1.5396 0 3.4214-1.0692t3.8063-2.566q1.9245-1.5396 3.7635-3.1648t3.2503-2.7799v8.6818zm-19.117-43.965q0-0.98365 0.42767-2.2239t1.3686-2.3094q0.98365-1.1119 2.566-1.839 1.6252-0.76981 4.0201-0.76981 1.4969 0 2.8226 0.34214 1.3258 0.34214 2.3094 1.0692 0.98365 0.68428 1.5396 1.839 0.59874 1.1547 0.59874 2.7371 0 1.4541-0.47044 2.8226-0.47044 1.3686-1.4968 2.4377-1.0264 1.0692-2.6088 1.7534-1.5396 0.64151-3.7208 0.64151-3.7635 0-5.5597-1.7535-1.7962-1.7962-1.7962-4.7472z"/><path id="path4221" d="m601.55-568.28q-3.9346 0-6.9283-1.4541-2.9509-1.4541-4.961-3.8918t-3.0365-5.6453q-1.0264-3.2075-1.0264-6.6717 0-2.4805 0.5132-5.1748 0.51321-2.6943 1.4969-5.2604 1.0264-2.6088 2.4805-4.961 1.4968-2.3522 3.4214-4.1057 1.9673-1.7962 4.3623-2.8226 2.395-1.0692 5.2604-1.0692 2.4377 0 4.4906 0.76981 2.0956 0.72705 3.5497 2.0528 1.4969 1.3258 2.3094 3.1648 0.85535 1.7962 0.85535 3.8918 0 1.4541-0.38491 2.8654-0.3849 1.4113-1.1547 2.566-0.72705 1.112-1.7962 1.7962-1.0692 0.68427-2.395 0.68427-2.0101 0-2.6516-1.0692-0.59874-1.0692-0.59874-2.9509 0-0.76981 0.0428-1.6252 0.0855-0.85535 0.0855-1.5396 0-1.0264-0.21384-1.7107-0.21383-0.68428-0.94088-0.68428-1.7534 0-2.9937 0.85535-1.2402 0.81257-2.1384 2.1811-0.85535 1.3258-1.3686 3.0365-0.51321 1.6679-0.81258 3.3358t-0.38491 3.2076q-0.0855 1.4968-0.0855 2.5233 0 1.5396 0.2566 3.2076 0.29937 1.6679 1.0692 3.0792 0.76981 1.3686 2.0956 2.3094 1.3258 0.89811 3.4214 0.89811 2.0528 0 4.5333-1.2402 2.4805-1.283 4.961-3.2075 2.5233-1.9245 4.7899-4.234 2.2667-2.3094 3.8918-4.3623l2.9509 4.961q-3.2075 4.5761-6.9283 8.1685-1.5824 1.5396-3.4642 2.9937-1.839 1.4541-3.8918 2.6088-2.0101 1.112-4.234 1.839-2.1811 0.68428-4.4478 0.68428z"/><path id="path4223" d="m645.81-577.39q-1.5396 1.4113-3.849 3.0365-2.2667 1.5824-4.9182 2.9509-2.6516 1.3258-5.4314 2.2239-2.7371 0.89811-5.2176 0.89811-2.2239 0-3.7635-0.59874-1.4968-0.64151-2.4377-1.7535-0.94088-1.112-1.3686-2.6943-0.38491-1.6252-0.38491-3.5497 0-2.6943 0.59874-6.244 0.64151-3.5924 1.5396-7.3987 0.89812-3.849 1.8818-7.6553 1.0264-3.8063 1.7962-7.0138 0.29937-1.112 1.1975-1.8818 0.89811-0.81258 2.0101-1.283 1.1547-0.51321 2.3522-0.72704 1.2402-0.25661 2.2239-0.25661 1.7962 0 2.4377 0.68428 0.6415 0.64151 0.6415 1.7535 0 0.94087-0.42767 2.7371-0.42767 1.7535-1.0692 4.0201-0.64151 2.2239-1.3686 4.8327-0.72704 2.566-1.3686 5.1748-0.64151 2.566-1.0692 5.0465-0.42768 2.4377-0.42768 4.405 0 1.9245 0.42768 3.0792 0.42767 1.112 1.7534 1.112 1.5396 0 3.4214-1.0692t3.8063-2.566q1.9245-1.5396 3.7635-3.1648t3.2503-2.7799v8.6818zm-19.117-43.965q0-0.98365 0.42767-2.2239t1.3686-2.3094q0.98365-1.1119 2.566-1.839 1.6252-0.76981 4.0201-0.76981 1.4968 0 2.8226 0.34214t2.3094 1.0692q0.98365 0.68428 1.5396 1.839 0.59874 1.1547 0.59874 2.7371 0 1.4541-0.47044 2.8226-0.47044 1.3686-1.4969 2.4377-1.0264 1.0692-2.6088 1.7534-1.5396 0.64151-3.7208 0.64151-3.7635 0-5.5597-1.7535-1.7962-1.7962-1.7962-4.7472z"/><path id="path4225" d="m678.31-577.86q-4.1056 2.395-7.3132 4.1912-3.2075 1.7962-5.7308 2.9937-2.4805 1.1975-4.4478 1.7962-1.9245 0.59874-3.5069 0.59874-3.2503 0-5.7308-1.9673t-4.1484-5.6453q-1.6679-3.7208-2.5233-8.9811-0.81258-5.2604-0.81258-11.847 0-2.566 0.21384-5.4742t0.59874-5.7736q-1.283-0.17106-2.0101-0.29937-0.68427-0.17106-1.4968-0.29937-0.76981-0.17107-2.0101-0.34213-1.1975-0.17107-3.5069-0.42768-1.0264-0.1283-1.5824-0.47044-0.55598-0.3849-0.81258-0.85534-0.2566-0.51321-0.29937-1.0264-0.0428-0.55598-0.0428-0.94088 0-0.85535 0.85535-1.283 0.81257-0.47044 2.1384-0.68428 1.283-0.21383 2.8226-0.21383 1.5824-0.0428 2.9937 0 1.4541 0.0428 2.566 0.0855 1.1547 0 1.5824-0.0855 1.1547-5.7736 2.9082-11.162 1.7962-5.4314 3.9774-9.6226 2.2239-4.234 4.8327-6.7572 2.6088-2.566 5.4742-2.566 1.839 0 3.3358 1.0264 1.5396 1.0264 2.6088 2.7371t1.6252 4.0201q0.59874 2.2667 0.59874 4.7472 0 2.0956-0.59874 4.4478-0.59874 2.3094-1.6252 4.7472-1.0264 2.395-2.4377 4.8755-1.3686 2.4805-2.9082 4.9182 0.38491 0.0428 1.283 0.0855 0.89811 0 2.0528 0.0428 1.1975 0.0428 2.566 0.1283 1.3686 0.0428 2.6516 0.0855 1.283 0.0428 2.395 0.0855 1.1119 0.0428 1.839 0.0855 0.85534 0.0428 1.2402 0.85535 0.3849 0.81258 0.3849 2.0528 0 1.4969-0.85534 2.4377-0.85535 0.94088-1.8818 0.94088h-16.423q-1.2402 1.7107-2.5233 3.3786-1.2402 1.6252-2.3094 2.9509-0.17107 2.6516-0.29937 5.2176-0.0428 1.112-0.0855 2.3094-0.0428 1.1547-0.0855 2.3094-0.0428 1.1547-0.0855 2.2239 0 1.0692 0 1.9673 0 2.3094 0.42767 3.8918t1.2402 2.6088q0.81258 0.98365 1.9673 1.4541 1.1975 0.42767 2.6516 0.42767 0.89811 0 2.2239-0.42767 1.3686-0.42768 2.9509-1.1547 1.6252-0.76981 3.3786-1.7962 1.7962-1.0264 3.5069-2.2239 1.7535-1.2402 3.3358-2.566 1.5824-1.3686 2.8654-2.7799v10.948zm-13.686-54.143q0-0.47044-0.0855-1.0264-0.0428-0.59875-0.2566-1.112-0.21384-0.51321-0.68428-0.85535-0.42767-0.34213-1.2402-0.34213-1.1119 0-2.2667 1.9673-1.112 1.9673-2.1811 5.0465-1.0264 3.0365-1.9673 6.7145-0.89811 3.678-1.6679 7.1421 0.6415 0.0855 1.283 0.17106 0.64151 0.0428 1.3258 0.12831 1.283-2.1811 2.6516-4.7044 1.4113-2.566 2.5233-5.0038 1.112-2.4805 1.839-4.6189 0.72705-2.1384 0.72705-3.5069z"/><path id="path4227" d="m708.94-606.56q0 1.1547-0.2566 3.1648-0.25661 1.9673-0.68428 4.3623-0.38491 2.3522-0.85534 4.8755-0.47044 2.5233-0.89812 4.7044-0.3849 2.1811-0.64151 3.849-0.2566 1.6252-0.2566 2.2667 0 1.1975 0.0428 2.2239 0.0428 0.98364 0.2566 1.7534 0.21384 0.72705 0.64151 1.1547 0.47044 0.38491 1.3258 0.38491 0.94088 0 2.2667-0.47044 1.3686-0.47044 2.8654-1.2402 1.5396-0.81258 3.122-1.7962 1.5824-1.0264 2.9937-2.1384 1.4541-1.112 2.6088-2.1811 1.1975-1.112 1.9245-2.0528 0 1.4113 0 2.566 0.0428 1.1547 0.0428 2.2239 0 1.0264 0 2.1384 0.0428 1.1119 0.0428 2.4805-0.94088 0.94087-2.3522 2.0101-1.3686 1.0692-3.0792 2.1384-1.6679 1.0692-3.5924 2.0528-1.8818 0.98365-3.8063 1.7535-1.9245 0.72704-3.8063 1.1975-1.8818 0.42768-3.5069 0.42768-1.6252 0-2.7799-0.64151t-2.0101-1.7962q-0.81258-1.1547-1.4113-2.7371-0.55597-1.6252-0.98364-3.5924-1.5396 2.0101-3.2503 3.7208-1.7107 1.6679-3.5069 2.9082-1.7534 1.2402-3.5924 1.9673-1.7962 0.68427-3.5069 0.68427-1.4113 0-2.6516-0.47044-1.2402-0.47044-2.2239-1.5824-0.94088-1.112-1.4969-2.9082-0.55597-1.839-0.55597-4.5333 0-3.2931 0.76981-8.3824 0.81258-5.0893 1.9673-11.633 0.0855-0.64151 0.29937-1.7107 0.25661-1.112 0.64151-2.395 0.42767-1.283 1.0264-2.6088 0.59874-1.3258 1.4113-2.395 0.81258-1.0692 1.8818-1.7535 1.112-0.68427 2.4805-0.72704 2.2667 0.0855 3.2503 0.59874 0.98365 0.47044 0.98365 1.1975-0.38491 2.2667-0.85535 5.0465-0.42767 2.7799-0.89811 5.6025t-0.89811 5.517q-0.42767 2.6516-0.76981 4.7472t-0.55597 3.3786q-0.17107 1.283-0.17107 1.3258 0 0.76981 0.1283 1.4968 0.17107 0.68428 0.47044 1.2402 0.29937 0.55597 0.76981 0.89811t1.112 0.34214q0.94088 0 1.9245-0.47044 0.98365-0.51321 1.839-1.4113 0.89812-0.94088 1.5824-2.2667 0.68428-1.3686 1.0264-3.0792l4.234-21.726q0.21384-1.0264 1.7107-1.7107 1.5396-0.72704 3.4642-0.72704 2.1811 0 3.4641 0.76981t1.283 1.9673z"/><path id="path4229" d="m736.99-600.61q-2.8226 1.3686-5.0465 3.6352-2.1811 2.2239-3.678 4.8327-1.4541 2.6088-2.2239 5.2604-0.76981 2.6516-0.76981 4.7899 0 0.85535 0.17107 1.7107 0.21384 0.85535 0.72704 1.5396 0.51321 0.68428 1.4541 1.112 0.94088 0.42767 2.4377 0.42767 0.76981 0 1.4968-0.3849 0.76981-0.38491 1.4541-0.98365 0.68428-0.64151 1.283-1.4113 0.6415-0.81258 1.1547-1.6679 1.1975-1.9673 2.1811-4.4478-0.1283-0.59874-0.21384-1.8818-0.0855-1.3258-0.1283-2.9082-0.0428-1.6252-0.0855-3.3358-0.0428-1.7107-0.0855-3.122 0-1.4113-0.0428-2.3094-0.0428-0.89811-0.0855-0.85534zm29.424 23.95q-3.0365 2.3522-5.9874 4.1912-1.2402 0.76981-2.6088 1.5396-1.3686 0.72704-2.6943 1.3258-1.3258 0.55598-2.6088 0.94088-1.2402 0.34214-2.3094 0.34214-0.59874 0-1.7962-0.2566-1.1547-0.25661-2.566-1.0264-1.3686-0.81257-2.7799-2.3094-1.3686-1.4968-2.395-3.9774-1.5824 1.5396-3.3786 2.9509-1.7534 1.3686-3.678 2.395-1.8818 1.0264-3.849 1.6679-1.9245 0.59874-3.8918 0.59874-2.7799 0-4.8327-1.1975-2.0101-1.1975-3.3786-3.1648-1.3258-2.0101-2.0101-4.5333-0.64151-2.5233-0.64151-5.2176 0-2.7371 0.68428-5.517 0.72704-2.8226 2.0528-5.4314 1.3686-2.6516 3.2931-4.961 1.9245-2.3522 4.3623-4.1484 2.4377-1.839 5.3031-3.0365t6.1157-1.4968q0.1283-5.4742 0.98365-10.82 0.85534-5.3459 2.2667-10.179 1.4113-4.8327 3.2931-8.9384 1.9245-4.1057 4.1912-7.0994t4.8327-4.6616q2.566-1.7107 5.3031-1.7107 2.0101 0 3.4214 1.0692 1.4113 1.0264 2.2667 2.7799 0.89811 1.7107 1.283 4.0201 0.38491 2.2667 0.38491 4.7044 0 1.4968-0.1283 3.0792-0.55598 6.0302-2.0528 11.419-1.4968 5.3459-3.5069 10.435-2.0101 5.0893-4.3623 10.093-2.3522 5.0038-4.5761 10.392-0.21383 0.59874-0.42767 1.4541-0.21383 0.85535-0.42767 1.8818-0.17107 0.98365-0.29937 2.0528-0.1283 1.0264-0.1283 2.0101 0 1.2402 0.1283 2.3522 0.17107 1.112 0.51321 2.0101 0.34213 0.85534 0.89811 1.3686 0.59874 0.51321 1.4541 0.51321 0.81258 0 1.7535-0.29937 0.98365-0.34214 2.0528-0.89812 1.0692-0.55597 2.1384-1.2402 1.112-0.72704 2.1384-1.4541 2.3522-1.7107 4.9182-3.8918l1.283 9.8792zm-9.3233-54.956q0.25661-2.9937 0.25661-4.7472 0-2.3094-0.42768-3.2075-0.3849-0.89811-1.1547-0.89811-1.3686 0-2.4805 1.7534-1.112 1.7107-1.9673 4.405-0.85535 2.6943-1.4969 5.9446-0.64151 3.2503-1.0692 6.2868-0.42767 3.0365-0.68427 5.4742-0.25661 2.4377-0.34214 3.4642-0.17107 2.0956-0.29937 4.0629-0.0855 1.9245-0.1283 3.5497-0.0428 1.5824-0.0428 2.7799t0 1.839v0.42767q2.4377-5.5597 4.4906-11.077 0.85534-2.3522 1.7107-4.9182 0.89811-2.6088 1.6252-5.2176 0.72705-2.6088 1.2402-5.1321 0.55598-2.5233 0.76981-4.7899z"/></g><rect id="rect4534" transform="scale(1,-1)" height="294.89" width="793.14" stroke="url(#linearGradient4660)" y="-659.26" x="-3.3895" stroke-width="2.4" fill="none"/></g></svg>
