<?xml version="1.0" encoding="UTF-8" standalone="no"?>
<!-- Created with Inkscape (http://www.inkscape.org/) -->
<svg id="svg2" xmlns:rdf="http://www.w3.org/1999/02/22-rdf-syntax-ns#" xmlns="http://www.w3.org/2000/svg" height="117" width="360" version="1.1" xmlns:cc="http://creativecommons.org/ns#" xmlns:dc="http://purl.org/dc/elements/1.1/" viewBox="0 0 360.00001 116.99999">
 <defs id="defs4">
  <filter id="filter4305" style="color-interpolation-filters:sRGB" height="1.0437" width="1.0143" y="-.021835" x="-.0071743">
   <feGaussianBlur id="feGaussianBlur4307" stdDeviation="1.04625"/>
  </filter>
 </defs>
 <metadata id="metadata7">
  <rdf:RDF>
   <cc:Work rdf:about="">
    <dc:format>image/svg+xml</dc:format>
    <dc:type rdf:resource="http://purl.org/dc/dcmitype/StillImage"/>
    <dc:title/>
   </cc:Work>
  </rdf:RDF>
 </metadata>
 <g id="layer1" transform="translate(0 -935.36)">
  <g id="g4201" fill-opacity=".22652" transform="translate(2,2)" filter="url(#filter4305)">
   <path id="path4203" d="m72.438 945.97c9.2278-7.3784 21.528-11.179 33.216-8.9944 8.294 1.3415 16.447 5.7523 20.916 13.151 3.2634 5.1426 4.3478 11.332 4.5486 17.348 0.87357 24.016-5.9443 47.96-17.863 68.632-2.6508 4.4413-5.4523 8.8216-8.8261 12.745 4.4281-6.9821 8.8763-14.472 9.037-23.02 3.1529-9.2688 7.32-18.284 8.786-28.04 1.8375-11.464 3.0625-23.731-1.3957-34.748-2.8617-7.2565-9.6093-12.572-17.18-13.924-9.1474-2.2054-19.55 0.1118-26.037 7.2565-8.2638 9.1164-11.005 21.83-11.969 33.813-8.0228-5.356-16.196-11.108-25.796-13.06-5.7837-1.2196-12.33-0.69109-17.261 2.8457-7.089 7.0837-9.8704 18.09-7.1693 27.786 3.7052 14.208 13.847 25.438 24.239 35.164-12.029-7.2158-23.627-16.393-30.344-29.087-5.4925-10.336-6.1251-23.751 0.15062-33.884 5.3419-7.226 13.786-12.155 22.663-13.161 8.8161-1.0671 17.431 2.3578 24.771 7.0329 1.3957-10.864 6.8882-21.15 15.514-27.857z"/>
   <path id="path4205" d="m111.17 975.87c0 4.1669 0.0201 8.4049-1.2652 12.409-2.6709 9.0554-6.5411 13.489-12.445 20.542-5.5892 6.0888-6.1121 16.654 3.6148 13.852 6.1317-0.6061 12.307-3.8327 12.395 3.1584-0.16066 8.5472-4.6089 16.037-9.037 23.02-0.53218 0.8435-1.0744 1.6769-1.6267 2.5103l0.0301-0.8435c4.1113-11.912 2.5078-24.511-17.682-13.749-15.43 7.6661-26.835 16.5-43.278 12.641 12.983-3.6384 25.545-11.068 32.362-23.192 3.2141-6.5331-1.1174-13.792-7.8521-12.806-6.105 0.8537-11.025 4.9393-16.106 8.1305 2.8918-6.3215 7.7316-12.023 14.439-14.259 16.462-5.6656 16.721 10.927 46.45-31.414z"/>
   <path id="path4207" d="m75.761 984.05c4.3177-1.8395 9.8503 0.20326 11.869 4.5124 2.209 5.5288-2.0584 13.06-8.1433 13.121-3.424-0.4065-6.7878-2.4188-8.555-5.4474-2.1287-4.421 0.16066-10.549 4.8298-12.186z"/>
   <g id="g4209">
    <path id="path4211" d="m194.82 999.21c6.7175-1.2399 14.128 0.1321 19.47 4.5937 10.342 8.9741 11.176 26.404 2.9521 37.065-8.6052 10.682-27.021 10.641-35.525-0.1321-5.9945-7.7951-6.8581-18.853-3.3336-27.908 2.6207-7.0431 9.0671-12.46 16.437-13.619m0.95391 8.9435c-4.7595 1.2196-7.8019 5.8439-8.6655 10.509-1.0844 5.6609-0.69283 12.125 2.8718 16.861 4.7494 6.3621 15.785 5.8438 19.851-1.0265 3.5345-6.1588 3.5043-14.218 0.45185-20.56-2.5504-5.295-9.1274-7.4496-14.509-5.7829z"/>
    <path id="path4213" d="m132.66 999.78c7.1794 0.051 14.359-0.051 21.528 0.041 6.848 0.1524 13.907 3.5367 17.19 9.8379 4.0466 7.8053 4.1168 17.42 1.1346 25.601-2.5002 6.9109-9.1575 11.85-16.387 12.368-7.812 0.437-15.654 0.071-23.466 0.1931-0.0201-16.017-0.0301-32.034 0-48.041m10.272 8.9131c0.0201 10.092-0.0703 20.174 0.0502 30.256 4.1269-0.1931 8.304 0.3252 12.401-0.3456 4.89-0.9146 8.0931-5.671 8.6354-10.448 0.64263-5.5592 0.40164-12.186-3.8156-16.352-4.6992-4.299-11.507-2.8863-17.271-3.1099z"/>
    <path id="path4215" d="m226.54 999.79c3.4642 0 6.9284 0 10.403 0.02 6.4765 10.834 13.124 21.566 19.701 32.339 0.0201-10.793-0.0301-21.576 0.0201-32.37 3.2433 0.01 6.4966 0.02 9.76 0.01 0.0402 15.997-0.0301 31.983 0.0301 47.98-3.5144 0.061-7.0187 0.071-10.523-0.031-6.4866-10.753-13.043-21.475-19.61-32.187-0.0301 10.753-0.0101 21.495-0.0101 32.248-3.2634 0.01-6.5267 0.02-9.8001 0 0.0301-16.007-0.0201-32.014 0.0301-48.011z"/>
    <path id="path4217" d="m285.09 999.79c3.5345 0 7.0689 0 10.603-0.01 5.9242 15.987 11.788 32.004 17.652 48.021-3.5546 0.02-7.1191 0.02-10.674 0.01-1.2752-3.5368-2.4902-7.0939-3.675-10.671-5.8841 0.01-11.778-0.041-17.672 0.041-1.1447 3.5774-2.4099 7.1041-3.665 10.631-3.4843 0-6.9685 0.01-10.453-0.01 5.9443-16.017 11.949-31.994 17.883-48.011m5.0708 11.992c-1.9379 5.8438-4.0566 11.627-6.0247 17.46 4.0767 0.041 8.1534 0.041 12.23 0.01-2.209-5.7726-3.7052-11.82-6.2054-17.47z"/>
    <path id="path4219" d="m314.34 999.87c8.2337-0.1626 16.467-0.051 24.701-0.081 4.157-0.051 8.6052 1.0874 11.437 4.3701 5.623 6.0776 3.9662 17.348-3.7052 20.906 1.968 1.057 3.916 2.4087 4.8398 4.5633 2.691 5.7218 0.77316 12.45 3.3838 18.222-3.414-0.051-6.828-0.041-10.242-0.041-1.7974-5.5085-0.0904-12.094-3.6449-16.952-4.6792-3.4961-11.045-1.1891-16.427-1.8497-0.0201 6.2605-0.01 12.531-0.01 18.792-3.4341 0.01-6.8581 0.02-10.282 0-0.0301-15.976 0.0502-31.953-0.0502-47.929m10.332 8.0492c-0.01 4.4819-0.01 8.9639 0 13.446 4.7595-0.1016 9.5591 0.3253 14.309-0.2235 6.0548-1.0773 6.1753-11.688 0.13054-12.877-4.7595-0.7724-9.6294-0.1422-14.439-0.3455z"/>
   </g>
   <g id="g4221">
    <path id="path4223" d="m142.38 973.44c4.408-6.9719 15.524-7.5411 20.865-1.4127 4.8097 5.7218 4.6189 14.767 0.0602 20.591 1.1045 1.0163 2.2291 2.0326 3.3537 3.0388-0.93382 0.99599-1.8777 1.9716-2.8115 2.9676-1.2652-1.1383-2.5404-2.2766-3.8156-3.3945-4.9001 2.1648-11.025 2.1241-15.273-1.4533-5.6933-4.8783-6.2556-14.157-2.3798-20.336m4.5888 14.147c1.3957 3.5673 5.5025 4.6344 8.9265 3.8925-0.91374-0.89436-1.8375-1.7887-2.7613-2.6627 0.97398-0.98583 1.9379-1.9615 2.9119-2.9473 1.0644 0.99599 2.1287 1.9818 3.2132 2.9676 3.1027-5.5084 1.7572-16.078-6.0648-16.007-7.0589 0.10163-8.7157 9.4924-6.2255 14.757z"/>
    <path id="path4225" d="m189.36 968.3h5.5427c-0.01 1.5143-0.01 3.0388-0.01 4.5531-1.8375 0.0102-3.675 0.0102-5.5126 0.0203-0.01-1.5245-0.0201-3.049-0.0201-4.5734z"/>
    <path id="path4227" d="m168.29 976.15c1.8375 0.0102 3.675 0.0102 5.5226 0.0203 0.0904 4.3702-0.17069 8.7606 0.11046 13.131 0.0602 4.3295 6.9886 4.0246 7.4204 0.0508 0.54222-4.3702 0.12049-8.7911 0.25103-13.182 1.8375-0.0102 3.675-0.0102 5.5226-0.0203 0 6.7077 0 13.405 0.01 20.103-1.8275-0.0305-3.6349-0.061-5.4523-0.12196 0.10041-0.64027 0.31127-1.9208 0.41168-2.5611-2.4701 2.5611-6.1954 4.1059-9.6495 2.6628-2.5705-0.54881-3.8056-3.242-4.0064-5.6609-0.34139-4.797-0.0502-9.6143-0.14057-14.422z"/>
    <path id="path4229" d="m189.36 976.16c1.8476 0 3.6851-0.0102 5.5326-0.0102-0.01 6.6975 0.0301 13.395-0.0201 20.093-1.8375-0.0102-3.665-0.0102-5.5025 0-0.01-6.6975 0.01-13.385-0.01-20.082z"/>
    <path id="path4231" d="m198.92 978.79c3.6449-3.9128 10.573-4.2584 14.268-0.23375 2.2894 2.4087 2.7412 5.854 2.9019 9.0452-4.89 0.0305-9.7901-0.061-14.69 0.0813 1.7727 5.7758 5.6438 6.5678 9.8302 2.4595 1.5162 0 3.0324 0 4.5486 0.0203-1.8476 5.4474-8.1032 7.9171-13.294 5.8946-6.9384-2.1952-8.294-12.277-3.5646-17.267m2.43 5.173c3.1027 0.10163 6.2054 0.10163 9.3081 0.0813-2.5844-5.9968-7.0461-5.7196-9.3081-0.0813z"/>
    <path id="path4233" d="m217.23 976.14c1.7672 0.0102 3.5345 0.0203 5.3017 0.0203-0.0201 0.84354-0.0502 2.5306-0.0703 3.3742 1.7572-2.5103 4.4783-3.984 7.5208-4.0754 0.0402 1.7277 0.0703 3.4555 0.10041 5.1832-2.6006 0-6.0548 0.31506-6.8581 3.3843-1.0041 3.9636-0.22091 8.1407-0.47193 12.196-1.8375 0-3.665 0.0102-5.5025 0.0102-0.0402-6.6975 0.01-13.395-0.0201-20.093z"/>
    <path id="path4235" d="m234.83 976.56c2.9722-1.2297 6.3962-1.1586 9.3382 0.14229 6.9183 3.1201 7.2999 14.472 1.0242 18.466-4.0767 2.3578-9.6696 2.0631-13.214-1.1586-4.7294-4.8377-3.8257-14.838 2.8517-17.45m1.9881 3.9026c-3.8156 3.0794-3.183 12.033 2.6207 12.257 4.5587-0.23376 5.4122-5.9454 4.2775-9.4822-0.52214-3.0591-4.4281-4.4616-6.8982-2.7745z"/>
   </g>
  </g>
  <g id="g4182">
   <path id="path4156" d="m72.438 945.97c9.2278-7.3784 21.528-11.179 33.216-8.9944 8.294 1.3415 16.447 5.7523 20.916 13.151 3.2634 5.1426 4.3478 11.332 4.5486 17.348 0.87357 24.016-5.9443 47.96-17.863 68.632-2.6508 4.4413-5.4523 8.8216-8.8261 12.745 4.4281-6.9821 8.8763-14.472 9.037-23.02 3.1529-9.2688 7.32-18.284 8.786-28.04 1.8375-11.464 3.0625-23.731-1.3957-34.748-2.8617-7.2565-9.6093-12.572-17.18-13.924-9.1474-2.2054-19.55 0.1118-26.037 7.2565-8.2638 9.1164-11.005 21.83-11.969 33.813-8.0228-5.356-16.196-11.108-25.796-13.06-5.7837-1.2196-12.33-0.69109-17.261 2.8457-7.089 7.0837-9.8704 18.09-7.1693 27.786 3.7052 14.208 13.847 25.438 24.239 35.164-12.029-7.2158-23.627-16.393-30.344-29.087-5.4925-10.336-6.1251-23.751 0.15062-33.884 5.3419-7.226 13.786-12.155 22.663-13.161 8.8161-1.0671 17.431 2.3578 24.771 7.0329 1.3957-10.864 6.8882-21.15 15.514-27.857z" fill="#ed217c"/>
   <path id="path4175" d="m111.17 975.87c0 4.1669 0.0201 8.4049-1.2652 12.409-2.6709 9.0554-6.5411 13.489-12.445 20.542-5.5892 6.0888-6.1121 16.654 3.6148 13.852 6.1317-0.6061 12.307-3.8327 12.395 3.1584-0.16066 8.5472-4.6089 16.037-9.037 23.02-0.53218 0.8435-1.0744 1.6769-1.6267 2.5103l0.0301-0.8435c4.1113-11.912 2.5078-24.511-17.682-13.749-15.43 7.6661-26.835 16.5-43.278 12.641 12.983-3.6384 25.545-11.068 32.362-23.192 3.2141-6.5331-1.1174-13.792-7.8521-12.806-6.105 0.8537-11.025 4.9393-16.106 8.1305 2.8918-6.3215 7.7316-12.023 14.439-14.259 16.462-5.6656 16.721 10.927 46.45-31.414z" fill="#09d3c5"/>
   <path id="path4177" d="m75.761 984.05c4.3177-1.8395 9.8503 0.20326 11.869 4.5124 2.209 5.5288-2.0584 13.06-8.1433 13.121-3.424-0.4065-6.7878-2.4188-8.555-5.4474-2.1287-4.421 0.16066-10.549 4.8298-12.186z" fill="#09d3c5"/>
   <g id="g4164" fill="#63c62f">
    <path id="path4256" d="m194.82 999.21c6.7175-1.2399 14.128 0.1321 19.47 4.5937 10.342 8.9741 11.176 26.404 2.9521 37.065-8.6052 10.682-27.021 10.641-35.525-0.1321-5.9945-7.7951-6.8581-18.853-3.3336-27.908 2.6207-7.0431 9.0671-12.46 16.437-13.619m0.95391 8.9435c-4.7595 1.2196-7.8019 5.8439-8.6655 10.509-1.0844 5.6609-0.69283 12.125 2.8718 16.861 4.7494 6.3621 15.785 5.8438 19.851-1.0265 3.5345-6.1588 3.5043-14.218 0.45185-20.56-2.5504-5.295-9.1274-7.4496-14.509-5.7829z"/>
    <path id="path4258" d="m132.66 999.78c7.1794 0.051 14.359-0.051 21.528 0.041 6.848 0.1524 13.907 3.5367 17.19 9.8379 4.0466 7.8053 4.1168 17.42 1.1346 25.601-2.5002 6.9109-9.1575 11.85-16.387 12.368-7.812 0.437-15.654 0.071-23.466 0.1931-0.0201-16.017-0.0301-32.034 0-48.041m10.272 8.9131c0.0201 10.092-0.0703 20.174 0.0502 30.256 4.1269-0.1931 8.304 0.3252 12.401-0.3456 4.89-0.9146 8.0931-5.671 8.6354-10.448 0.64263-5.5592 0.40164-12.186-3.8156-16.352-4.6992-4.299-11.507-2.8863-17.271-3.1099z"/>
    <path id="path4260" d="m226.54 999.79c3.4642 0 6.9284 0 10.403 0.02 6.4765 10.834 13.124 21.566 19.701 32.339 0.0201-10.793-0.0301-21.576 0.0201-32.37 3.2433 0.01 6.4966 0.02 9.76 0.01 0.0402 15.997-0.0301 31.983 0.0301 47.98-3.5144 0.061-7.0187 0.071-10.523-0.031-6.4866-10.753-13.043-21.475-19.61-32.187-0.0301 10.753-0.0101 21.495-0.0101 32.248-3.2634 0.01-6.5267 0.02-9.8001 0 0.0301-16.007-0.0201-32.014 0.0301-48.011z"/>
    <path id="path4262" d="m285.09 999.79c3.5345 0 7.0689 0 10.603-0.01 5.9242 15.987 11.788 32.004 17.652 48.021-3.5546 0.02-7.1191 0.02-10.674 0.01-1.2752-3.5368-2.4902-7.0939-3.675-10.671-5.8841 0.01-11.778-0.041-17.672 0.041-1.1447 3.5774-2.4099 7.1041-3.665 10.631-3.4843 0-6.9685 0.01-10.453-0.01 5.9443-16.017 11.949-31.994 17.883-48.011m5.0708 11.992c-1.9379 5.8438-4.0566 11.627-6.0247 17.46 4.0767 0.041 8.1534 0.041 12.23 0.01-2.209-5.7726-3.7052-11.82-6.2054-17.47z"/>
    <path id="path4264" d="m314.34 999.87c8.2337-0.1626 16.467-0.051 24.701-0.081 4.157-0.051 8.6052 1.0874 11.437 4.3701 5.623 6.0776 3.9662 17.348-3.7052 20.906 1.968 1.057 3.916 2.4087 4.8398 4.5633 2.691 5.7218 0.77316 12.45 3.3838 18.222-3.414-0.051-6.828-0.041-10.242-0.041-1.7974-5.5085-0.0904-12.094-3.6449-16.952-4.6792-3.4961-11.045-1.1891-16.427-1.8497-0.0201 6.2605-0.01 12.531-0.01 18.792-3.4341 0.01-6.8581 0.02-10.282 0-0.0301-15.976 0.0502-31.953-0.0502-47.929m10.332 8.0492c-0.01 4.4819-0.01 8.9639 0 13.446 4.7595-0.1016 9.5591 0.3253 14.309-0.2235 6.0548-1.0773 6.1753-11.688 0.13054-12.877-4.7595-0.7724-9.6294-0.1422-14.439-0.3455z"/>
   </g>
   <g id="g4171" fill="#0d426e">
    <path id="path4267" d="m142.38 973.44c4.408-6.9719 15.524-7.5411 20.865-1.4127 4.8097 5.7218 4.6189 14.767 0.0602 20.591 1.1045 1.0163 2.2291 2.0326 3.3537 3.0388-0.93382 0.99599-1.8777 1.9716-2.8115 2.9676-1.2652-1.1383-2.5404-2.2766-3.8156-3.3945-4.9001 2.1648-11.025 2.1241-15.273-1.4533-5.6933-4.8783-6.2556-14.157-2.3798-20.336m4.5888 14.147c1.3957 3.5673 5.5025 4.6344 8.9265 3.8925-0.91374-0.89436-1.8375-1.7887-2.7613-2.6627 0.97398-0.98583 1.9379-1.9615 2.9119-2.9473 1.0644 0.99599 2.1287 1.9818 3.2132 2.9676 3.1027-5.5084 1.7572-16.078-6.0648-16.007-7.0589 0.10163-8.7157 9.4924-6.2255 14.757z"/>
    <path id="path4269" d="m189.36 968.3h5.5427c-0.01 1.5143-0.01 3.0388-0.01 4.5531-1.8375 0.0102-3.675 0.0102-5.5126 0.0203-0.01-1.5245-0.0201-3.049-0.0201-4.5734z"/>
    <path id="path4271" d="m168.29 976.15c1.8375 0.0102 3.675 0.0102 5.5226 0.0203 0.0904 4.3702-0.17069 8.7606 0.11046 13.131 0.0602 4.3295 6.9886 4.0246 7.4204 0.0508 0.54222-4.3702 0.12049-8.7911 0.25103-13.182 1.8375-0.0102 3.675-0.0102 5.5226-0.0203 0 6.7077 0 13.405 0.01 20.103-1.8275-0.0305-3.6349-0.061-5.4523-0.12196 0.10041-0.64027 0.31127-1.9208 0.41168-2.5611-2.4701 2.5611-6.1954 4.1059-9.6495 2.6628-2.5705-0.54881-3.8056-3.242-4.0064-5.6609-0.34139-4.797-0.0502-9.6143-0.14057-14.422z"/>
    <path id="path4273" d="m189.36 976.16c1.8476 0 3.6851-0.0102 5.5326-0.0102-0.01 6.6975 0.0301 13.395-0.0201 20.093-1.8375-0.0102-3.665-0.0102-5.5025 0-0.01-6.6975 0.01-13.385-0.01-20.082z"/>
    <path id="path4275" d="m198.92 978.79c3.6449-3.9128 10.573-4.2584 14.268-0.23375 2.2894 2.4087 2.7412 5.854 2.9019 9.0452-4.89 0.0305-9.7901-0.061-14.69 0.0813 1.7727 5.7758 5.6438 6.5678 9.8302 2.4595 1.5162 0 3.0324 0 4.5486 0.0203-1.8476 5.4474-8.1032 7.9171-13.294 5.8946-6.9384-2.1952-8.294-12.277-3.5646-17.267m2.43 5.173c3.1027 0.10163 6.2054 0.10163 9.3081 0.0813-2.5844-5.9968-7.0461-5.7196-9.3081-0.0813z"/>
    <path id="path4277" d="m217.23 976.14c1.7672 0.0102 3.5345 0.0203 5.3017 0.0203-0.0201 0.84354-0.0502 2.5306-0.0703 3.3742 1.7572-2.5103 4.4783-3.984 7.5208-4.0754 0.0402 1.7277 0.0703 3.4555 0.10041 5.1832-2.6006 0-6.0548 0.31506-6.8581 3.3843-1.0041 3.9636-0.22091 8.1407-0.47193 12.196-1.8375 0-3.665 0.0102-5.5025 0.0102-0.0402-6.6975 0.01-13.395-0.0201-20.093z"/>
    <path id="path4279" d="m234.83 976.56c2.9722-1.2297 6.3962-1.1586 9.3382 0.14229 6.9183 3.1201 7.2999 14.472 1.0242 18.466-4.0767 2.3578-9.6696 2.0631-13.214-1.1586-4.7294-4.8377-3.8257-14.838 2.8517-17.45m1.9881 3.9026c-3.8156 3.0794-3.183 12.033 2.6207 12.257 4.5587-0.23376 5.4122-5.9454 4.2775-9.4822-0.52214-3.0591-4.4281-4.4616-6.8982-2.7745z"/>
   </g>
  </g>
 </g>
</svg>
