<?xml version="1.0" encoding="UTF-8" standalone="no"?>
<!-- Creator: CorelDRAW -->

<svg
   xmlns:dc="http://purl.org/dc/elements/1.1/"
   xmlns:cc="http://creativecommons.org/ns#"
   xmlns:rdf="http://www.w3.org/1999/02/22-rdf-syntax-ns#"
   xmlns:svg="http://www.w3.org/2000/svg"
   xmlns="http://www.w3.org/2000/svg"
   xmlns:sodipodi="http://sodipodi.sourceforge.net/DTD/sodipodi-0.dtd"
   xmlns:inkscape="http://www.inkscape.org/namespaces/inkscape"
   xml:space="preserve"
   width="279.4mm"
   height="140mm"
   style="shape-rendering:geometricPrecision; text-rendering:geometricPrecision; image-rendering:optimizeQuality; fill-rule:evenodd; clip-rule:evenodd"
   viewBox="0 0 279.4 140"
   version="1.1"
   id="svg2"
   inkscape:version="0.91 r"
   sodipodi:docname="favicon.svg"><metadata
     id="metadata28"><rdf:RDF><cc:Work
         rdf:about=""><dc:format>image/svg+xml</dc:format><dc:type
           rdf:resource="http://purl.org/dc/dcmitype/StillImage" /><dc:title /></cc:Work></rdf:RDF></metadata><sodipodi:namedview
     pagecolor="#ffffff"
     bordercolor="#666666"
     borderopacity="1"
     objecttolerance="10"
     gridtolerance="10"
     guidetolerance="10"
     inkscape:pageopacity="0"
     inkscape:pageshadow="2"
     inkscape:window-width="1440"
     inkscape:window-height="843"
     id="namedview26"
     showgrid="false"
     inkscape:zoom="0.91423909"
     inkscape:cx="124.24753"
     inkscape:cy="167.87023"
     inkscape:window-x="1280"
     inkscape:window-y="150"
     inkscape:window-maximized="1"
     inkscape:current-layer="svg2" /><defs
     id="defs4"><style
       type="text/css"
       id="style6"><![CDATA[
    .str0 {stroke:#1F1A17;stroke-width:0.3817;stroke-linecap:round;stroke-linejoin:round}
    .fil1 {fill:#1F1A17}
    .fil0 {fill:#31A463}
    .fil2 {fill:#1F1A17;fill-rule:nonzero}
   ]]></style></defs><rect
     style="opacity:1;fill:#ffffff;fill-opacity:1;stroke:none;stroke-width:1;stroke-linecap:butt;stroke-linejoin:miter;stroke-miterlimit:4;stroke-dasharray:none;stroke-opacity:1"
     id="rect4185"
     width="89.521927"
     height="89.521927"
     x="7.1000233"
     y="25.164978"
     ry="2.2577777"
     rx="2.2577777" /><g
     id="g4181"
     transform="matrix(1.012691,0,0,1.0384948,-1.9522026,-4.2947309)"><path
       inkscape:connector-curvature="0"
       id="path4176"
       d="M 67.446181,32.573516 A 54.194003,38.895737 0 0 0 13.251767,71.46947 54.194003,38.895737 0 0 0 67.446181,110.36542 54.194003,38.895737 0 0 0 93.025847,105.72309 36.714217,56.327948 89.265581 0 1 76.182142,107.73888 36.714217,56.327948 89.265581 0 1 19.042107,71.983201 36.714217,56.327948 89.265581 0 1 74.540539,34.326931 36.714217,56.327948 89.265581 0 1 85.526005,34.851687 54.194003,38.895737 0 0 0 67.446181,32.573516 Z"
       style="opacity:1;fill:#31a463;fill-opacity:1;stroke:none;stroke-width:0.28222221;stroke-linecap:butt;stroke-linejoin:miter;stroke-miterlimit:4;stroke-dasharray:none;stroke-opacity:1" /><path
       style="fill:#1f1a17"
       inkscape:connector-curvature="0"
       d="m 39.214825,51.921155 c 2.392258,-0.470274 4.862529,-0.868505 7.293012,-0.465105 1.78461,0.04286 3.554327,0.451429 5.214575,1.125988 1.274975,0.295173 2.342471,1.098528 3.416529,1.821116 0.58942,0.413739 1.107388,0.920089 1.665144,1.374856 0.619208,0.497843 1.019376,1.211816 1.572237,1.779979 0.506303,0.527026 0.796794,1.242722 1.359654,1.716444 0.95459,-1.31649 1.995422,-2.583227 3.248837,-3.606265 1.294973,-0.904582 2.619735,-1.803994 4.110521,-2.322297 0.710553,-0.228299 1.384547,-0.590455 2.131659,-0.678006 1.117283,-0.152809 2.191445,-0.602515 3.330288,-0.573332 1.329761,0.01368 2.659522,0 3.989283,0.0051 1.240187,-0.0017 2.415589,0.456598 3.632445,0.635038 0.926364,0.157979 1.716597,0.71925 2.584842,1.057391 1.665144,0.655713 3.08625,1.8125 4.429239,2.995241 2.335909,2.296559 3.836694,5.39475 4.555476,8.614845 0.06978,1.089912 0.302157,2.159258 0.393502,3.244001 0.04145,3.031317 -0.03656,6.067694 0.03323,9.098904 0.305386,1.642676 0.1228,3.319598 0.174254,4.98112 0.04156,1.268568 -0.05312,2.550704 -0.386836,3.776196 -0.280493,0.926873 -1.26331,1.37324 -2.133222,1.452177 -0.88491,0.115011 -1.734928,-0.315851 -2.433816,-0.832539 -0.788566,-0.986962 -0.614208,-2.348034 -0.619208,-3.537559 0.04312,-1.661522 -0.124466,-3.335105 0.161026,-4.98112 0.06968,-1.828008 -0.0033,-3.659463 0.03323,-5.489193 0.04312,-1.04027 -0.272264,-2.052862 -0.194251,-3.09313 0.07801,-0.983517 -0.217478,-1.925789 -0.436622,-2.866447 -0.436623,-3.204586 -2.272791,-6.27704 -5.051884,-7.849289 -0.790233,-0.496012 -1.688371,-0.750048 -2.526723,-1.138049 -1.832731,-0.622976 -3.793366,-0.56644 -5.695986,-0.492566 -0.951258,0.147641 -1.932408,0.185332 -2.840545,0.542426 -1.075725,0.453044 -2.234566,0.741433 -3.184157,1.46413 -0.657433,0.508073 -1.409441,0.932041 -1.889184,1.640845 -0.537966,0.782786 -1.138843,1.54145 -1.465893,2.452816 -0.262369,0.736372 -0.594419,1.445284 -0.795232,2.203947 -0.335382,1.671861 -0.489742,3.372797 -0.665766,5.068671 -0.01156,4.522799 -0.0017,9.049152 -0.0033,13.571951 -0.01823,0.712358 -0.102906,1.426439 -0.270597,2.116397 -0.652434,0.988686 -1.914181,1.31132 -3.014799,1.222155 -0.544528,0.01018 -1.011043,-0.333081 -1.371319,-0.720974 -0.361943,-0.384447 -0.763673,-0.837599 -0.722115,-1.4161 0.0032,-4.751098 0.0032,-9.500473 0.0017,-14.251571 -0.01,-1.052223 0.06801,-2.114675 -0.114572,-3.156558 -0.159359,-1.326828 -0.260703,-2.688007 -0.762006,-3.935898 -0.678994,-1.491483 -1.480892,-2.947105 -2.591508,-4.143521 -0.650768,-0.537149 -1.243416,-1.153341 -1.953969,-1.608217 -0.740446,-0.492674 -1.588797,-0.758771 -2.384029,-1.131157 -0.745446,-0.365602 -1.573799,-0.437753 -2.377364,-0.55621 -3.179157,-0.588624 -6.497779,0.206007 -9.275206,1.850407 -2.078435,1.14828 -3.516206,3.2664 -4.251652,5.542392 -0.268931,1.294197 -0.908138,2.518074 -0.851685,3.872254 0.06145,1.110589 -0.418291,2.154195 -0.385065,3.261338 0.0082,1.663246 0.0066,3.324767 0,4.988013 -0.01,0.806693 0.227373,1.589371 0.205812,2.397786 -0.01489,2.233132 -0.0033,4.467986 -0.0033,6.701118 0.02166,1.340503 -1.274975,2.447646 -2.536722,2.317127 -0.924698,0.07043 -1.932408,-0.32608 -2.447044,-1.146556 -0.302156,-0.56644 -0.411729,-1.220323 -0.400063,-1.860638 0.02323,-4.809465 -0.01167,-9.619038 0.01656,-14.428503 0.127799,-0.959395 0.180919,-1.924066 0.224144,-2.892184 0.283929,-1.622108 0.207479,-3.329935 0.886472,-4.855878 0.70722,-3.187357 2.830547,-5.837565 5.305817,-7.7738 1.837835,-1.376579 3.886481,-2.439031 6.06626,-3.089576 z"
       class="fil1"
       id="_179250064" /></g></svg>