<?xml version="1.0" encoding="UTF-8" standalone="no"?>
<!-- Created with Inkscape (http://www.inkscape.org/) -->

<svg
   xmlns:dc="http://purl.org/dc/elements/1.1/"
   xmlns:cc="http://creativecommons.org/ns#"
   xmlns:rdf="http://www.w3.org/1999/02/22-rdf-syntax-ns#"
   xmlns:svg="http://www.w3.org/2000/svg"
   xmlns="http://www.w3.org/2000/svg"
   xmlns:sodipodi="http://sodipodi.sourceforge.net/DTD/sodipodi-0.dtd"
   xmlns:inkscape="http://www.inkscape.org/namespaces/inkscape"
   id="svg2"
   version="1.1"
   inkscape:version="0.91 r"
   xml:space="preserve"
   width="196.62312"
   height="271.44232"
   viewBox="0 0 196.62312 271.44232"
   sodipodi:docname="hands.svg"><metadata
     id="metadata8"><rdf:RDF><cc:Work
         rdf:about=""><dc:format>image/svg+xml</dc:format><dc:type
           rdf:resource="http://purl.org/dc/dcmitype/StillImage" /><dc:title></dc:title></cc:Work></rdf:RDF></metadata><defs
     id="defs6"><clipPath
       clipPathUnits="userSpaceOnUse"
       id="clipPath26"><path
         d="M 0,800 800,800 800,0 0,0 0,800 Z"
         id="path28"
         inkscape:connector-curvature="0" /></clipPath><clipPath
       clipPathUnits="userSpaceOnUse"
       id="clipPath302"><path
         d="m 559.196,659.886 40.804,0 0,-95.626 -40.804,0 0,95.626 z"
         id="path304"
         inkscape:connector-curvature="0" /></clipPath><clipPath
       clipPathUnits="userSpaceOnUse"
       id="clipPath448"><path
         d="m 689.701,632.033 39.28,0 0,-66.556 -39.28,0 0,66.556 z"
         id="path450"
         inkscape:connector-curvature="0" /></clipPath><clipPath
       clipPathUnits="userSpaceOnUse"
       id="clipPath570"><path
         d="m 161.779,253.404 40.804,0 0,-95.626 -40.804,0 0,95.626 z"
         id="path572"
         inkscape:connector-curvature="0" /></clipPath></defs><sodipodi:namedview
     pagecolor="#ffffff"
     bordercolor="#666666"
     borderopacity="1"
     objecttolerance="10"
     gridtolerance="10"
     guidetolerance="10"
     inkscape:pageopacity="0"
     inkscape:pageshadow="2"
     inkscape:window-width="1440"
     inkscape:window-height="843"
     id="namedview4"
     showgrid="false"
     fit-margin-top="0"
     fit-margin-left="0"
     fit-margin-right="0"
     fit-margin-bottom="0"
     inkscape:zoom="0.3337544"
     inkscape:cx="195.82123"
     inkscape:cy="91.791321"
     inkscape:window-x="1280"
     inkscape:window-y="150"
     inkscape:window-maximized="1"
     inkscape:current-layer="g10" /><g
     id="g10"
     inkscape:groupmode="layer"
     inkscape:label="07"
     transform="matrix(1.25,0,0,-1.25,-581.31677,663.02164)"><g
       id="g962"
       transform="translate(565.81252,375.45331)"><path
         d="m 0,0 0.071,33.938 c 0,0 -12.614,4.925 -15.151,13.155 l -1.653,88.796 c 0,0 -0.83,7.824 6.966,7.823 3.491,-10e-4 6.424,-1.226 6.423,-5.726 l 0.846,-46.41 3.599,1.183 0.216,52.248 c 0,0 0.31,7.459 6.155,7.459 5.846,-0.001 6.652,-5.423 6.652,-5.423 l 1.608,-50.27 3.885,-0.641 -0.053,53.06 c 0,0 -0.33,5.773 6.323,5.772 6.653,-0.002 6.637,-6.646 6.637,-6.646 l -0.258,-52.703 3.999,0 0.541,45.612 c 0,0 0.668,6.512 6.513,6.51 5.845,-0.001 6.664,-5.128 6.664,-5.128 L 47.298,-0.132 0,0 Z"
         style="fill:#ffe0b8;fill-opacity:1;fill-rule:nonzero;stroke:none"
         id="path964"
         inkscape:connector-curvature="0" /></g><g
       id="g966"
       transform="translate(521.59282,376.43081)"><path
         d="m 0,0 -0.071,30.96 c 0,0 12.614,4.926 15.151,13.155 l 1.653,88.796 c 0,0 0.83,7.824 -6.966,7.823 -3.491,-0.001 -6.424,-1.225 -6.423,-5.725 l -0.846,-46.41 -3.599,1.182 -0.216,52.248 c 0,0 -0.31,7.459 -6.155,7.459 -5.846,-0.001 -6.652,-5.423 -6.652,-5.423 l -1.608,-50.269 -3.885,-0.642 0.37,52.201 c 0,0 0.331,5.773 -6.321,5.772 -6.655,-0.002 -6.639,-6.646 -6.639,-6.646 l -0.059,-51.843 -3.999,0 -0.56,46.051 c 0,0 -0.668,6.513 -6.514,6.511 -5.845,-10e-4 -6.664,-5.128 -6.664,-5.128 L -47.298,-0.132 0,0 Z"
         style="fill:#ffe0b8;fill-opacity:1;fill-rule:nonzero;stroke:none"
         id="path968"
         inkscape:connector-curvature="0" /></g><g
       id="g970"
       transform="translate(582.77442,517.67111)"><path
         d="m 0,0 c -40.168,5.648 -42.011,-31.057 -42.011,-31.057 0,0 -1.843,36.705 -42.012,31.057 -46.359,-6.521 -48.532,-98.874 42.012,-123.863 C 48.533,-98.874 46.358,-6.521 0,0"
         style="fill:#ff5049;fill-opacity:1;fill-rule:nonzero;stroke:none"
         id="path972"
         inkscape:connector-curvature="0" /></g><g
       id="g974"
       transform="translate(496.72852,470.41911)"><path
         d="m 0,0 c 0,5.734 4.647,10.382 10.381,10.382 5.734,0 10.382,-4.648 10.382,-10.382 0,-5.733 -4.648,-10.381 -10.382,-10.381 C 4.647,-10.381 0,-5.733 0,0 m 25.685,-7.668 2.82,-0.64 2.027,8.942 -3.087,0.7 c -0.154,2.003 -0.65,3.907 -1.434,5.658 l 2.466,1.97 -5.721,7.163 -2.594,-2.07 c -1.561,1.089 -3.314,1.916 -5.197,2.438 l 0,3.222 -9.167,0 0,-3.222 C 3.848,15.952 2.041,15.079 0.437,13.933 L -1.939,15.812 -7.627,8.622 -5.336,6.81 C -6.136,4.966 -6.605,2.951 -6.708,0.838 l -2.659,-0.616 2.069,-8.932 2.589,0.6 c 1.013,-1.879 2.37,-3.541 3.981,-4.916 l -1.091,-2.285 8.27,-3.956 1.14,2.383 c 0.91,-0.149 1.838,-0.247 2.79,-0.247 1.205,0 2.38,0.127 3.515,0.364 l 1.131,-2.337 8.252,3.994 -1.247,2.577 c 1.49,1.386 2.731,3.028 3.653,4.865"
         style="fill:#fffffe;fill-opacity:1;fill-rule:nonzero;stroke:none"
         id="path976"
         inkscape:connector-curvature="0" /></g><g
       id="g978"
       transform="translate(556.20022,462.23751)"><path
         d="m 0,0 c 0,8.161 6.615,14.776 14.775,14.776 8.162,0 14.776,-6.615 14.776,-14.776 0,-8.16 -6.614,-14.775 -14.776,-14.775 C 6.615,-14.775 0,-8.16 0,0 m 36.576,-10.919 3.994,-0.905 2.886,12.726 -4.378,0.994 C 38.858,4.75 38.148,7.465 37.03,9.96 l 3.5,2.795 -8.142,10.195 -3.684,-2.941 c -2.225,1.552 -4.723,2.741 -7.405,3.484 l 0,4.567 -13.047,0 0,-4.567 C 5.473,22.723 2.895,21.474 0.609,19.839 L -2.76,22.504 -10.855,12.271 -7.599,9.695 C -8.74,7.066 -9.434,4.198 -9.577,1.187 l -3.755,-0.872 2.945,-12.711 3.682,0.852 c 1.441,-2.676 3.371,-5.048 5.666,-7.006 l -1.55,-3.241 11.771,-5.631 1.612,3.369 c 1.296,-0.213 2.625,-0.329 3.981,-0.329 1.715,0 3.388,0.179 5.003,0.516 l 1.611,-3.325 11.744,5.684 -1.765,3.648 c 2.124,1.974 3.894,4.323 5.208,6.94"
         style="fill:#fffffe;fill-opacity:1;fill-rule:nonzero;stroke:none"
         id="path980"
         inkscape:connector-curvature="0" /></g><g
       id="g982"
       transform="translate(524.60842,449.20621)"><path
         d="M 0,0 C 0,3.883 3.147,7.03 7.029,7.03 10.912,7.03 14.06,3.883 14.06,0 14.06,-3.883 10.912,-7.029 7.029,-7.029 3.147,-7.029 0,-3.883 0,0 m 17.393,-5.192 1.909,-0.434 1.373,6.055 -2.091,0.474 C 18.479,2.26 18.145,3.549 17.613,4.734 l 1.67,1.334 -3.874,4.851 -1.756,-1.402 c -1.057,0.737 -2.245,1.297 -3.519,1.651 l 0,2.182 -6.208,0 0,-2.182 C 2.605,10.802 1.382,10.211 0.296,9.434 L -1.313,10.706 -5.164,5.838 -3.613,4.61 C -4.154,3.362 -4.473,1.998 -4.542,0.567 l -1.801,-0.417 1.402,-6.048 1.753,0.406 c 0.685,-1.273 1.605,-2.398 2.696,-3.329 l -0.739,-1.546 5.599,-2.679 0.772,1.612 c 0.616,-0.1 1.245,-0.167 1.889,-0.167 0.817,0 1.612,0.086 2.38,0.247 l 0.767,-1.583 5.588,2.705 -0.845,1.745 c 1.009,0.938 1.849,2.05 2.474,3.295"
         style="fill:#31a463;fill-opacity:1;fill-rule:nonzero;stroke:none"
         id="path984"
         inkscape:connector-curvature="0" /></g><g
       id="g986"
       transform="translate(588.83792,373.30191)"><path
         d="m 0,0 c 0,0 -3.731,42.539 3.424,53.267 7.153,10.727 15.812,13.55 15.812,13.55 l 1.194,27.712 c 0,0 0.755,11.67 13.084,12.139 L 32.313,46.581 c 0,0 0.565,-6.824 -7.764,-14.305 L 24.271,-0.067 0,0 Z"
         style="fill:#ffe0b8;fill-opacity:1;fill-rule:nonzero;stroke:none"
         id="path988"
         inkscape:connector-curvature="0" /></g><g
       id="g994"
       transform="translate(498.56742,374.27951)"><path
         d="M 0,0 C 0,0 3.731,39.562 -3.424,50.289 -10.577,61.017 -19.236,63.84 -19.236,63.84 l -1.194,27.712 c 0,0 -0.755,11.67 -13.084,12.138 l 1.201,-60.086 c 0,0 -0.565,-6.825 7.764,-14.305 L -24.271,-0.067 0,0 Z"
         style="fill:#ffe0b8;fill-opacity:1;fill-rule:nonzero;stroke:none"
         id="path996"
         inkscape:connector-curvature="0" /></g><g
       id="g998"
       transform="translate(469.17382,274.28241)"><path
         d="m 0,38.983051 58.023,-0.002 -0.021,68.000949 -58.023,0.002 z"
         style="fill:#ffffff;fill-opacity:1;fill-rule:nonzero;stroke:none"
         id="path1000"
         inkscape:connector-curvature="0"
         sodipodi:nodetypes="ccccc" /><path
         sodipodi:nodetypes="ccccc"
         inkscape:connector-curvature="0"
         id="path6145"
         style="fill:#ffffff;fill-opacity:1;fill-rule:nonzero;stroke:none"
         d="m 91.0551,38.983051 58.023,-0.002 -0.021,68.000949 -58.023,0.002 z" /></g></g></svg>