<?xml version="1.0" encoding="UTF-8" standalone="no"?>
<!-- Creator: CorelDRAW X7 -->
<svg id="svg2" xmlns:rdf="http://www.w3.org/1999/02/22-rdf-syntax-ns#" style="shape-rendering:geometricPrecision;text-rendering:geometricPrecision;image-rendering:optimizeQuality" xmlns="http://www.w3.org/2000/svg" fill-rule="evenodd" xml:space="preserve" height="1549px" width="2343px" version="1.1" clip-rule="evenodd" xmlns:cc="http://creativecommons.org/ns#" xmlns:dc="http://purl.org/dc/elements/1.1/" viewBox="0 0 2342 1549"><metadata id="metadata96"><rdf:RDF><cc:Work rdf:about=""><dc:format>image/svg+xml</dc:format><dc:type rdf:resource="http://purl.org/dc/dcmitype/StillImage"/><dc:title/></cc:Work></rdf:RDF></metadata><defs id="defs4"><style id="style6" type="text/css"><![CDATA[
    .str1 {stroke:#25AAE3;stroke-width:4.79937;stroke-linecap:round;stroke-linejoin:round}
    .str0 {stroke:#E92A6F;stroke-width:4.79937;stroke-linecap:round;stroke-linejoin:round}
    .str2 {stroke:#FEFEFE;stroke-width:29.9961;stroke-linecap:round;stroke-linejoin:round}
    .fil4 {fill:none}
    .fil2 {fill:none;fill-rule:nonzero}
    .fil3 {fill:#25AAE3}
    .fil5 {fill:#E92A6F}
    .fil6 {fill:#FEFEFE;fill-rule:nonzero}
    .fil1 {fill:#25AAE3;fill-rule:nonzero}
    .fil0 {fill:#E92A6F;fill-rule:nonzero}
   ]]></style></defs><g id="g4431"><ellipse id="path4429" rx="40.124" ry="34.947" cy="830.64" cx="1057" fill="#fff"/><g id="g4373" stroke-linejoin="round" stroke="#fff" stroke-linecap="round" stroke-width="35" fill="#fff"><path id="path4375" d="m705 498c0 53 17 85 36 130 3 5 5 10 7 15 5 10 9 20 14 30 7 17 18 48 22 67 3 13 5 24 5 40 0 22-7 38 16 61 7 7 12 12 21 18 23 18 46 34 77 41s31-8 41-13 62 11 82-22c8-15 7-37 20-53 21-26 53-15 73-35 14-14-7-41 40-69 18-11 35 1 43-30 4-15 4-44 13-60 10-18 32 2 26-43-2-18-17-34-29-43l-38-35c-6-6-13-10-19-16-2-3-2-2-5-4-29-23-65-56-95-79-7-5-13-10-20-15-33-24-52-43-90-56-50-16-103 5-141 38-24 21-31 28-51 51-3 3-3 4-6 7-4 5-7 9-10 13-4 5-7 8-11 13-11 13-21 26-21 49z" class="fil3"/><path id="path4377" d="m419 327c0 15 2 34 2 43l103 73c21 16 44 31 67 45 6 3 8 4 15 7 30 12 62 14 83-15 5-8 7-14 11-24 8-23 27-42 43-59 4-3 5-5 9-8s6-5 10-8c6-5 11-10 19-16 6-5 12-9 19-14 24-16 35-25 67-36 4-1 8-2 12-4s8-3 9-8c2-20-43-66-58-78l-37-32c-21-20-125-100-153-121l-58-44c-6-3-36-27-41-28l-23 33c-24 36-32 54-50 90-28 57-49 137-49 204z" class="fil3"/><path id="path4379" d="m582 925c4-4 3-7 4-13 3-11 11-32 25-27 8 3 14 11 20 17l8 8c14 12 30 2 38-7 18-20 10-88 30-88 38 0 73 11 64-50-3-19-7-32-12-49-2-7-5-15-7-22-3-8-5-15-8-23l-8-22c-7-20-16-45-26-64-11-22-37-55-66-55-45 0-20 21-50 82-9 19-11 16-20 41-15 37-10 54-14 79-1 8 2 47 3 57 1 11 2 18 3 28l3 27c1 9 2 19 3 28 2 8 1 21 2 29 1 9 2 20 8 24z" class="fil3"/><path id="path4381" d="m1009 905c-18 0-23-7-46-7-8 0-10 17-10 24 0 11 30 53 38 66 5 9 34 59 47 59s14-41 33-55c13-9 28 5 47 5 18 0-14-60-20-74-7-16-36-78-49-78-12 0-8 32-10 40-3 11-15 20-30 20z" class="fil3"/><path id="path4383" d="m1136 762c0 20 10 38-10 42-5 1-18-1-27-1-10 0-21 9-21 19 0 20 25 53 38 63 16 12 39 45 59 45 14 0 13-30 20-51 1-2 2-6 4-7 10-10 25 3 45 3 23 0-57-115-91-127-8-3-17 6-17 14z" class="fil3"/><path id="path4385" d="m1212 953c-16 0-13-14-27-16-15-3-5 20-3 25 2 7 3 13 5 20 4 14 8 27 12 41l13 39c2 4 5 13 9 16 2 3 12 8 18 8 15 0 22-21 27-33 9-24 21-11 44-16 4-14-4-32-9-46l-23-67c-20-54-45-46-44-1 0 11 0 16-5 22-3 4-10 8-17 8z" class="fil3"/><path id="path4387" d="m620 965c-21 0-17-19-29-27-24 17 3 25 15 54 11 29 61 137 100 105 3-3 7-9 9-14l5-29c0-6-1-5-2-11-1-26-19-104-37-122-6-6-10-6-24 0-8 4-1 10-9 26-5 8-16 18-28 18z" class="fil3"/><path id="path4389" d="m1210 655c0 13 5 17 5 42 0 22-47 0-47 32 0 16 32 52 45 62 11 9 33 33 53 33 13 0 14-34 17-46 4-25 11-21 26-23 9-1 14-4 8-13-8-11-35-36-47-46-5-5-7-8-13-13-12-10-18-17-36-29-5-3-4-3-11-3v4z" class="fil3"/><path id="path4391" d="m1085 1050c-13 0-17-7-23-7-13 0-19 19-10 37 2 4 4 9 5 14 7 18 14 42 20 59 2 5 4 9 6 14 1 1 3 5 4 6 8 9 11-9 17-20 11-21 23-16 46-15 18 1 18-1 18-14 0-12-21-83-25-95-16-46-30 1-37 12-4 5-13 9-21 9z" class="fil3"/><path id="path4393" d="m1293 841c-22 0-30-22-8 56 4 17 10 36 19 49 6 8 11 10 22 6 10-3 10-13 13-22 5-8 11-9 22-11 7-1 9-1 12-5 15-15-7-75-11-87-4-9-8-18-14-27-5-10-12-20-23-20-9 0-17 38-21 48-2 4-7 13-11 13z" class="fil3"/><path id="path4395" d="m1246 582c0 3 3 13 4 17 13 40-8 9-24 22-7 6-8 12-3 19 1 2 3 4 5 6l11 10 6 4c10 10 22 20 32 31 6 7 19 25 31 25 10 0 1-21 1-32 0-5 7-6 12-6-4 4-10 3-8 18 1 6 3 20 8 20 13 0 16-27 7-36l-5-3c7 0 15-3 17-9 4-9-13-22-19-30l-36-42c-5-7-6-8-13-13-8-7-9-10-20-10-4 0-6 6-6 9z" class="fil3"/><path id="path4397" d="m1124 1175c-9 0-13-2-17 1-14 9 3 32 7 39 6 9 11 16 17 24 10 14 29 35 46 36 7 0 15-4 21-15 15-29 0-116-26-118-6 5-4 6-8 11-3 3-8 8-11 10-6 5-18 12-29 12z" class="fil3"/><path id="path4399" d="m1282 1076c-2 7-12 14-20 15-12 4-19-2-29 3-4 13 2 23 7 33 8 17 22 39 40 48 23 11 47 5 55-22 7-26-10-67-23-86-16-25-20 3-30 9z" class="fil3"/><path id="path4401" d="m1336 976c-7 0-9-16-25-12 0 3-1 2-1 5 0 14 18 61 34 77 4 3 6 5 11 8 21 11 48-4 48-36 0-27-6-47-14-73-1-3-2-6-2-9-2-6-1-6-4-10-10 3-13 21-19 30-4 6-17 20-28 20z" class="fil3"/><path id="path4403" d="m596 910c0 19 4 49 26 49 42 0-3-61-9-65-9-7-17 6-17 16z" class="fil3"/><path id="path4405" d="m1194 907c0 22 37 66 37 0 0-6-1-15-3-20-1-3-2-6-4-8-12-16-30 10-30 28z" class="fil3"/><path id="path4407" d="m1384 821c-10 14-20-17-3 50 2 8 2 12 8 17 7-1 12-7 14-12 2-4 3-9 3-14v-10c0-6-2-16-3-21-8-26-13-14-19-10z" class="fil3"/><path id="path4409" d="m1065 1011c0 8 8 33 21 33 7 0 15-4 18-7 8-9-1-42-21-42-4 0-8 0-12 6-2 2-6 8-6 10z" class="fil3"/><path id="path4411" d="m1284 798c0 5-1 32 6 32 19 0 22-53 11-64-12-13-17 20-17 32z" class="fil3"/><path id="path4413" d="m1109 1156c0 7 10 24 35 8 14-9 6-25-11-25-10 0-24 8-24 17z" class="fil3"/><path id="path4415" d="m1331 968c0 13 29-12 29-35 0-4-2-6-4-8-14 3-25 35-25 43z" class="fil3"/><path id="path4417" d="m1282 1076c1-4 2-5 3-8s3-9 3-10c0-6-1-17-7-17-12 3-18 30-11 43 7-1 7-4 12-8z" class="fil3"/><path id="path4419" d="m1384 821c2-7 1-7-2-12-6 1-9 3-9 10 5 2 4 2 11 2z" class="fil3"/><path id="path4421" d="m1326 721c-5 0-21-10-2 29 6 13 8 23 21 32 5 4 7 4 11 9 5 6 5 21 11 25 7-5 0-8 12-8 15 0 16 5 15-13 1-17-11-66-31-101-19-23-25 9-37 27z" class="fil3"/></g><ellipse id="path4425" rx="124.26" ry="130.73" cy="481.17" cx="1306.8" fill="#fff"/><ellipse id="path4427" rx="33.653" ry="72.483" cy="518.71" cx="682.91" fill="#fff"/><g id="g4347" fill="#25aae3"><path id="path15" d="m705 498c0 53 17 85 36 130 3 5 5 10 7 15 5 10 9 20 14 30 7 17 18 48 22 67 3 13 5 24 5 40 0 22-7 38 16 61 7 7 12 12 21 18 23 18 46 34 77 41s31-8 41-13 62 11 82-22c8-15 7-37 20-53 21-26 53-15 73-35 14-14-7-41 40-69 18-11 35 1 43-30 4-15 4-44 13-60 10-18 32 2 26-43-2-18-17-34-29-43l-38-35c-6-6-13-10-19-16-2-3-2-2-5-4-29-23-65-56-95-79-7-5-13-10-20-15-33-24-52-43-90-56-50-16-103 5-141 38-24 21-31 28-51 51-3 3-3 4-6 7-4 5-7 9-10 13-4 5-7 8-11 13-11 13-21 26-21 49z" class="fil3"/><path id="path17" d="m419 327c0 15 2 34 2 43l103 73c21 16 44 31 67 45 6 3 8 4 15 7 30 12 62 14 83-15 5-8 7-14 11-24 8-23 27-42 43-59 4-3 5-5 9-8s6-5 10-8c6-5 11-10 19-16 6-5 12-9 19-14 24-16 35-25 67-36 4-1 8-2 12-4s8-3 9-8c2-20-43-66-58-78l-37-32c-21-20-125-100-153-121l-58-44c-6-3-36-27-41-28l-23 33c-24 36-32 54-50 90-28 57-49 137-49 204z" class="fil3"/><path id="path19" d="m582 925c4-4 3-7 4-13 3-11 11-32 25-27 8 3 14 11 20 17l8 8c14 12 30 2 38-7 18-20 10-88 30-88 38 0 73 11 64-50-3-19-7-32-12-49-2-7-5-15-7-22-3-8-5-15-8-23l-8-22c-7-20-16-45-26-64-11-22-37-55-66-55-45 0-20 21-50 82-9 19-11 16-20 41-15 37-10 54-14 79-1 8 2 47 3 57 1 11 2 18 3 28l3 27c1 9 2 19 3 28 2 8 1 21 2 29 1 9 2 20 8 24z" class="fil3"/><path id="path21" d="m1009 905c-18 0-23-7-46-7-8 0-10 17-10 24 0 11 30 53 38 66 5 9 34 59 47 59s14-41 33-55c13-9 28 5 47 5 18 0-14-60-20-74-7-16-36-78-49-78-12 0-8 32-10 40-3 11-15 20-30 20z" class="fil3"/><path id="path23" d="m1136 762c0 20 10 38-10 42-5 1-18-1-27-1-10 0-21 9-21 19 0 20 25 53 38 63 16 12 39 45 59 45 14 0 13-30 20-51 1-2 2-6 4-7 10-10 25 3 45 3 23 0-57-115-91-127-8-3-17 6-17 14z" class="fil3"/><path id="path25" d="m1212 953c-16 0-13-14-27-16-15-3-5 20-3 25 2 7 3 13 5 20 4 14 8 27 12 41l13 39c2 4 5 13 9 16 2 3 12 8 18 8 15 0 22-21 27-33 9-24 21-11 44-16 4-14-4-32-9-46l-23-67c-20-54-45-46-44-1 0 11 0 16-5 22-3 4-10 8-17 8z" class="fil3"/><path id="path27" d="m620 965c-21 0-17-19-29-27-24 17 3 25 15 54 11 29 61 137 100 105 3-3 7-9 9-14l5-29c0-6-1-5-2-11-1-26-19-104-37-122-6-6-10-6-24 0-8 4-1 10-9 26-5 8-16 18-28 18z" class="fil3"/><path id="path29" d="m1210 655c0 13 5 17 5 42 0 22-47 0-47 32 0 16 32 52 45 62 11 9 33 33 53 33 13 0 14-34 17-46 4-25 11-21 26-23 9-1 14-4 8-13-8-11-35-36-47-46-5-5-7-8-13-13-12-10-18-17-36-29-5-3-4-3-11-3v4z" class="fil3"/><path id="path31" d="m1085 1050c-13 0-17-7-23-7-13 0-19 19-10 37 2 4 4 9 5 14 7 18 14 42 20 59 2 5 4 9 6 14 1 1 3 5 4 6 8 9 11-9 17-20 11-21 23-16 46-15 18 1 18-1 18-14 0-12-21-83-25-95-16-46-30 1-37 12-4 5-13 9-21 9z" class="fil3"/><path id="path33" d="m1293 841c-22 0-30-22-8 56 4 17 10 36 19 49 6 8 11 10 22 6 10-3 10-13 13-22 5-8 11-9 22-11 7-1 9-1 12-5 15-15-7-75-11-87-4-9-8-18-14-27-5-10-12-20-23-20-9 0-17 38-21 48-2 4-7 13-11 13z" class="fil3"/><path id="path35" d="m1246 582c0 3 3 13 4 17 13 40-8 9-24 22-7 6-8 12-3 19 1 2 3 4 5 6l11 10 6 4c10 10 22 20 32 31 6 7 19 25 31 25 10 0 1-21 1-32 0-5 7-6 12-6-4 4-10 3-8 18 1 6 3 20 8 20 13 0 16-27 7-36l-5-3c7 0 15-3 17-9 4-9-13-22-19-30l-36-42c-5-7-6-8-13-13-8-7-9-10-20-10-4 0-6 6-6 9z" class="fil3"/><path id="path37" d="m1124 1175c-9 0-13-2-17 1-14 9 3 32 7 39 6 9 11 16 17 24 10 14 29 35 46 36 7 0 15-4 21-15 15-29 0-116-26-118-6 5-4 6-8 11-3 3-8 8-11 10-6 5-18 12-29 12z" class="fil3"/><path id="path39" d="m1282 1076c-2 7-12 14-20 15-12 4-19-2-29 3-4 13 2 23 7 33 8 17 22 39 40 48 23 11 47 5 55-22 7-26-10-67-23-86-16-25-20 3-30 9z" class="fil3"/><path id="path41" d="m1336 976c-7 0-9-16-25-12 0 3-1 2-1 5 0 14 18 61 34 77 4 3 6 5 11 8 21 11 48-4 48-36 0-27-6-47-14-73-1-3-2-6-2-9-2-6-1-6-4-10-10 3-13 21-19 30-4 6-17 20-28 20z" class="fil3"/><path id="path43" d="m596 910c0 19 4 49 26 49 42 0-3-61-9-65-9-7-17 6-17 16z" class="fil3"/><path id="path45" d="m1194 907c0 22 37 66 37 0 0-6-1-15-3-20-1-3-2-6-4-8-12-16-30 10-30 28z" class="fil3"/><path id="path47" d="m1384 821c-10 14-20-17-3 50 2 8 2 12 8 17 7-1 12-7 14-12 2-4 3-9 3-14v-10c0-6-2-16-3-21-8-26-13-14-19-10z" class="fil3"/><path id="path49" d="m1065 1011c0 8 8 33 21 33 7 0 15-4 18-7 8-9-1-42-21-42-4 0-8 0-12 6-2 2-6 8-6 10z" class="fil3"/><path id="path51" d="m1284 798c0 5-1 32 6 32 19 0 22-53 11-64-12-13-17 20-17 32z" class="fil3"/><path id="path53" d="m1109 1156c0 7 10 24 35 8 14-9 6-25-11-25-10 0-24 8-24 17z" class="fil3"/><path id="path55" d="m1331 968c0 13 29-12 29-35 0-4-2-6-4-8-14 3-25 35-25 43z" class="fil3"/><path id="path57" d="m1282 1076c1-4 2-5 3-8s3-9 3-10c0-6-1-17-7-17-12 3-18 30-11 43 7-1 7-4 12-8z" class="fil3"/><path id="path59" d="m1384 821c2-7 1-7-2-12-6 1-9 3-9 10 5 2 4 2 11 2z" class="fil3"/><path id="path92" d="m1326 721c-5 0-21-10-2 29 6 13 8 23 21 32 5 4 7 4 11 9 5 6 5 21 11 25 7-5 0-8 12-8 15 0 16 5 15-13 1-17-11-66-31-101-19-23-25 9-37 27z" class="fil3"/></g><path id="path10" d="m294 1043-187 115-15-24 152-93-118-12 43-111-152 93-15-23 188-115 15 25-42 109 116 11 15 25zm-41 241-20-19 17-18c-21 7-39 2-56-13-16-15-24-34-25-55 0-22 6-40 21-56 14-15 32-23 54-24 21 0 40 7 56 22 17 15 22 34 18 54l11-11 20 18-96 102zm23-64 15-17c6-8 8-18 8-28 0-15-5-27-15-36s-23-14-37-13c-14 0-26 6-37 17-10 10-15 23-14 37 0 14 5 26 15 36 10 9 23 14 37 13 10 0 20-3 28-9zm99 11-60 85-23-16 80-114 23 16c7-2 16 2 28 10 14 10 23 23 26 38 2 15-1 29-10 42l-52 74-23-15 52-74c6-8 7-16 6-25-2-9-6-16-13-20-6-5-14-7-22-5-5 0-9 2-12 4zm145 39-65 123-24-12 65-124 24 13zm9-46c5 2 8 6 10 11 1 5 1 9-1 13s-6 7-11 9c-5 1-10 1-15-2s-8-7-10-11c-1-5-1-10 1-14s6-7 11-8c5-2 10-1 15 2zm45 67 23-49 25 11-24 49 24 12-10 21-24-11-49 104-25-11 49-105-23-11 10-21 24 11zm165 206-26-8 8-24c-17 15-35 18-56 11s-37-20-46-39c-10-20-12-39-5-59s20-35 39-44c19-10 40-11 61-4s33 21 38 42l5-16 26 9-44 132zm-6-68 7-21c1-10 0-20-5-29-7-13-16-22-29-26-13-5-26-4-39 3-13 6-21 17-26 31s-4 27 2 40c7 13 16 21 29 26 13 4 26 3 39-3 10-5 17-12 22-21zm97 14c-9-8-15-14-18-19-6-9-7-18-5-27 2-10 7-17 16-23 8-6 18-8 29-5 11 2 18 7 24 15 5 8 7 16 5 24l-1 5-26 4c1-11 1-18-1-21-2-2-4-3-6-4-3-1-5 0-8 2s-5 4-6 8c0 4 0 7 2 11 2 2 5 5 10 11 10 8 17 16 21 22 7 10 9 20 6 32-2 11-8 21-19 27-10 7-21 9-34 7-13-3-23-10-29-20-7-10-9-22-6-35l28-1c-2 12-2 20 1 24 3 5 6 7 11 8 4 1 9 0 13-3 5-3 8-7 9-13 1-5 0-11-3-15-2-3-6-8-13-14zm288-116 28 1-9 155c-3 17-11 32-24 43-16 14-34 20-55 19s-39-10-52-25c-14-15-20-33-19-53l8-147 28 1-9 147c-1 14 4 27 13 37s20 15 32 16c13 1 25-3 35-13 10-9 15-20 16-34l8-147zm84 114 6 104-28 1-8-139 28-1c4-6 14-9 28-10 18-1 32 4 44 14 11 10 17 23 18 39l6 91-28 1-5-90c0-9-4-17-11-23-7-5-14-8-22-8-8 1-15 4-21 10-4 4-6 8-7 11zm150-47 18 138-27 4-18-139 27-3zm-20-43c6-1 11 0 15 3s6 7 7 12c1 4-1 8-4 13-3 4-7 6-13 7s-11-1-15-4-6-7-7-11c0-5 1-9 4-13s8-7 13-7zm235 146-27 6-5-24c-7 20-21 33-43 38-22 4-42 0-60-11-18-12-29-28-33-49-5-20-1-40 11-58s28-29 50-34c22-4 40 1 54 17l-19-94 27-6 45 215zm-40-55-5-22c-4-10-10-17-19-23-12-8-25-11-38-8s-24 11-32 23-10 25-7 40c3 14 11 25 23 33s24 10 38 7c13-2 24-10 32-22 5-9 8-18 8-28zm225-4-26 10-9-23c-3 21-15 36-36 44-21 7-41 7-61-2s-33-23-40-43c-8-19-7-39 2-59 9-19 23-33 44-41s40-5 56 8l-5-15 25-10 50 131zm-48-49-8-21c-5-8-13-15-22-19-14-6-27-7-39-2-13 5-23 14-28 27-6 13-6 26-1 40s14 24 27 30 26 6 39 2c13-5 22-14 28-28 4-9 6-19 4-29zm90-42c-12-1-20-2-25-4-10-3-17-10-22-18-4-9-4-19-1-28 4-10 11-17 20-22 10-5 20-6 29-2 9 3 15 8 19 16l2 4-18 19c-7-9-11-15-14-16-2-1-5-1-7 0-3 2-4 4-6 7-1 3 0 6 1 10 2 3 4 6 8 7 2 1 7 2 15 3 13 0 23 2 30 4 11 5 19 12 24 22 5 11 6 22 2 34-5 11-12 20-24 26-12 5-24 6-35 2-12-4-20-12-26-24l22-18c5 10 10 17 15 18 5 2 9 2 14 0 4-2 7-5 9-10 1-5 1-11-2-16-2-5-6-9-11-11-4-1-10-2-19-3z" fill-rule="nonzero" class="fil0" fill="#e92a6f"/><path id="1" d="m1870 1135 126 179-22 16-127-179 23-16zm151 128c5-4 10-5 15-4 5 0 9 2 12 6 2 4 3 8 3 13-1 5-3 9-8 13-5 3-9 5-14 4-6 0-10-2-12-6-3-4-4-8-4-13 1-5 4-10 8-13zm55-149-56-25 27 55 29-30zm-81-66 213 95-20 21-89-40-41 43 42 88-20 20-102-210 17-17zm211 57c3-5 7-7 12-8s10-1 13 2c4 3 7 7 7 12 1 5 0 10-3 14-3 5-8 8-13 9s-9 0-13-3c-4-2-6-6-7-11s0-10 4-15zm22-80 61 37-14 24-188-115 33-53c12-15 26-24 43-28 20-5 38-2 55 9 17 10 28 25 33 45s2 39-9 58l-14 23zm-106-65 85 52 14-23c7-11 9-23 6-36s-11-23-23-31c-12-7-25-9-38-6s-23 10-30 21l-14 23zm184 26c2-5 6-9 11-11 4-1 9-1 13 1 4 1 7 5 9 10s1 10-1 15-6 8-11 10-9 2-13 0-7-5-9-10-2-10 1-15z" fill-rule="nonzero" class="fil1" fill="#25aae3"/><path id="2" stroke-linejoin="round" d="m294 1043-187 115-15-24 152-93-118-12 43-111-152 93-15-23 188-115 15 25-42 109 116 11 15 25zm-41 241-20-19 17-18c-21 7-39 2-56-13-16-15-24-34-25-55 0-22 6-40 21-56 14-15 32-23 54-24 21 0 40 7 56 22 17 15 22 34 18 54l11-11 20 18-96 102zm23-64 15-17c6-8 8-18 8-28 0-15-5-27-15-36s-23-14-37-13c-14 0-26 6-37 17-10 10-15 23-14 37 0 14 5 26 15 36 10 9 23 14 37 13 10 0 20-3 28-9zm99 11-60 85-23-16 80-114 23 16c7-2 16 2 28 10 14 10 23 23 26 38 2 15-1 29-10 42l-52 74-23-15 52-74c6-8 7-16 6-25-2-9-6-16-13-20-6-5-14-7-22-5-5 0-9 2-12 4zm145 39-65 123-24-12 65-124 24 13zm9-46c5 2 8 6 10 11 1 5 1 9-1 13s-6 7-11 9c-5 1-10 1-15-2s-8-7-10-11c-1-5-1-10 1-14s6-7 11-8c5-2 10-1 15 2zm45 67 23-49 25 11-24 49 24 12-10 21-24-11-49 104-25-11 49-105-23-11 10-21 24 11zm165 206-26-8 8-24c-17 15-35 18-56 11s-37-20-46-39c-10-20-12-39-5-59s20-35 39-44c19-10 40-11 61-4s33 21 38 42l5-16 26 9-44 132zm-6-68 7-21c1-10 0-20-5-29-7-13-16-22-29-26-13-5-26-4-39 3-13 6-21 17-26 31s-4 27 2 40c7 13 16 21 29 26 13 4 26 3 39-3 10-5 17-12 22-21zm97 14c-9-8-15-14-18-19-6-9-7-18-5-27 2-10 7-17 16-23 8-6 18-8 29-5 11 2 18 7 24 15 5 8 7 16 5 24l-1 5-26 4c1-11 1-18-1-21-2-2-4-3-6-4-3-1-5 0-8 2s-5 4-6 8c0 4 0 7 2 11 2 2 5 5 10 11 10 8 17 16 21 22 7 10 9 20 6 32-2 11-8 21-19 27-10 7-21 9-34 7-13-3-23-10-29-20-7-10-9-22-6-35l28-1c-2 12-2 20 1 24 3 5 6 7 11 8 4 1 9 0 13-3 5-3 8-7 9-13 1-5 0-11-3-15-2-3-6-8-13-14zm288-116 28 1-9 155c-3 17-11 32-24 43-16 14-34 20-55 19s-39-10-52-25c-14-15-20-33-19-53l8-147 28 1-9 147c-1 14 4 27 13 37s20 15 32 16c13 1 25-3 35-13 10-9 15-20 16-34l8-147zm84 114 6 104-28 1-8-139 28-1c4-6 14-9 28-10 18-1 32 4 44 14 11 10 17 23 18 39l6 91-28 1-5-90c0-9-4-17-11-23-7-5-14-8-22-8-8 1-15 4-21 10-4 4-6 8-7 11zm150-47 18 138-27 4-18-139 27-3zm-20-43c6-1 11 0 15 3s6 7 7 12c1 4-1 8-4 13-3 4-7 6-13 7s-11-1-15-4-6-7-7-11c0-5 1-9 4-13s8-7 13-7zm235 146-27 6-5-24c-7 20-21 33-43 38-22 4-42 0-60-11-18-12-29-28-33-49-5-20-1-40 11-58s28-29 50-34c22-4 40 1 54 17l-19-94 27-6 45 215zm-40-55-5-22c-4-10-10-17-19-23-12-8-25-11-38-8s-24 11-32 23-10 25-7 40c3 14 11 25 23 33s24 10 38 7c13-2 24-10 32-22 5-9 8-18 8-28zm225-4-26 10-9-23c-3 21-15 36-36 44-21 7-41 7-61-2s-33-23-40-43c-8-19-7-39 2-59 9-19 23-33 44-41s40-5 56 8l-5-15 25-10 50 131zm-48-49-8-21c-5-8-13-15-22-19-14-6-27-7-39-2-13 5-23 14-28 27-6 13-6 26-1 40s14 24 27 30 26 6 39 2c13-5 22-14 28-28 4-9 6-19 4-29zm90-42c-12-1-20-2-25-4-10-3-17-10-22-18-4-9-4-19-1-28 4-10 11-17 20-22 10-5 20-6 29-2 9 3 15 8 19 16l2 4-18 19c-7-9-11-15-14-16-2-1-5-1-7 0-3 2-4 4-6 7-1 3 0 6 1 10 2 3 4 6 8 7 2 1 7 2 15 3 13 0 23 2 30 4 11 5 19 12 24 22 5 11 6 22 2 34-5 11-12 20-24 26-12 5-24 6-35 2-12-4-20-12-26-24l22-18c5 10 10 17 15 18 5 2 9 2 14 0 4-2 7-5 9-10 1-5 1-11-2-16-2-5-6-9-11-11-4-1-10-2-19-3z" class="fil2 str0" stroke="#e92a6f" stroke-linecap="round" stroke-width="4.7994" fill="none"/><path id="3" stroke-linejoin="round" d="m1870 1135 126 179-22 16-127-179 23-16zm151 128c5-4 10-5 15-4 5 0 9 2 12 6 2 4 3 8 3 13-1 5-3 9-8 13-5 3-9 5-14 4-6 0-10-2-12-6-3-4-4-8-4-13 1-5 4-10 8-13zm55-149-56-25 27 55 29-30zm-81-66 213 95-20 21-89-40-41 43 42 88-20 20-102-210 17-17zm211 57c3-5 7-7 12-8s10-1 13 2c4 3 7 7 7 12 1 5 0 10-3 14-3 5-8 8-13 9s-9 0-13-3c-4-2-6-6-7-11s0-10 4-15zm22-80 61 37-14 24-188-115 33-53c12-15 26-24 43-28 20-5 38-2 55 9 17 10 28 25 33 45s2 39-9 58l-14 23zm-106-65 85 52 14-23c7-11 9-23 6-36s-11-23-23-31c-12-7-25-9-38-6s-23 10-30 21l-14 23zm184 26c2-5 6-9 11-11 4-1 9-1 13 1 4 1 7 5 9 10s1 10-1 15-6 8-11 10-9 2-13 0-7-5-9-10-2-10 1-15z" class="fil2 str1" stroke="#25aae3" stroke-linecap="round" stroke-width="4.7994" fill="none"/><g id="_485857242880"><g id="g62"><path id="path64" stroke-linejoin="round" d="m1363 212c-83 0-123 15-190 42-13 5-25 10-37 16-13 7-20 12-30 23l-21 18c-29 27-110 88-140 110l-31 22c-27 18-54 35-80 54-25 18-30 47 5 60 29 11 66 10 97 4 36-7 66-21 96-40 24-16 62-45 94-45 44 0 81 20 161 20 54 0 95-15 135-43 3-2 5-4 8-7 6-4 20-19 24-21 0 14-2 22-7 32-29 60-125 79-190 79 4 6 10 12 15 17l75 71c19 14 24 26 32 51 14 41 23 85 36 127l16 49c1 4 2 7 4 12 2 4 4 8 5 12 9-2 39-26 48-33l83-64c4-4 8-7 12-10 3-3 7-6 11-9l34-29c4-4 6-7 10-10 2-2 3-2 5-5 3-1 4-3 6-5 9-9 18-17 26-26 11-14 23-27 32-41 20-30 43-76 43-125 7-2 32-21 39-27l78-55c9-6 48-31 52-36s5-53 5-62c0-86-14-150-43-216-2-4-3-5-5-9-3-6-6-11-10-17l-23-32c-2-4-3-4-6-8l-13-14c-3-3-4-3-7-6-5-5-10-9-16-13-49 33-97 70-146 102-9 6-16 12-25 18l-48 33c-9 7-17 12-25 18l-49 34c-6 4-23-2-31-4-12-2-25-4-36-5-24-4-51-7-78-7z" class="fil4 str2" stroke="#fefefe" stroke-linecap="round" stroke-width="29.996" fill="none"/><path id="path66" d="m1363 212c-83 0-123 15-190 42-13 5-25 10-37 16-13 7-20 12-30 23l-21 18c-29 27-110 88-140 110l-31 22c-27 18-54 35-80 54-25 18-30 47 5 60 29 11 66 10 97 4 36-7 66-21 96-40 24-16 62-45 94-45 44 0 81 20 161 20 54 0 95-15 135-43 3-2 5-4 8-7 6-4 20-19 24-21 0 14-2 22-7 32-29 60-125 79-190 79 4 6 10 12 15 17l75 71c19 14 24 26 32 51 14 41 23 85 36 127l16 49c1 4 2 7 4 12 2 4 4 8 5 12 9-2 39-26 48-33l83-64c4-4 8-7 12-10 3-3 7-6 11-9l34-29c4-4 6-7 10-10 2-2 3-2 5-5 3-1 4-3 6-5 9-9 18-17 26-26 11-14 23-27 32-41 20-30 43-76 43-125 7-2 32-21 39-27l78-55c9-6 48-31 52-36s5-53 5-62c0-86-14-150-43-216-2-4-3-5-5-9-3-6-6-11-10-17l-23-32c-2-4-3-4-6-8l-13-14c-3-3-4-3-7-6-5-5-10-9-16-13-49 33-97 70-146 102-9 6-16 12-25 18l-48 33c-9 7-17 12-25 18l-49 34c-6 4-23-2-31-4-12-2-25-4-36-5-24-4-51-7-78-7z" fill="#e92a6f" class="fil5"/></g><g id="g68"><path id="path70" d="m933 981-30-18 2-3 3-2 2-3 3-2 3-3 2-2 3-2 3-2 2-3 3-2 3-2 3-2 2-1 3-2 3-2 3-2 2-2 3-2 3-2 3-1 3-2 3-2 3-2 3-2 3-1 3-2 3-2 3-2 3-2 4-2 3-2 3-2 4-3 20 28-4 3-3 2-4 2-3 2-3 2-4 2-3 2-3 2-3 2-3 2-3 2-3 1-2 2-3 2-3 2-3 1-2 2-3 2-2 1-3 2-2 2-3 1-2 2-2 2-3 2-2 2-2 1-2 2-3 2-2 2-2 3-2 2 2-3zm-2 3c-7 6-19 7-26 0-7-6-7-17 0-24l26 24zm27 39 17 30-5 2-5 2-5 1h-5-5l-5-1-4-1-5-1-4-2-4-2-4-3-3-2-4-3-3-4-3-3-3-3-2-4-3-4-2-4-2-4-1-4-2-4-1-5-1-4v-5-5-4l1-5 1-5 2-4 2-5 3-4 30 18-1 2-1 1-1 2v2 1l-1 2v2l1 2v3l1 2v2l1 2 1 3 1 2 2 2 1 2 2 2 1 2 2 1 2 2 1 1 2 1 1 1h2l1 1h1 1 1 1 1 1l1-1zc8-4 19-1 24 7s2 18-7 23l-17-30zm102-59 29 20-2 2-3 3-4 3-3 3-3 3-4 2-3 3-3 2-4 3-3 2-4 2-3 2-4 2-4 3-3 2-4 2-3 2-4 1-4 2-3 2-4 2-3 2-4 2-4 2-3 1-4 2-3 2-4 1-3 2-4 2-3 2-4 1-3 2-17-30 4-2 3-1 4-2 3-2 4-2 3-1 4-2 3-2 4-2 3-1 4-2 3-2 4-2 3-1 4-2 3-2 3-2 4-2 3-1 3-2 3-2 3-2 3-2 3-2 3-2 3-2 3-2 3-3 3-2 3-2 2-2 3-3-2 2zm2-2c7-6 18-6 25 0 7 7 7 18 0 24l-25-24zm-44-39-20-28 3-1 7-3 7-3 8-2 7-2 6-1 7-1 7-1h6 6 6l6 1 5 1 6 2 5 3 5 3 5 3 4 4 3 5 3 5 2 5 1 5 1 6v6l-1 5-1 6-2 6-2 6-3 6-3 6-4 7-4 6-5 6-29-20 4-5 3-5 3-5 3-4 2-5 1-3 1-4 1-3v-2-2-2-2l-1-1v-1h-1l-1-1-1-1-1-1h-2l-2-1-2-1h-3-3-4-4-5l-5 1-5 1-5 2-6 1-6 3-6 2 3-2zm-3 2c-9 4-20 0-24-9s1-19 10-22l14 31z" fill-rule="nonzero" class="fil6" fill="#fefefe"/><path id="path72" d="m1008 909c-38 25-64 37-90 63-22 31 18 83 48 66 38-19 78-35 108-64 50-64 8-95-66-65z" fill="#e92a6f" class="fil5"/></g><g id="g74"><path id="path76" d="m1012 1058-27-21 3-2 2-3 3-2 3-2 3-2 3-2 3-1 4-2 3-2 3-2 4-1 4-2 3-2 4-1 3-2 4-1 3-1 4-2 4-1 3-1 4-1 3-1 3-1 3-1h4l3-1 3-1h3 3l3-1h3l3 1-4 30h-1-1-2l-2 1h-2l-2 1h-3l-2 1-3 1-3 1-3 1-3 1-3 1-3 1-3 1-3 1-3 2-3 1-3 2-3 1-3 1-3 2-3 1-2 2-2 1-3 2-2 1-1 1-2 2-1 1zc-7 6-18 6-26 0-7-5-8-15-1-21l27 21zm15 39 11 29h-3l-5 1-5-1h-5l-4-1-4-2-4-2-4-2-4-2-3-2-3-3-3-3-3-3-2-3-3-3-2-3-1-3-2-4-2-3-1-4-1-3v-4l-1-3v-4-4-3l1-4v-4l2-3 1-4 2-3 3-4 3-3 27 21h-1v1l-1 1-1 1v1 2l-1 1v2 2 2l1 1v2l1 2v2l1 2 1 2 1 2 1 1 1 2 2 2 1 1 1 1 2 1 1 1 1 1 1 1h1l2 1h1 1 1 1l-4 1zm4-1c9-1 18 5 19 14 2 8-5 16-15 16l-4-30zm70-28 21 25 4-3-2 2-2 2-2 1-2 2-2 1-2 2-2 1-3 1-2 1-2 2-3 1-2 1-3 1-3 1-2 1-3 1-3 1-3 1-3 1-3 1-3 1-3 1-3 1-3 1-3 1-4 1-3 1h-3l-4 1-3 1-3 1-4 1-11-29 4-1 3-1 3-1 3-1 4-1 3-1h3l3-1 3-1 3-1 2-1 3-1 3-1h2l3-1 2-1 3-1 2-1 2-1 2-1h2l2-1 2-1 1-1 1-1h2l1-1 1-1h1v-1h1v-1l4-3zm-4 3c6-6 17-7 25-2s10 15 4 21l-29-19zm-12-44 4-30h-6l6-1h5 6 6l5 1 5 1 5 2 5 2 4 2 4 3 4 3 3 4 3 3 2 4 2 4 2 4 1 4 1 4 1 5v4l-1 4v4l-2 5-1 4-2 4-2 4-3 4-3 4-4 4-4 4-4 3-5 3-21-25 2-2 3-1 2-2 2-3 2-2 1-2 1-2 1-2 1-2v-2l1-2v-2-2-2l-1-1v-2l-1-1v-2l-1-1-1-1-1-1-1-1-1-1-2-1h-1l-2-1h-1l-2-1h-3-2-3l-3 1h-6zm6 0c-10 1-19-4-21-12-3-8 3-16 13-18l8 30z" fill-rule="nonzero" class="fil6" fill="#fefefe"/><path id="path78" d="m1087 1012c-15-2-69 17-89 35-20 20 3 67 35 64 36-9 68-19 78-30 42-27 24-78-24-69z" fill="#e92a6f" class="fil5"/></g><g id="g80"><path id="path82" d="m856 878-22-24h-1l4-2 4-3 4-3 5-4 6-3 5-4 7-4 6-4 7-5 7-4 8-4 7-4 8-4 8-4 8-3 8-4 8-3 9-3 8-2 8-2 8-2 8-1h9 8l8 2 8 2 8 4 7 4 6 6 5 7 4 7 3 9-35 7-2-5-1-4-2-2-2-2-2-2-3-1h-3l-3-1h-4-5l-5 1-6 1-6 1-7 2-7 3-7 2-7 3-7 3-7 4-7 3-7 4-7 4-7 4-6 4-6 4-6 3-6 4-5 3-4 4-4 3-4 2-3 2-1 1zm1-1c-7 6-19 6-25-1-7-6-6-16 1-22l24 23zm21 68 18 26-3 1-6 2h-6-5l-5-1-6-1-5-2-5-1-4-3-5-2-5-3-4-3-4-3-4-4-4-4-4-4-4-4-3-4-3-5-2-5-2-5-2-6-1-5v-6-6l1-5 2-6 3-6 3-6 4-5 5-5 6-5 6-5 22 24-4 3-3 3-3 3-2 3-2 2-1 3-1 3v2 3 3l1 2v3l1 3 2 3 2 2 1 3 3 3 2 2 3 3 2 2 3 2 3 2 3 2 3 2 2 1 3 1 2 1h2 2 1l-3 2zm3-2c10-2 20 2 23 10s-2 17-11 19l-12-29zm128-80 34 11-3 4-2 3-3 3-4 3-3 3-4 3-3 3-4 3-4 3-4 3-5 3-4 3-5 4-4 3-5 3-5 3-5 3-5 3-5 3-5 3-5 3-5 3-5 3-5 3-6 3-5 2-5 3-5 3-5 2-5 3-4 2-5 3-5 2-18-26 5-3 4-2 5-2 5-3 4-2 5-3 5-3 5-2 5-3 5-3 5-3 5-3 5-3 5-2 5-3 4-3 5-3 4-3 5-3 4-3 5-3 4-3 4-2 3-3 4-3 3-2 4-3 3-3 2-2 3-2 2-3 2-2-3 4zm3-4c6-6 17-8 25-3 8 6 9 15 3 22l-28-19zm3-29 35-7v1l1 2v2 2l1 2v2 2 2 2 1l-1 2v2 2 1 2l-1 2v1l-1 2v2 1l-1 2v1l-1 2v1l-1 1v2l-1 1v1l-1 2v1l-1 1v1l-34-11 1-1 1-1v-1-1l1-2v-1-1l1-1v-1-1l1-1v-1-1l1-2v-1-1-1l1-1v-1-1-1-2-1-1-1-1-1-1l-1-1v-1zc-2-9 4-17 13-19 10-2 20 3 22 12l-35 7z" fill-rule="nonzero" class="fil6" fill="#fefefe"/><path id="path84" d="m1033 826c-21-74-157 16-188 40-60 41 12 101 42 92 48-24 115-62 139-89 5-11 11-28 7-43z" fill="#e92a6f" class="fil5"/></g><g id="g86"><path id="path88" d="m777 787-25-25v1l3-3 3-3 3-4 4-3 5-4 4-4 5-4 5-4 5-5 6-4 6-4 6-4 6-4 6-4 6-4 7-3 6-3 7-3 7-3 6-2 7-1 8-1 7-1 7 1 7 1 8 3 6 3 7 5 5 6 5 6 4 7 3 8-34 11-2-5-2-3-2-3-2-2-1-2-2-1h-2l-3-1h-3-3l-4 1-4 1-4 1-5 2-5 2-5 3-6 2-5 4-5 3-6 3-5 4-5 4-5 4-5 3-5 4-4 4-4 4-4 3-4 4-3 3-3 2-2 3-1 1zm1-1c-7 7-18 7-26 1-7-7-7-18 0-24l26 23zm22 65 21 28-3 2-6 1-5 1h-5-5l-5-1-5-1-5-2-5-2-4-2-5-3-4-3-4-3-4-3-4-4-4-4-4-4-3-4-3-5-3-5-2-5-2-5-1-6-1-6v-6-6l1-6 2-6 3-7 3-5 4-6 5-6 5-5 25 25-3 3-3 3-2 3-2 3-1 3-1 2v3l-1 2 1 3v3l1 2 1 3 1 3 1 2 2 3 2 3 2 2 2 3 3 2 2 2 3 2 3 2 2 1 3 2 3 1h2l2 1h1 2 1l-4 2zm4-2c9-3 19 1 23 9 4 9 0 19-9 23l-14-32zm92-77 35 9-3 5-2 3-2 3-3 3-2 3-3 3-2 3-3 3-3 3-3 3-3 3-3 3-3 3-4 3-3 3-3 3-4 3-3 3-4 3-4 3-3 3-4 3-4 2-4 3-4 3-3 3-4 3-4 2-4 3-4 3-4 3-4 2-4 3-21-28 4-2 4-3 4-3 4-2 4-3 3-3 4-2 4-3 3-3 4-2 4-3 3-3 4-2 3-3 3-3 4-2 3-3 3-3 3-2 3-3 3-3 3-2 2-3 3-3 2-2 3-3 2-2 2-3 2-2 2-3 2-2 1-2-2 4zm2-4c6-8 17-10 25-5s11 15 5 23l-30-18zm0-29 34-11 1 2v2l1 2v2l1 2v2 2 2 2l1 2v1 2 2l-1 2v2 1 2 2 1l-1 2v1 2l-1 1v2 1 2l-1 1v1 2l-1 1v1 1l-35-9 1-1v-1-2-1l1-1v-1-1-1l1-1v-1-1-1-2-1l1-1v-1-1-1-1-1-2-1-1-1-1l-1-1v-1-1-1l-1-1zc-3-9 2-19 12-21 9-3 19 1 22 10l-34 11z" fill-rule="nonzero" class="fil6" fill="#fefefe"/><path id="path90" d="m915 734c-25-73-124 14-150 40-51 46 19 102 46 91 41-28 83-59 102-88 3-11 7-29 2-43z" fill="#e92a6f" class="fil5"/></g></g></g></svg>
