<?xml version="1.0" encoding="UTF-8" standalone="no"?>
<!-- Created with Inkscape (http://www.inkscape.org/) -->

<svg
   xmlns:dc="http://purl.org/dc/elements/1.1/"
   xmlns:cc="http://creativecommons.org/ns#"
   xmlns:rdf="http://www.w3.org/1999/02/22-rdf-syntax-ns#"
   xmlns:svg="http://www.w3.org/2000/svg"
   xmlns="http://www.w3.org/2000/svg"
   xmlns:sodipodi="http://sodipodi.sourceforge.net/DTD/sodipodi-0.dtd"
   xmlns:inkscape="http://www.inkscape.org/namespaces/inkscape"
   width="75.796829mm"
   height="75.796829mm"
   viewBox="0 0 268.57144 268.57144"
   id="svg2"
   version="1.1"
   inkscape:version="0.91 r"
   sodipodi:docname="more.svg">
  <defs
     id="defs4" />
  <sodipodi:namedview
     id="base"
     pagecolor="#ffffff"
     bordercolor="#666666"
     borderopacity="1.0"
     inkscape:pageopacity="0.0"
     inkscape:pageshadow="2"
     inkscape:zoom="0.98994949"
     inkscape:cx="106.77789"
     inkscape:cy="24.682719"
     inkscape:document-units="px"
     inkscape:current-layer="layer1"
     showgrid="false"
     fit-margin-top="0"
     fit-margin-left="0"
     fit-margin-right="0"
     fit-margin-bottom="0"
     inkscape:window-width="1440"
     inkscape:window-height="843"
     inkscape:window-x="1280"
     inkscape:window-y="150"
     inkscape:window-maximized="1" />
  <metadata
     id="metadata7">
    <rdf:RDF>
      <cc:Work
         rdf:about="">
        <dc:format>image/svg+xml</dc:format>
        <dc:type
           rdf:resource="http://purl.org/dc/dcmitype/StillImage" />
        <dc:title />
      </cc:Work>
    </rdf:RDF>
  </metadata>
  <g
     inkscape:label="Capa 1"
     inkscape:groupmode="layer"
     id="layer1"
     transform="translate(-48.57143,-180.93364)">
    <rect
       style="opacity:1;fill:#31a463;fill-opacity:1;stroke:none;stroke-width:3;stroke-linecap:butt;stroke-linejoin:miter;stroke-miterlimit:4;stroke-dasharray:none;stroke-opacity:1"
       id="rect4136"
       width="268.57144"
       height="268.57144"
       x="48.57143"
       y="180.93364" />
    <g
       transform="matrix(0.89810856,0,0,0.84044224,23.845696,40.03235)"
       style="font-style:normal;font-variant:normal;font-weight:normal;font-stretch:normal;font-size:68.75px;line-height:120.00000477%;font-family:Oswald;-inkscape-font-specification:'Oswald, Normal';text-align:center;letter-spacing:0px;word-spacing:0px;writing-mode:lr-tb;text-anchor:middle;fill:#ffffff;fill-opacity:1;stroke:none;stroke-width:1px;stroke-linecap:butt;stroke-linejoin:miter;stroke-opacity:1"
       id="text4138">
      <path
         d="m 143.65562,303.9379 -12.89062,-60.15625 8.59375,0 6.3446,32.22656 2.21558,15.03906 2.28271,-15.03906 6.34461,-32.22656 8.59375,0 -12.89063,60.15625 -8.59375,0 z"
         id="path4138"
         inkscape:connector-curvature="0" />
      <path
         d="m 180.6826,304.54214 q -3.12195,0 -5.43823,-1.07421 -2.28272,-1.07422 -3.65906,-2.78626 -1.34277,-1.7456 -2.182,-4.43115 -0.83924,-2.71912 -1.17493,-5.40466 -0.30213,-2.71912 -0.36926,-6.31104 -0.10071,-2.81982 0,-5.63965 0.1007,-3.35693 0.4364,-5.94177 0.36926,-2.61841 1.24206,-5.06897 0.87281,-2.45056 2.24915,-4.02832 1.40991,-1.57776 3.65906,-2.5177 2.28271,-0.97351 5.30395,-0.97351 2.75269,0 4.83398,0.73852 2.11487,0.70496 3.49122,2.18201 1.40991,1.44348 2.31628,3.22266 0.93994,1.77917 1.40991,4.33044 0.46997,2.5177 0.63782,4.96826 0.20142,2.45056 0.20142,5.63965 l 0,1.00708 -17.1875,0 0,2.14844 q 0,0.4364 0,1.37634 -0.0671,1.24207 -0.0336,2.58484 0.0671,1.3092 0.13427,2.58484 0.0671,1.27563 0.36927,2.45056 0.30212,1.14136 0.73852,2.01416 0.4364,0.8728 1.2085,1.37634 0.80566,0.50354 1.87988,0.50354 1.34277,0 2.21558,-0.50354 0.8728,-0.53711 1.27563,-1.57775 0.4364,-1.04065 0.60425,-2.0813 0.16785,-1.04065 0.20142,-2.61841 l 0,-1.81275 8.52661,0 0,1.71204 q -0.30213,6.88171 -3.39051,10.40649 -3.08837,3.52478 -9.50012,3.52478 z m -4.22973,-26.38549 8.52661,0 0,-2.58484 q -0.0336,-1.71204 -0.20142,-2.98767 -0.16785,-1.27564 -0.60425,-2.55127 -0.40283,-1.27564 -1.27563,-1.94702 -0.8728,-0.67139 -2.14844,-0.67139 -1.3092,0 -2.21558,0.70496 -0.8728,0.70495 -1.3092,2.04772 -0.40283,1.30921 -0.57068,2.58484 -0.16785,1.27564 -0.20141,3.05481 l 0,2.34986 z"
         id="path4140"
         inkscape:connector-curvature="0" />
      <path
         d="m 199.81712,303.9379 0,-42.96875 8.59375,0 0,5.74035 q 1.30921,-2.55127 3.79334,-4.43115 2.5177,-1.91345 5.57251,-1.91345 0.10071,0 1.37634,0.13428 l 0,9.50012 q -2.38342,-0.93994 -4.76684,-0.93994 -2.68555,0 -4.33045,1.61132 -1.6449,1.61133 -1.6449,4.26331 l 0,29.00391 -8.59375,0 z"
         id="path4142"
         inkscape:connector-curvature="0" />
      <path
         d="m 104.24522,386.4379 0,-60.15625 11.88355,0 8.52661,46.05713 8.52661,-46.05713 11.88355,0 0,60.15625 -8.59375,0 0,-47.46704 -8.59375,47.46704 -6.44532,0 -8.59375,-47.46704 0,47.46704 -8.59375,0 z"
         id="path4144"
         inkscape:connector-curvature="0" />
      <path
         d="m 165.07286,379.99259 q 0.90637,0 1.74561,-0.53711 0.8728,-0.53711 1.3092,-1.04065 0.4364,-0.50354 1.07422,-1.34277 0.10071,-0.16785 0.16785,-0.23499 l 0,-11.88354 q -0.53711,0.36926 -1.77918,1.14135 -1.24206,0.7721 -1.98059,1.27564 -0.73853,0.46997 -1.77917,1.34277 -1.04065,0.83923 -1.61133,1.6449 -0.57068,0.77209 -1.00708,1.91345 -0.4364,1.14136 -0.4364,2.38342 0,5.33753 4.29687,5.33753 z m -4.29687,7.04956 q -3.59192,0 -6.10962,-3.08838 -2.48413,-3.12195 -2.48413,-7.01599 0,-3.12195 1.04065,-5.67322 1.07421,-2.55127 2.24914,-4.06189 1.17493,-1.54419 3.92761,-3.15552 2.75269,-1.64489 4.1626,-2.24914 1.40991,-0.60425 4.90112,-1.98059 0.60425,-0.23499 0.90638,-0.36927 l 0,-3.08837 q 0,-3.25623 -0.90638,-5.03541 -0.90637,-1.81274 -3.3905,-1.81274 -2.21558,0 -3.18909,1.54419 -0.93994,1.51062 -1.07421,4.19617 -0.0336,0.36926 -0.0336,1.10779 l -8.59375,0 q 0.0671,-6.17676 3.45764,-9.83582 3.3905,-3.65906 9.43298,-3.65906 6.00891,0 9.43298,3.7262 3.45765,3.69263 3.45765,9.76868 l 0,19.33593 q 0,6.71387 1.10778,10.74219 l -8.56018,0 -1.14135,-6.44531 q -0.67139,1.34277 -1.10779,2.0813 -0.40283,0.73852 -1.2085,1.84631 -0.80566,1.07422 -1.61133,1.67847 -0.80566,0.57068 -2.01416,1.00708 -1.20849,0.4364 -2.65197,0.4364 z m 1.7456,-47.60132 4.29688,-12.89063 8.59375,0 -8.59375,12.89063 -4.29688,0 z"
         id="path4146"
         inkscape:connector-curvature="0" />
      <path
         d="m 196.66161,387.04215 q -5.30396,0 -8.52662,-3.15552 -3.18908,-3.15552 -4.36401,-8.19092 l 6.44531,-2.14843 q 2.31629,6.44531 6.44532,6.44531 2.04773,0 3.15551,-1.10779 1.14136,-1.14136 1.14136,-3.18909 0,-2.98767 -2.14844,-4.96826 l -8.59375,-6.44531 q -1.44348,-0.97351 -2.41699,-1.81275 -0.97351,-0.8728 -1.98059,-2.11486 -1.00708,-1.24207 -1.54419,-2.78626 -0.50354,-1.54419 -0.50354,-3.35693 0,-5.50537 3.49121,-8.42591 3.52478,-2.92053 9.39942,-2.92053 2.78625,0 5.0354,0.90637 2.24914,0.87281 3.75976,2.48413 1.54419,1.61133 2.5177,3.59192 1.00708,1.94703 1.57776,4.36402 l -6.44531,2.14844 q -0.46997,-1.27564 -0.93994,-2.18201 -0.46997,-0.93994 -1.27564,-2.01416 -0.77209,-1.07422 -1.84631,-1.6449 -1.07422,-0.60425 -2.38342,-0.60425 -2.04773,0 -3.18909,1.14136 -1.10779,1.10779 -1.10779,3.15552 0,2.01416 2.14844,3.62549 l 8.59375,6.44531 q 1.44348,1.14136 2.45056,2.21557 1.04065,1.04065 2.01416,2.45057 0.97351,1.37634 1.47705,3.08837 0.50354,1.71204 0.50354,3.65906 0,5.50537 -3.52478,8.42591 -3.49121,2.92053 -9.36584,2.92053 z"
         id="path4148"
         inkscape:connector-curvature="0" />
      <path
         d="m 213.00987,386.4379 0,-8.59375 8.59375,0 0,8.59375 -8.59375,0 z"
         id="path4150"
         inkscape:connector-curvature="0" />
      <path
         d="m 225.9005,386.4379 0,-8.59375 8.59375,0 0,8.59375 -8.59375,0 z"
         id="path4152"
         inkscape:connector-curvature="0" />
      <path
         d="m 238.79112,386.4379 0,-8.59375 8.59375,0 0,8.59375 -8.59375,0 z"
         id="path4154"
         inkscape:connector-curvature="0" />
    </g>
  </g>
</svg>
