<?xml version="1.0" encoding="UTF-8"?>
<!DOCTYPE svg PUBLIC "-//W3C//DTD SVG 1.1//EN" "http://www.w3.org/Graphics/SVG/1.1/DTD/svg11.dtd">
<!-- Creator: CorelDRAW X8 -->
<svg xmlns="http://www.w3.org/2000/svg" xml:space="preserve" width="48.4215mm" height="38.1019mm" version="1.1" style="shape-rendering:geometricPrecision; text-rendering:geometricPrecision; image-rendering:optimizeQuality; fill-rule:evenodd; clip-rule:evenodd"
viewBox="0 0 1541 1213"
 xmlns:xlink="http://www.w3.org/1999/xlink">
 <defs>
  <style type="text/css">
   <![CDATA[
    .fil0 {fill:#435A73}
    .fil3 {fill:#5E84AA}
    .fil6 {fill:#664E41}
    .fil1 {fill:#745072}
    .fil2 {fill:#849041}
    .fil4 {fill:#C44E56}
    .fil5 {fill:#E6AA7D}
    .fil7 {fill:#EEA851}
   ]]>
  </style>
    <clipPath id="id0">
     <path d="M0 2l1541 -2 0 1211 -1541 2 0 -1211z"/>
    </clipPath>
 </defs>
 <g id="Capa_x0020_1">
  <metadata id="CorelCorpID_0Corel-Layer"/>
  <g id="_810311696">
   <g style="clip-path:url(#id0)">
    <image x="0" y="0" width="1541" height="1213" xlink:href="residencias FMAC_Images\residencias FMAC_ImgID1.png"/>
   </g>
  </g>
  <g id="_808287040">
   <path class="fil0" d="M774 554c8,-13 19,-50 25,-67 12,-36 10,-12 54,-37 152,-86 88,-306 -76,-309 -189,-2 -227,265 -54,320 33,11 21,9 51,93z"/>
   <path class="fil1" d="M399 323c0,90 -8,94 81,94 11,15 27,67 32,87 1,-1 2,-3 2,-2l30 -85c45,0 56,8 82,-20 -5,-24 -19,-40 -22,-74 -7,-70 51,-59 -154,-59 -44,0 -51,16 -51,59z"/>
   <path class="fil2" d="M1117 418c25,44 49,21 110,28l21 57c11,-14 15,-50 27,-57 7,-5 36,-5 38,-46 7,-148 -8,-128 -128,-128 -113,0 -50,54 -47,80 5,37 -16,46 -21,66z"/>
   <path class="fil3" d="M303 503c2,-2 2,-2 5,-7 13,-25 8,-47 26,-55 12,-5 21,-4 36,-11 14,-7 19,-12 30,-17 -6,-22 -9,-21 -9,-50 0,-19 0,-38 0,-58 -34,-20 -64,-33 -115,-24 -38,7 -73,28 -84,58 -16,42 16,76 43,89 60,30 44,-2 68,75z"/>
   <path class="fil4" d="M947 293c-1,82 -21,82 -31,114 30,29 33,22 74,37l22 60c9,-10 13,-31 19,-48 8,-21 21,-13 43,-23 28,-13 61,-38 56,-80 -9,-70 -116,-89 -183,-60z"/>
   <path class="fil3" d="M237 760c-11,-5 -11,-9 -22,-16 -15,8 -24,16 -44,24 -38,14 -34,17 -26,84 96,18 116,25 214,0 13,-96 7,-61 -63,-103 -6,-4 0,-1 -7,-4 -11,7 -11,10 -22,15l-18 -15 -12 15z"/>
   <path class="fil2" d="M1291 739l-7 0 -7 21c-22,-4 -24,-11 -37,-18 -6,3 -53,22 -55,25 -6,5 -28,68 15,80 9,3 18,4 28,6 17,3 37,5 56,5 44,0 73,-6 110,-17 12,-80 12,-68 -59,-99 -12,7 -17,14 -36,18l-8 -21z"/>
   <path class="fil4" d="M946 945c62,23 201,24 215,-5 4,-21 1,-51 -10,-66 -10,-14 -33,-20 -51,-29 -25,13 -2,15 -44,13 -28,-2 -24,10 -47,-13 -54,19 -67,31 -63,100z"/>
   <path class="fil5" d="M704 713c-4,8 -5,38 -5,44 -1,45 14,29 33,74 11,29 7,51 6,54 0,3 -9,11 -9,14 2,67 104,78 95,3 0,-3 -10,-8 -11,-11 -2,-25 -5,-55 32,-93 7,-7 5,-1 8,-13 3,-11 5,-27 2,-36l-10 14c-5,-39 -8,-36 -19,-63 -15,4 -18,9 -34,13 -86,18 -52,-7 -84,45 -7,-14 -5,-29 -4,-45z"/>
   <path class="fil1" d="M575 859l-4 4c-14,45 -117,63 -147,-5 -33,9 -36,46 -32,85 58,20 158,27 214,-1 6,-38 1,-73 -31,-83z"/>
   <path class="fil5" d="M436 847c-6,4 -3,-7 -6,8 31,5 17,26 72,25 31,0 36,-10 51,-17 12,-6 8,-8 18,0l4 -4 -12 -10c-7,1 -20,-7 -27,-13 -45,-36 30,-67 18,-97l-12 -19c-2,4 -2,5 -3,7 -3,10 0,3 -3,8 -16,-37 -31,-25 -65,-39 -6,14 -12,26 -17,42 -8,3 3,0 -6,0 -2,0 -3,-1 -5,0 8,39 3,19 15,36 14,19 35,41 4,63 -26,19 -24,11 -26,10z"/>
   <path class="fil6" d="M436 847c2,1 0,9 26,-10 31,-22 10,-44 -4,-63 -12,-17 -7,3 -15,-36 2,-1 3,0 5,0 9,0 -2,3 6,0 5,-16 11,-28 17,-42 34,14 49,2 65,39 3,-5 0,2 3,-8 1,-2 1,-3 3,-7l12 19c12,30 -63,61 -18,97 7,6 20,14 27,13 -15,-70 -3,-57 5,-119 6,-44 -22,-84 -66,-81 -10,1 -50,13 -56,18 -13,10 -20,31 -17,55 6,47 27,54 7,125z"/>
   <path class="fil6" d="M1027 827c14,-39 -11,-30 -26,-68 -9,-22 16,-60 26,-68 25,37 58,9 71,45 16,43 -30,49 -19,91 6,4 16,18 22,6 2,-5 -4,-22 -3,-32 2,-24 18,-35 27,-54 21,-45 -16,-93 -50,-101 -62,-16 -127,57 -81,124 27,39 8,33 13,65l5 0c1,0 2,0 3,0l12 -8z"/>
   <path class="fil5" d="M1236 602c-19,37 13,72 17,82 17,36 -12,19 19,40 13,9 8,3 12,15l7 0c2,-5 -4,-10 25,-20 2,-20 3,-31 11,-45 11,-19 17,-13 15,-45 -1,2 -6,5 -7,7 -3,-19 -7,-28 -14,-41 -42,15 -12,5 -50,12 -22,4 -26,13 -35,29l0 -34z"/>
   <path class="fil5" d="M1027 827l29 16c10,-8 12,-10 23,-16 -11,-42 35,-48 19,-91 -13,-36 -46,-8 -71,-45 -10,8 -35,46 -26,68 15,38 40,29 26,68z"/>
   <path class="fil6" d="M704 713c-1,16 -3,31 4,45 32,-52 -2,-27 84,-45 16,-4 19,-9 34,-13 11,27 14,24 19,63l10 -14c0,-23 5,-50 -10,-68 -5,-7 -37,-27 -47,-30 -48,-14 -88,23 -94,62z"/>
   <path class="fil5" d="M196 646c7,51 26,21 27,84 30,7 28,6 58,0 1,-19 1,-29 9,-42 11,-20 14,-10 17,-39 -7,5 -2,-4 -5,4 -2,-19 -2,-17 -11,-31 -15,2 -25,12 -46,-4 12,-3 19,-12 23,-13 -14,7 -18,10 -37,17 -29,10 -18,18 -35,24z"/>
   <path class="fil6" d="M196 646c17,-6 6,-14 35,-24 19,-7 23,-10 37,-17 -4,1 -11,10 -23,13 21,16 31,6 46,4 9,14 9,12 11,31 3,-8 -2,1 5,-4 3,-49 0,-78 -51,-80 -52,-1 -59,31 -60,77z"/>
   <path class="fil6" d="M1236 602l0 34c9,-16 13,-25 35,-29 38,-7 8,3 50,-12 7,13 11,22 14,41 1,-2 6,-5 7,-7 0,-15 4,-33 -5,-47 -5,-6 -22,-18 -34,-22 -36,-12 -60,14 -67,42z"/>
   <path class="fil7" d="M571 863c-10,-8 -6,-6 -18,0 -15,7 -20,17 -51,17 -55,1 -41,-20 -72,-25l-6 3c30,68 133,50 147,5z"/>
   <path class="fil0" d="M824 902c0,99 -93,75 -95,-4 -4,2 -100,47 -100,48 -17,17 -9,79 -1,103 45,16 97,24 149,24 38,0 129,-6 151,-28 9,-17 14,-85 -2,-100 -6,-6 -31,-14 -41,-18 -17,-6 -46,-19 -61,-25z"/>
  </g>
 </g>
</svg>
