<?xml version="1.0" encoding="UTF-8" standalone="no"?>
<!-- Creator: CorelDRAW X8 -->

<svg
   xmlns:dc="http://purl.org/dc/elements/1.1/"
   xmlns:cc="http://creativecommons.org/ns#"
   xmlns:rdf="http://www.w3.org/1999/02/22-rdf-syntax-ns#"
   xmlns:svg="http://www.w3.org/2000/svg"
   xmlns="http://www.w3.org/2000/svg"
   xmlns:sodipodi="http://sodipodi.sourceforge.net/DTD/sodipodi-0.dtd"
   xmlns:inkscape="http://www.inkscape.org/namespaces/inkscape"
   xml:space="preserve"
   width="345.44675"
   height="346.75772"
   version="1.1"
   style="clip-rule:evenodd;fill-rule:evenodd;image-rendering:optimizeQuality;shape-rendering:geometricPrecision;text-rendering:geometricPrecision"
   viewBox="0 0 874.04138 876.53051"
   id="svg2"
   inkscape:version="0.91 r13725"
   sodipodi:docname="unete.svg"><metadata
     id="metadata37"><rdf:RDF><cc:Work
         rdf:about=""><dc:format>image/svg+xml</dc:format><dc:type
           rdf:resource="http://purl.org/dc/dcmitype/StillImage" /><dc:title /></cc:Work></rdf:RDF></metadata><sodipodi:namedview
     pagecolor="#ffffff"
     bordercolor="#666666"
     borderopacity="1"
     objecttolerance="10"
     gridtolerance="10"
     guidetolerance="10"
     inkscape:pageopacity="0"
     inkscape:pageshadow="2"
     inkscape:window-width="1366"
     inkscape:window-height="705"
     id="namedview35"
     showgrid="false"
     fit-margin-top="0"
     fit-margin-left="0"
     fit-margin-right="0"
     fit-margin-bottom="0"
     units="px"
     inkscape:zoom="1.2157807"
     inkscape:cx="80.384986"
     inkscape:cy="228.33116"
     inkscape:window-x="1280"
     inkscape:window-y="285"
     inkscape:window-maximized="1"
     inkscape:current-layer="svg2" /><defs
     id="defs4"><style
       type="text/css"
       id="style6"><![CDATA[
    .str0 {stroke:white;stroke-width:0.682784}
    .fil1 {fill:#003399}
    .fil0 {fill:#31A463}
    .fil6 {fill:#B3B3B3}
    .fil5 {fill:#C5A484}
    .fil3 {fill:#E92A6F}
    .fil4 {fill:#ECC2A3}
    .fil2 {fill:red}
   ]]></style><clipPath
       id="clipPath26"
       clipPathUnits="userSpaceOnUse"><path
         inkscape:connector-curvature="0"
         id="path28"
         d="M 0,800 800,800 800,0 0,0 0,800 Z" /></clipPath><clipPath
       id="clipPath302"
       clipPathUnits="userSpaceOnUse"><path
         inkscape:connector-curvature="0"
         id="path304"
         d="m 559.196,659.886 40.804,0 0,-95.626 -40.804,0 0,95.626 z" /></clipPath><clipPath
       id="clipPath448"
       clipPathUnits="userSpaceOnUse"><path
         inkscape:connector-curvature="0"
         id="path450"
         d="m 689.701,632.033 39.28,0 0,-66.556 -39.28,0 0,66.556 z" /></clipPath><clipPath
       id="clipPath570"
       clipPathUnits="userSpaceOnUse"><path
         inkscape:connector-curvature="0"
         id="path572"
         d="m 161.779,253.404 40.804,0 0,-95.626 -40.804,0 0,95.626 z" /></clipPath><style
       id="style3497"><![CDATA[
    .str0 {stroke:#1F1A17;stroke-width:0.3817;stroke-linecap:round;stroke-linejoin:round}
    .fil1 {fill:#1F1A17}
    .fil0 {fill:#31A463}
    .fil2 {fill:#1F1A17;fill-rule:nonzero}
   ]]></style><clipPath
       clipPathUnits="userSpaceOnUse"
       id="clipPath4530"><rect
         style="fill:none;fill-opacity:1;stroke:#800000;stroke-width:8.06559849;stroke-linecap:round;stroke-linejoin:round;stroke-miterlimit:4;stroke-dasharray:none;stroke-opacity:1"
         id="rect4532"
         width="874.04126"
         height="877.35834"
         x="109.57738"
         y="123.97031" /></clipPath><filter
       inkscape:collect="always"
       style="color-interpolation-filters:sRGB"
       id="filter4342"
       x="-0.024344646"
       width="1.0486893"
       y="-0.023664976"
       height="1.04733"><feGaussianBlur
         inkscape:collect="always"
         stdDeviation="10.188527"
         id="feGaussianBlur4344" /></filter></defs><g
     transform="translate(-109.57734,-124.5017)"
     clip-path="url(#clipPath4530)"
     id="g4181"
     style="fill:#000000;stroke:#000000;filter:url(#filter4342);opacity:0.441"><path
       style="fill:#000000;fill-opacity:1;stroke:#000000"
       d="m 326.86964,231.55317 c -15.59972,-0.42033 -28.4974,11.79884 -28.91774,27.39856 l -5.2934,196.44882 c -0.42033,15.59971 11.80057,28.49743 27.40027,28.91777 l 78.54405,2.11641 a 29.310955,29.310959 0 0 1 -7.5238,-20.38739 29.310955,29.310959 0 0 1 30.08958,-28.51058 29.310955,29.310959 0 0 1 28.51054,30.08959 29.310955,29.310959 0 0 1 -8.63861,19.95189 l 75.46708,2.03348 c 15.59971,0.42034 28.49567,-11.80059 28.91602,-27.4003 l 2.02516,-75.15747 a 29.310955,29.310959 0 0 0 17.84168,6.71927 29.310955,29.310959 0 0 0 30.09134,-28.51052 29.310955,29.310959 0 0 0 -28.51228,-30.09136 29.310955,29.310959 0 0 0 -18.17681,5.71739 l 2.02431,-75.12614 c 0.42034,-15.59971 -11.79886,-28.49568 -27.39857,-28.91601 l -196.44882,-5.29341 z"
       id="path4183"
       inkscape:connector-curvature="0" /><g
       id="g4185"
       transform="matrix(0.86923177,-0.15208377,0.15208375,0.86923177,540.75477,190.43964)"
       style="fill:#000000;stroke:#000000"><g
         transform="matrix(-0.70710678,0.70710683,-0.70710673,-0.70710678,-712.29592,610.91315)"
         id="g4187"
         style="fill:#000000;stroke:#000000"><g
           transform="matrix(0.85529665,0,0,0.83612041,-1996.8436,89.926316)"
           id="g4189"
           style="fill:#000000;stroke:#000000;stroke-width:11.96790409;stroke-linecap:round;stroke-linejoin:round;stroke-miterlimit:4;stroke-dasharray:none;stroke-opacity:1"><path
             inkscape:connector-curvature="0"
             style="fill:#000000;fill-opacity:1;fill-rule:nonzero;stroke:#000000;stroke-width:4.73006582;stroke-linecap:round;stroke-linejoin:round;stroke-miterlimit:4;stroke-dasharray:none;stroke-opacity:1"
             d="m 599.5957,-88.296875 c -7.60421,-0.001 -7.22851,6.001953 -7.22851,6.001953 l 0.0605,55.183594 -4.43945,-0.666016 -1.83789,-52.28125 c 0,0 -0.92169,-5.639439 -7.60351,-5.640625 -6.68072,0 -7.03516,7.757813 -7.03516,7.757813 l -0.2461,54.33789 -4.11328,1.230469 -0.96679,-48.267578 c 10e-4,-4.680004 -3.35168,-5.953892 -7.3418,-5.955078 -8.91068,-0.001 -7.96289,8.136719 -7.96289,8.136719 l 1.89062,92.347656 c 2.89972,8.559207 17.31641,13.68164 17.31641,13.68164 l -0.082,35.294922 54.06055,0.138672 0.8457,-40.93164 0.20898,-1.087891 c 12.05659,-6.589665 12.58008,-13.585937 12.58008,-13.585937 l 12.53125,-60.851563 c -15.90707,-1.010783 -19.00976,10.746094 -19.00976,10.746094 l -5.44727,23.0937498 1.36133,-65.8339848 c 0,0 -0.93651,-5.332798 -7.61719,-5.333984 -6.68068,-0.0021 -7.44531,6.771484 -7.44531,6.771484 l -0.61719,47.435547 -4.57031,0 0.29492,-54.810547 c 0,0 0.0182,-6.910133 -7.58594,-6.912109 z"
             transform="matrix(2.5301769,0,0,2.5301771,0,-0.36731117)"
             id="path4191" /><path
             d="m 1421.8706,351.1774 183.5106,0.006 -0.066,-215.06806 -35.0758,-8.7e-4 -5.2803,39.02074 -4.6049,-39.02103 -138.5495,-0.005 z"
             style="fill:#000000;fill-opacity:1;fill-rule:nonzero;stroke:#000000;stroke-width:11.96790409;stroke-linecap:round;stroke-linejoin:round;stroke-miterlimit:4;stroke-dasharray:none;stroke-opacity:1"
             id="path4193"
             inkscape:connector-curvature="0"
             sodipodi:nodetypes="cccccccc" /></g><g
           id="g4195"
           transform="matrix(0.85529665,0,0,0.83612041,-1996.8436,89.926316)"
           style="fill:#000000;stroke:#000000"><path
             id="path4197"
             transform="matrix(2.5301769,0,0,2.5301771,0,-0.36731117)"
             d="m 599.5957,-88.296875 c -7.60421,-0.001 -7.22851,6.001953 -7.22851,6.001953 l 0.0605,55.183594 -4.43945,-0.666016 -1.83789,-52.28125 c 0,0 -0.92169,-5.639439 -7.60351,-5.640625 -6.68072,0 -7.03516,7.757813 -7.03516,7.757813 l -0.2461,54.33789 -4.11328,1.230469 -0.96679,-48.267578 c 10e-4,-4.680004 -3.35168,-5.953892 -7.3418,-5.955078 -8.91068,-0.001 -7.96289,8.136719 -7.96289,8.136719 l 1.89062,92.347656 c 2.89972,8.559207 17.31641,13.68164 17.31641,13.68164 l -0.082,35.294922 54.06055,0.138672 0.8457,-40.93164 0.20898,-1.087891 c 12.05659,-6.589665 12.58008,-13.585937 12.58008,-13.585937 l 12.53125,-60.851563 c -15.90707,-1.010783 -19.00976,10.746094 -19.00976,10.746094 l -5.44727,23.0937498 1.36133,-65.8339848 c 0,0 -0.93651,-5.332798 -7.61719,-5.333984 -6.68068,-0.0021 -7.44531,6.771484 -7.44531,6.771484 l -0.61719,47.435547 -4.57031,0 0.29492,-54.810547 c 0,0 0.0182,-6.910133 -7.58594,-6.912109 z"
             style="fill:#000000;fill-opacity:1;fill-rule:nonzero;stroke:#000000"
             inkscape:connector-curvature="0" /><path
             sodipodi:nodetypes="cccccccc"
             inkscape:connector-curvature="0"
             id="path4199"
             style="fill:#000000;fill-opacity:1;fill-rule:nonzero;stroke:#000000"
             d="m 1421.8706,351.1774 183.5106,0.006 -0.066,-215.06806 -35.0758,-8.7e-4 -5.2803,39.02074 -4.6049,-39.02103 -138.5495,-0.005 z" /></g></g></g><path
       inkscape:connector-curvature="0"
       id="path4201"
       d="m 285.52597,784.89749 c 2.40687,15.41865 16.75648,25.89468 32.17514,23.48779 l 194.16863,-30.31009 c 15.41865,-2.4069 25.89441,-16.7582 23.48752,-32.17685 L 523.2387,668.26598 a 29.310957,29.310958 0 0 1 -18.6912,11.08569 29.310957,29.310958 0 0 1 -33.48069,-24.43924 29.310957,29.310958 0 0 1 24.43928,-33.48074 29.310957,29.310958 0 0 1 21.18491,4.88919 L 505.04718,551.72971 C 502.64029,536.31109 488.28925,525.83708 472.8706,528.24396 L 398.5855,539.84 a 29.310957,29.310958 0 0 0 3.38295,-18.76248 29.310957,29.310958 0 0 0 -33.48098,-24.441 29.310957,29.310958 0 0 0 -24.44072,33.48269 29.310957,29.310958 0 0 0 8.90938,16.84362 l -74.25415,11.59122 c -15.41865,2.40689 -25.893,16.7562 -23.48612,32.17482 l 30.31011,194.16862 z"
       style="fill:#000000;fill-opacity:1;stroke:#000000" /><path
       inkscape:connector-curvature="0"
       id="path4203"
       d="m 784.59384,818.96005 c 15.4089,2.46855 29.80172,-7.94793 32.27027,-23.35682 l 31.08667,-194.04587 c 2.46855,-15.40887 -7.94972,-29.80199 -23.35862,-32.27054 L 747.0089,556.85776 a 29.310959,29.310955 0 0 1 4.77686,21.19989 29.310959,29.310955 0 0 1 -33.5782,24.30514 29.310959,29.310955 0 0 1 -24.30515,-33.57821 29.310959,29.310955 0 0 1 11.18787,-18.64228 l -74.54391,-11.94215 c -15.40889,-2.46853 -29.80026,7.95 -32.2688,23.35889 l -11.89315,74.2381 a 29.310959,29.310955 0 0 0 -16.8029,-9.00763 29.310959,29.310955 0 0 0 -33.57994,24.30489 29.310959,29.310955 0 0 0 24.3066,33.58015 29.310959,29.310955 0 0 0 18.77092,-3.27687 l -11.88821,74.20721 c -2.46854,15.40889 7.94827,29.79995 23.35716,32.2685 l 194.04579,31.08666 z"
       style="fill:#000000;fill-opacity:1;stroke:#000000" /><g
       id="g4205"
       transform="matrix(0.87891078,-0.38339585,0.38339578,0.87891078,-7.2109135,498.13461)"
       style="fill:#000000;stroke:#000000"><g
         style="fill:#000000;stroke:#000000;stroke-width:11.96790409;stroke-linecap:round;stroke-linejoin:round;stroke-miterlimit:4;stroke-dasharray:none"
         id="g4207"
         transform="matrix(0.85529665,0,0,0.83612041,-925.74254,631.939)"><path
           id="path4209"
           transform="matrix(2.5301769,0,0,2.5301771,0,-0.36731117)"
           d="m 714.75391,-88.296875 c -7.60422,-0.001 -7.22852,6.001953 -7.22852,6.001953 l 0.0606,55.183594 -4.43946,-0.666016 -1.83789,-52.28125 c 0,0 -0.92169,-5.639439 -7.60351,-5.640625 -6.68072,0 -7.03516,7.757813 -7.03516,7.757813 l -0.24609,54.33789 -4.11328,1.230469 -0.9668,-48.267578 c 10e-4,-4.680004 -3.35168,-5.953892 -7.3418,-5.955078 -8.91068,-0.001 -7.96289,8.136719 -7.96289,8.136719 l 1.89063,92.347656 c 2.89972,8.559207 17.3164,13.68164 17.3164,13.68164 l -0.082,35.294922 54.06055,0.138672 0.8457,-40.93164 0.20899,-1.087891 c 12.05658,-6.589665 12.58008,-13.585937 12.58008,-13.585937 l 12.53124,-60.851563 c -15.90706,-1.010783 -19.00976,10.746094 -19.00976,10.746094 l -5.44727,23.0937498 1.36133,-65.8339848 c 0,0 -0.93651,-5.332798 -7.61719,-5.333984 -6.68067,-0.0021 -7.44531,6.771484 -7.44531,6.771484 l -0.61719,47.435547 -4.57031,0 0.29492,-54.810547 c 0,0 0.0182,-6.910133 -7.58593,-6.912109 z"
           style="fill:#000000;fill-opacity:1;fill-rule:nonzero;stroke:#000000;stroke-width:4.73006582;stroke-linecap:round;stroke-linejoin:round;stroke-miterlimit:4;stroke-dasharray:none"
           inkscape:connector-curvature="0" /><path
           d="m 1713.2413,351.1774 183.5106,0.006 -0.066,-215.06806 -35.0758,-8.7e-4 -5.2803,39.02074 -4.6049,-39.02103 -138.5495,-0.005 z"
           style="fill:#000000;fill-opacity:1;fill-rule:nonzero;stroke:#000000;stroke-width:11.96790409;stroke-linecap:round;stroke-linejoin:round;stroke-miterlimit:4;stroke-dasharray:none"
           id="path4211"
           inkscape:connector-curvature="0"
           sodipodi:nodetypes="cccccccc" /></g><g
         transform="matrix(0.85529665,0,0,0.83612041,-925.74254,631.939)"
         id="g4213"
         style="fill:#000000;stroke:#000000"><path
           inkscape:connector-curvature="0"
           style="fill:#000000;fill-opacity:1;fill-rule:nonzero;stroke:#000000"
           d="m 714.75391,-88.296875 c -7.60422,-0.001 -7.22852,6.001953 -7.22852,6.001953 l 0.0606,55.183594 -4.43946,-0.666016 -1.83789,-52.28125 c 0,0 -0.92169,-5.639439 -7.60351,-5.640625 -6.68072,0 -7.03516,7.757813 -7.03516,7.757813 l -0.24609,54.33789 -4.11328,1.230469 -0.9668,-48.267578 c 10e-4,-4.680004 -3.35168,-5.953892 -7.3418,-5.955078 -8.91068,-0.001 -7.96289,8.136719 -7.96289,8.136719 l 1.89063,92.347656 c 2.89972,8.559207 17.3164,13.68164 17.3164,13.68164 l -0.082,35.294922 54.06055,0.138672 0.8457,-40.93164 0.20899,-1.087891 c 12.05658,-6.589665 12.58008,-13.585937 12.58008,-13.585937 l 12.53124,-60.851563 c -15.90706,-1.010783 -19.00976,10.746094 -19.00976,10.746094 l -5.44727,23.0937498 1.36133,-65.8339848 c 0,0 -0.93651,-5.332798 -7.61719,-5.333984 -6.68067,-0.0021 -7.44531,6.771484 -7.44531,6.771484 l -0.61719,47.435547 -4.57031,0 0.29492,-54.810547 c 0,0 0.0182,-6.910133 -7.58593,-6.912109 z"
           transform="matrix(2.5301769,0,0,2.5301771,0,-0.36731117)"
           id="path4215" /><path
           sodipodi:nodetypes="cccccccc"
           inkscape:connector-curvature="0"
           id="path4217"
           style="fill:#000000;fill-opacity:1;fill-rule:nonzero;stroke:#000000"
           d="m 1713.2413,351.1774 183.5106,0.006 -0.066,-215.06806 -35.0758,-8.7e-4 -5.2803,39.02074 -4.6049,-39.02103 -138.5495,-0.005 z" /></g></g><path
       style="fill:#000000;fill-opacity:1;stroke:#000000"
       d="m 879.50538,278.3927 c 1.63914,-15.51905 -9.53385,-29.33291 -25.0529,-30.97205 L 659.01947,226.77876 c -15.51905,-1.63914 -29.33309,9.53556 -30.97223,25.05462 l -8.25303,78.13787 a 29.310957,29.310958 0 0 1 20.91339,-5.9062 29.310957,29.310958 0 0 1 26.06987,32.22729 29.310957,29.310958 0 0 1 -32.22728,26.06985 29.310957,29.310958 0 0 1 -19.21513,-10.17265 l -7.92971,75.07685 c -1.63914,15.51905 9.53575,29.33135 25.0548,30.97048 l 74.76882,7.89718 a 29.310957,29.310958 0 0 0 -8.09415,17.26151 29.310957,29.310958 0 0 0 26.06969,32.22903 29.310957,29.310958 0 0 0 32.22922,-26.07142 29.310957,29.310958 0 0 0 -4.27825,-18.56829 l 74.73768,7.89388 c 15.51904,1.63914 29.33119,-9.53398 30.97035,-25.05304 L 879.50538,278.3927 Z"
       id="path4219"
       inkscape:connector-curvature="0" /><g
       id="g4221"
       transform="matrix(0.95358909,0.10071929,-0.10071927,0.95358909,627.36404,228.60261)"
       style="fill:#000000;stroke:#000000"><g
         style="fill:#000000;stroke:#000000;stroke-width:10.12070847;stroke-linecap:round;stroke-linejoin:round;stroke-miterlimit:4;stroke-dasharray:none"
         id="g4223"
         transform="matrix(0.79884055,0.60154287,-0.60154279,0.79884055,-950.93155,84.97741)"><g
           style="fill:#000000;stroke:#000000;stroke-width:11.967906;stroke-linecap:round;stroke-linejoin:round;stroke-miterlimit:4;stroke-dasharray:none"
           id="g4225"
           transform="matrix(0.85529639,0,0,0.83612041,121.38685,17.173829)"><path
             transform="matrix(2.5301769,0,0,2.5301771,0,-0.36731117)"
             inkscape:connector-curvature="0"
             style="fill:#000000;fill-opacity:1;fill-rule:nonzero;stroke:#000000;stroke-width:4.73006678;stroke-linecap:round;stroke-linejoin:round;stroke-miterlimit:4;stroke-dasharray:none"
             d="m 332.05469,-88.296875 c -7.60421,-0.001 -7.22657,6.001953 -7.22657,6.001953 l 0.0605,55.183594 -4.43945,-0.666016 -1.83789,-52.28125 c 0,0 -0.92169,-5.639439 -7.60352,-5.640625 -6.68072,0 -7.03515,7.757813 -7.03515,7.757813 l -0.2461,54.33789 -4.11523,1.230469 -0.9668,-48.267578 c 0.001,-4.680004 -3.34973,-5.953892 -7.33984,-5.955078 -8.91068,-0.001 -7.96289,8.136719 -7.96289,8.136719 l 1.88867,92.347656 c 2.89972,8.559207 17.31836,13.68164 17.31836,13.68164 l -0.082,35.294922 54.06054,0.138672 0.84571,-40.93164 0.20898,-1.087891 C 369.6386,24.39471 370.16209,17.398438 370.16209,17.398438 l 12.53125,-60.851563 c -15.90707,-1.010783 -19.00977,10.746094 -19.00977,10.746094 l -5.44726,23.0937498 1.36133,-65.8339848 c 0,0 -0.93651,-5.332798 -7.61719,-5.333984 -6.68068,-0.0021 -7.44531,6.771484 -7.44531,6.771484 l -0.61719,47.435547 -4.57227,0 0.29492,-54.810547 c 0,0 0.0182,-6.910133 -7.58593,-6.912109 z"
             id="path4227" /><path
             sodipodi:nodetypes="cccccccc"
             inkscape:connector-curvature="0"
             id="path4229"
             style="fill:#000000;fill-opacity:1;fill-rule:nonzero;stroke:#000000;stroke-width:11.967906;stroke-linecap:round;stroke-linejoin:round;stroke-miterlimit:4;stroke-dasharray:none"
             d="m 744.94886,351.1774 183.5106,0.006 -0.066,-215.06806 -35.0758,-8.7e-4 -5.2803,39.02074 -4.6049,-39.02103 -138.5495,-0.005 z" /></g></g><g
         transform="matrix(0.79884055,0.60154287,-0.60154279,0.79884055,-950.93155,84.97741)"
         id="g4231"
         style="fill:#000000;stroke:#000000"><g
           transform="matrix(0.85529639,0,0,0.83612041,121.38685,17.173829)"
           id="g4233"
           style="fill:#000000;stroke:#000000"><path
             id="path4235"
             d="m 332.05469,-88.296875 c -7.60421,-0.001 -7.22657,6.001953 -7.22657,6.001953 l 0.0605,55.183594 -4.43945,-0.666016 -1.83789,-52.28125 c 0,0 -0.92169,-5.639439 -7.60352,-5.640625 -6.68072,0 -7.03515,7.757813 -7.03515,7.757813 l -0.2461,54.33789 -4.11523,1.230469 -0.9668,-48.267578 c 0.001,-4.680004 -3.34973,-5.953892 -7.33984,-5.955078 -8.91068,-0.001 -7.96289,8.136719 -7.96289,8.136719 l 1.88867,92.347656 c 2.89972,8.559207 17.31836,13.68164 17.31836,13.68164 l -0.082,35.294922 54.06054,0.138672 0.84571,-40.93164 0.20898,-1.087891 C 369.6386,24.39471 370.16209,17.398438 370.16209,17.398438 l 12.53125,-60.851563 c -15.90707,-1.010783 -19.00977,10.746094 -19.00977,10.746094 l -5.44726,23.0937498 1.36133,-65.8339848 c 0,0 -0.93651,-5.332798 -7.61719,-5.333984 -6.68068,-0.0021 -7.44531,6.771484 -7.44531,6.771484 l -0.61719,47.435547 -4.57227,0 0.29492,-54.810547 c 0,0 0.0182,-6.910133 -7.58593,-6.912109 z"
             style="fill:#000000;fill-opacity:1;fill-rule:nonzero;stroke:#000000"
             inkscape:connector-curvature="0"
             transform="matrix(2.5301769,0,0,2.5301771,0,-0.36731117)" /><path
             d="m 744.94886,351.1774 183.5106,0.006 -0.066,-215.06806 -35.0758,-8.7e-4 -5.2803,39.02074 -4.6049,-39.02103 -138.5495,-0.005 z"
             style="fill:#000000;fill-opacity:1;fill-rule:nonzero;stroke:#000000"
             id="path4237"
             inkscape:connector-curvature="0"
             sodipodi:nodetypes="cccccccc" /></g></g></g><path
       style="fill:#000000;fill-opacity:1;stroke:#000000"
       d="m 821.77478,764.95038 26.176,-163.39302 c 2.46855,-15.40887 -7.94972,-29.80199 -23.35862,-32.27054 L 747.0089,556.85776 c 4.24987,6.19353 5.9598,13.78224 4.77686,21.19989 -2.56082,15.98397 -17.5942,26.86568 -33.5782,24.30514 -15.98397,-2.56081 -26.86567,-17.5942 -24.30515,-33.57821 1.20149,-7.41857 5.20657,-14.09224 11.18787,-18.64228 l -74.54391,-11.94215 c -15.40889,-2.46853 -29.80026,7.95 -32.2688,23.35889 31.50176,122.70915 70.0211,7.11497 160.43607,69.89707 29.14817,20.23983 38.82711,66.69062 63.06114,133.49427 z"
       id="path4239"
       inkscape:connector-curvature="0"
       sodipodi:nodetypes="csscccccscsc" /><g
       id="g4241"
       transform="matrix(0.85416567,0.15257583,-0.15447413,0.84366885,214.9569,115.39727)"
       style="fill:#000000;stroke:#000000"><g
         style="fill:#000000;stroke:#000000;stroke-width:11.96791363;stroke-linecap:round;stroke-linejoin:round;stroke-miterlimit:4;stroke-dasharray:none"
         id="g4243"
         transform="matrix(-0.72182858,-0.45879576,0.44850995,-0.7056459,1579.7752,643.04667)"><path
           id="path4245"
           transform="matrix(2.5301769,0,0,2.5301771,0,-0.36731117)"
           d="m 466.98828,-88.296875 c -7.60421,-0.001 -7.22656,6.001953 -7.22656,6.001953 l 0.0605,55.183594 -4.44141,-0.666016 -1.83789,-52.28125 c 0,0 -0.91974,-5.639439 -7.60156,-5.640625 -6.68072,0 -7.03516,7.757813 -7.03516,7.757813 l -0.24805,54.33789 -4.11328,1.230469 -0.9668,-48.267578 c 10e-4,-4.680004 -3.35168,-5.953892 -7.34179,-5.955078 -8.91068,-0.001 -7.96094,8.136719 -7.96094,8.136719 l 1.88867,92.347656 c 2.89972,8.559207 17.31836,13.68164 17.31836,13.68164 l -0.082,35.294922 54.06055,0.138672 0.8457,-40.927734 0.20898,-1.091797 c 12.05661,-6.589665 12.5801,-13.585937 12.5801,-13.585937 l 12.53125,-60.851563 c -15.90707,-1.010783 -19.00976,10.746094 -19.00976,10.746094 l -5.44922,23.0996091 1.36133,-65.8398441 c 0,0 -0.93651,-5.332798 -7.61719,-5.333984 -6.68068,-0.0021 -7.44336,6.771484 -7.44336,6.771484 l -0.61914,47.435547 -4.57031,0 0.29492,-54.810547 c 0,0 0.0182,-6.910133 -7.58594,-6.912109 z"
           style="fill:#000000;fill-opacity:1;fill-rule:nonzero;stroke:#000000;stroke-width:4.73006964;stroke-linecap:round;stroke-linejoin:round;stroke-miterlimit:4;stroke-dasharray:none"
           inkscape:connector-curvature="0" /><path
           d="m 1086.3529,351.1774 183.5106,0.006 -0.066,-215.06806 -35.0758,-8.7e-4 -5.2803,39.02074 -4.6049,-39.02103 -138.5495,-0.005 z"
           style="fill:#000000;fill-opacity:1;fill-rule:nonzero;stroke:#000000;stroke-width:11.96791363;stroke-linecap:round;stroke-linejoin:round;stroke-miterlimit:4;stroke-dasharray:none"
           id="path4247"
           inkscape:connector-curvature="0"
           sodipodi:nodetypes="cccccccc" /></g><g
         transform="matrix(-0.72182858,-0.45879576,0.44850995,-0.7056459,1579.7752,643.04667)"
         id="g4249"
         style="fill:#000000;stroke:#000000"><path
           inkscape:connector-curvature="0"
           style="fill:#000000;fill-opacity:1;fill-rule:nonzero;stroke:#000000"
           d="m 466.98828,-88.296875 c -7.60421,-0.001 -7.22656,6.001953 -7.22656,6.001953 l 0.0605,55.183594 -4.44141,-0.666016 -1.83789,-52.28125 c 0,0 -0.91974,-5.639439 -7.60156,-5.640625 -6.68072,0 -7.03516,7.757813 -7.03516,7.757813 l -0.24805,54.33789 -4.11328,1.230469 -0.9668,-48.267578 c 10e-4,-4.680004 -3.35168,-5.953892 -7.34179,-5.955078 -8.91068,-0.001 -7.96094,8.136719 -7.96094,8.136719 l 1.88867,92.347656 c 2.89972,8.559207 17.31836,13.68164 17.31836,13.68164 l -0.082,35.294922 54.06055,0.138672 0.8457,-40.927734 0.20898,-1.091797 c 12.05661,-6.589665 12.5801,-13.585937 12.5801,-13.585937 l 12.53125,-60.851563 c -15.90707,-1.010783 -19.00976,10.746094 -19.00976,10.746094 l -5.44922,23.0996091 1.36133,-65.8398441 c 0,0 -0.93651,-5.332798 -7.61719,-5.333984 -6.68068,-0.0021 -7.44336,6.771484 -7.44336,6.771484 l -0.61914,47.435547 -4.57031,0 0.29492,-54.810547 c 0,0 0.0182,-6.910133 -7.58594,-6.912109 z"
           transform="matrix(2.5301769,0,0,2.5301771,0,-0.36731117)"
           id="path4251" /><path
           sodipodi:nodetypes="cccccccc"
           inkscape:connector-curvature="0"
           id="path4253"
           style="fill:#000000;fill-opacity:1;fill-rule:nonzero;stroke:#000000"
           d="m 1086.3529,351.1774 183.5106,0.006 -0.066,-215.06806 -35.0758,-8.7e-4 -5.2803,39.02074 -4.6049,-39.02103 -138.5495,-0.005 z" /></g></g></g><g
     id="g4492"
     clip-path="url(#clipPath4530)"
     transform="translate(-109.57734,-124.5017)"><path
       inkscape:connector-curvature="0"
       id="rect3453"
       d="m 326.86964,231.55317 c -15.59972,-0.42033 -28.4974,11.79884 -28.91774,27.39856 l -5.2934,196.44882 c -0.42033,15.59971 11.80057,28.49743 27.40027,28.91777 l 78.54405,2.11641 a 29.310955,29.310959 0 0 1 -7.5238,-20.38739 29.310955,29.310959 0 0 1 30.08958,-28.51058 29.310955,29.310959 0 0 1 28.51054,30.08959 29.310955,29.310959 0 0 1 -8.63861,19.95189 l 75.46708,2.03348 c 15.59971,0.42034 28.49567,-11.80059 28.91602,-27.4003 l 2.02516,-75.15747 a 29.310955,29.310959 0 0 0 17.84168,6.71927 29.310955,29.310959 0 0 0 30.09134,-28.51052 29.310955,29.310959 0 0 0 -28.51228,-30.09136 29.310955,29.310959 0 0 0 -18.17681,5.71739 l 2.02431,-75.12614 c 0.42034,-15.59971 -11.79886,-28.49568 -27.39857,-28.91601 l -196.44882,-5.29341 z"
       style="fill:#63c62f;fill-opacity:1" /><g
       transform="matrix(0.86923177,-0.15208377,0.15208375,0.86923177,540.75477,190.43964)"
       id="g4369"><g
         id="g4361"
         transform="matrix(-0.70710678,0.70710683,-0.70710673,-0.70710678,-712.29592,610.91315)"><g
           style="fill:#ffffff;stroke:#ffffff;stroke-width:11.96790409;stroke-linecap:round;stroke-linejoin:round;stroke-miterlimit:4;stroke-dasharray:none;stroke-opacity:1"
           id="g4347"
           transform="matrix(0.85529665,0,0,0.83612041,-1996.8436,89.926316)"><path
             sodipodi:nodetypes="cccccccc"
             inkscape:connector-curvature="0"
             id="path4351"
             style="fill:#ffffff;fill-opacity:1;fill-rule:nonzero;stroke:#ffffff;stroke-width:11.96790409;stroke-linecap:round;stroke-linejoin:round;stroke-miterlimit:4;stroke-dasharray:none;stroke-opacity:1"
             d="m 1421.8706,351.1774 183.5106,0.006 -0.066,-215.06806 -35.0758,-8.7e-4 -5.2803,39.02074 -4.6049,-39.02103 -138.5495,-0.005 z" /></g><g
           transform="matrix(0.85529665,0,0,0.83612041,-1996.8436,89.926316)"
           id="g4317"><path
             inkscape:connector-curvature="0"
             style="fill:#e3c68e;fill-opacity:1;fill-rule:nonzero;stroke:none"
             d="m 599.5957,-88.296875 c -7.60421,-0.001 -7.22851,6.001953 -7.22851,6.001953 l 0.0605,55.183594 -4.43945,-0.666016 -1.83789,-52.28125 c 0,0 -0.92169,-5.639439 -7.60351,-5.640625 -6.68072,0 -7.03516,7.757813 -7.03516,7.757813 l -0.2461,54.33789 -4.11328,1.230469 -0.96679,-48.267578 c 10e-4,-4.680004 -3.35168,-5.953892 -7.3418,-5.955078 -8.91068,-0.001 -7.96289,8.136719 -7.96289,8.136719 l 1.89062,92.347656 c 2.89972,8.559207 17.31641,13.68164 17.31641,13.68164 l -0.082,35.294922 54.06055,0.138672 0.8457,-40.93164 0.20898,-1.087891 c 12.05659,-6.589665 12.58008,-13.585937 12.58008,-13.585937 l 12.53125,-60.851563 c -15.90707,-1.010783 -19.00976,10.746094 -19.00976,10.746094 l -5.44727,23.0937498 1.36133,-65.8339848 c 0,0 -0.93651,-5.332798 -7.61719,-5.333984 -6.68068,-0.0021 -7.44531,6.771484 -7.44531,6.771484 l -0.61719,47.435547 -4.57031,0 0.29492,-54.810547 c 0,0 0.0182,-6.910133 -7.58594,-6.912109 z"
             transform="matrix(2.5301769,0,0,2.5301771,0,-0.36731117)"
             id="path3419" /><path
             d="m 1421.8706,351.1774 183.5106,0.006 -0.066,-215.06806 -35.0758,-8.7e-4 -5.2803,39.02074 -4.6049,-39.02103 -138.5495,-0.005 z"
             style="fill:#ff0000;fill-opacity:1;fill-rule:nonzero;stroke:none"
             id="path3423"
             inkscape:connector-curvature="0"
             sodipodi:nodetypes="cccccccc" /></g></g></g><path
       style="fill:#fccf14;fill-opacity:1"
       d="m 285.52597,784.89749 c 2.40687,15.41865 16.75648,25.89468 32.17514,23.48779 l 194.16863,-30.31009 c 15.41865,-2.4069 25.89441,-16.7582 23.48752,-32.17685 L 523.2387,668.26598 a 29.310957,29.310958 0 0 1 -18.6912,11.08569 29.310957,29.310958 0 0 1 -33.48069,-24.43924 29.310957,29.310958 0 0 1 24.43928,-33.48074 29.310957,29.310958 0 0 1 21.18491,4.88919 L 505.04718,551.72971 C 502.64029,536.31109 488.28925,525.83708 472.8706,528.24396 L 398.5855,539.84 a 29.310957,29.310958 0 0 0 3.38295,-18.76248 29.310957,29.310958 0 0 0 -33.48098,-24.441 29.310957,29.310958 0 0 0 -24.44072,33.48269 29.310957,29.310958 0 0 0 8.90938,16.84362 l -74.25415,11.59122 c -15.41865,2.40689 -25.893,16.7562 -23.48612,32.17482 l 30.31011,194.16862 z"
       id="path3463"
       inkscape:connector-curvature="0" /><path
       style="fill:#25aae3;fill-opacity:1"
       d="m 784.59384,818.96005 c 15.4089,2.46855 29.80172,-7.94793 32.27027,-23.35682 l 31.08667,-194.04587 c 2.46855,-15.40887 -7.94972,-29.80199 -23.35862,-32.27054 L 747.0089,556.85776 a 29.310959,29.310955 0 0 1 4.77686,21.19989 29.310959,29.310955 0 0 1 -33.5782,24.30514 29.310959,29.310955 0 0 1 -24.30515,-33.57821 29.310959,29.310955 0 0 1 11.18787,-18.64228 l -74.54391,-11.94215 c -15.40889,-2.46853 -29.80026,7.95 -32.2688,23.35889 l -11.89315,74.2381 a 29.310959,29.310955 0 0 0 -16.8029,-9.00763 29.310959,29.310955 0 0 0 -33.57994,24.30489 29.310959,29.310955 0 0 0 24.3066,33.58015 29.310959,29.310955 0 0 0 18.77092,-3.27687 l -11.88821,74.20721 c -2.46854,15.40889 7.94827,29.79995 23.35716,32.2685 l 194.04579,31.08666 z"
       id="path3465"
       inkscape:connector-curvature="0" /><g
       transform="matrix(0.87891078,-0.38339585,0.38339578,0.87891078,-7.2109135,498.13461)"
       id="g4384"><g
         transform="matrix(0.85529665,0,0,0.83612041,-925.74254,631.939)"
         id="g4378"
         style="fill:#ffffff;stroke:#ffffff;stroke-width:11.96790409;stroke-linecap:round;stroke-linejoin:round;stroke-miterlimit:4;stroke-dasharray:none"><path
           sodipodi:nodetypes="cccccccc"
           inkscape:connector-curvature="0"
           id="path4382"
           style="fill:#ffffff;fill-opacity:1;fill-rule:nonzero;stroke:#ffffff;stroke-width:11.96790409;stroke-linecap:round;stroke-linejoin:round;stroke-miterlimit:4;stroke-dasharray:none"
           d="m 1713.2413,351.1774 183.5106,0.006 -0.066,-215.06806 -35.0758,-8.7e-4 -5.2803,39.02074 -4.6049,-39.02103 -138.5495,-0.005 z" /></g><g
         id="g4321"
         transform="matrix(0.85529665,0,0,0.83612041,-925.74254,631.939)"><path
           id="path3427"
           transform="matrix(2.5301769,0,0,2.5301771,0,-0.36731117)"
           d="m 714.75391,-88.296875 c -7.60422,-0.001 -7.22852,6.001953 -7.22852,6.001953 l 0.0606,55.183594 -4.43946,-0.666016 -1.83789,-52.28125 c 0,0 -0.92169,-5.639439 -7.60351,-5.640625 -6.68072,0 -7.03516,7.757813 -7.03516,7.757813 l -0.24609,54.33789 -4.11328,1.230469 -0.9668,-48.267578 c 10e-4,-4.680004 -3.35168,-5.953892 -7.3418,-5.955078 -8.91068,-0.001 -7.96289,8.136719 -7.96289,8.136719 l 1.89063,92.347656 c 2.89972,8.559207 17.3164,13.68164 17.3164,13.68164 l -0.082,35.294922 54.06055,0.138672 0.8457,-40.93164 0.20899,-1.087891 c 12.05658,-6.589665 12.58008,-13.585937 12.58008,-13.585937 l 12.53124,-60.851563 c -15.90706,-1.010783 -19.00976,10.746094 -19.00976,10.746094 l -5.44727,23.0937498 1.36133,-65.8339848 c 0,0 -0.93651,-5.332798 -7.61719,-5.333984 -6.68067,-0.0021 -7.44531,6.771484 -7.44531,6.771484 l -0.61719,47.435547 -4.57031,0 0.29492,-54.810547 c 0,0 0.0182,-6.910133 -7.58593,-6.912109 z"
           style="fill:#eadbab;fill-opacity:1;fill-rule:nonzero;stroke:none"
           inkscape:connector-curvature="0" /><path
           d="m 1713.2413,351.1774 183.5106,0.006 -0.066,-215.06806 -35.0758,-8.7e-4 -5.2803,39.02074 -4.6049,-39.02103 -138.5495,-0.005 z"
           style="fill:#e92a6f;fill-opacity:1;fill-rule:nonzero;stroke:none"
           id="path3431"
           inkscape:connector-curvature="0"
           sodipodi:nodetypes="cccccccc" /></g></g><path
       inkscape:connector-curvature="0"
       id="path3467"
       d="m 879.50538,278.3927 c 1.63914,-15.51905 -9.53385,-29.33291 -25.0529,-30.97205 L 659.01947,226.77876 c -15.51905,-1.63914 -29.33309,9.53556 -30.97223,25.05462 l -8.25303,78.13787 a 29.310957,29.310958 0 0 1 20.91339,-5.9062 29.310957,29.310958 0 0 1 26.06987,32.22729 29.310957,29.310958 0 0 1 -32.22728,26.06985 29.310957,29.310958 0 0 1 -19.21513,-10.17265 l -7.92971,75.07685 c -1.63914,15.51905 9.53575,29.33135 25.0548,30.97048 l 74.76882,7.89718 a 29.310957,29.310958 0 0 0 -8.09415,17.26151 29.310957,29.310958 0 0 0 26.06969,32.22903 29.310957,29.310958 0 0 0 32.22922,-26.07142 29.310957,29.310958 0 0 0 -4.27825,-18.56829 l 74.73768,7.89388 c 15.51904,1.63914 29.33119,-9.53398 30.97035,-25.05304 L 879.50538,278.3927 Z"
       style="fill:#a17ab3;fill-opacity:1" /><g
       transform="matrix(0.95358909,0.10071929,-0.10071927,0.95358909,627.36404,228.60261)"
       id="g4337"><g
         transform="matrix(0.79884055,0.60154287,-0.60154279,0.79884055,-950.93155,84.97741)"
         id="g4329"
         style="fill:#ffffff;stroke:#ffffff;stroke-width:10.12070847;stroke-linecap:round;stroke-linejoin:round;stroke-miterlimit:4;stroke-dasharray:none"><g
           transform="matrix(0.85529639,0,0,0.83612041,121.38685,17.173829)"
           id="g4331"
           style="fill:#ffffff;stroke:#ffffff;stroke-width:11.967906;stroke-linecap:round;stroke-linejoin:round;stroke-miterlimit:4;stroke-dasharray:none"><path
             d="m 744.94886,351.1774 183.5106,0.006 -0.066,-215.06806 -35.0758,-8.7e-4 -5.2803,39.02074 -4.6049,-39.02103 -138.5495,-0.005 z"
             style="fill:#ffffff;fill-opacity:1;fill-rule:nonzero;stroke:#ffffff;stroke-width:11.967906;stroke-linecap:round;stroke-linejoin:round;stroke-miterlimit:4;stroke-dasharray:none"
             id="path4335"
             inkscape:connector-curvature="0"
             sodipodi:nodetypes="cccccccc" /></g></g><g
         id="g4309"
         transform="matrix(0.79884055,0.60154287,-0.60154279,0.79884055,-950.93155,84.97741)"><g
           id="g4325"
           transform="matrix(0.85529639,0,0,0.83612041,121.38685,17.173829)"><path
             transform="matrix(2.5301769,0,0,2.5301771,0,-0.36731117)"
             inkscape:connector-curvature="0"
             style="fill:#ffe0b8;fill-opacity:1;fill-rule:nonzero;stroke:none"
             d="m 332.05469,-88.296875 c -7.60421,-0.001 -7.22657,6.001953 -7.22657,6.001953 l 0.0605,55.183594 -4.43945,-0.666016 -1.83789,-52.28125 c 0,0 -0.92169,-5.639439 -7.60352,-5.640625 -6.68072,0 -7.03515,7.757813 -7.03515,7.757813 l -0.2461,54.33789 -4.11523,1.230469 -0.9668,-48.267578 c 0.001,-4.680004 -3.34973,-5.953892 -7.33984,-5.955078 -8.91068,-0.001 -7.96289,8.136719 -7.96289,8.136719 l 1.88867,92.347656 c 2.89972,8.559207 17.31836,13.68164 17.31836,13.68164 l -0.082,35.294922 54.06054,0.138672 0.84571,-40.93164 0.20898,-1.087891 C 369.6386,24.39471 370.16209,17.398438 370.16209,17.398438 l 12.53125,-60.851563 c -15.90707,-1.010783 -19.00977,10.746094 -19.00977,10.746094 l -5.44726,23.0937498 1.36133,-65.8339848 c 0,0 -0.93651,-5.332798 -7.61719,-5.333984 -6.68068,-0.0021 -7.44531,6.771484 -7.44531,6.771484 l -0.61719,47.435547 -4.57227,0 0.29492,-54.810547 c 0,0 0.0182,-6.910133 -7.58593,-6.912109 z"
             id="path964" /><path
             sodipodi:nodetypes="cccccccc"
             inkscape:connector-curvature="0"
             id="path4295"
             style="fill:#31a463;fill-opacity:1;fill-rule:nonzero;stroke:none"
             d="m 744.94886,351.1774 183.5106,0.006 -0.066,-215.06806 -35.0758,-8.7e-4 -5.2803,39.02074 -4.6049,-39.02103 -138.5495,-0.005 z" /></g></g></g><path
       sodipodi:nodetypes="csscccccscsc"
       inkscape:connector-curvature="0"
       id="path4392"
       d="m 821.77478,764.95038 26.176,-163.39302 c 2.46855,-15.40887 -7.94972,-29.80199 -23.35862,-32.27054 L 747.0089,556.85776 c 4.24987,6.19353 5.9598,13.78224 4.77686,21.19989 -2.56082,15.98397 -17.5942,26.86568 -33.5782,24.30514 -15.98397,-2.56081 -26.86567,-17.5942 -24.30515,-33.57821 1.20149,-7.41857 5.20657,-14.09224 11.18787,-18.64228 l -74.54391,-11.94215 c -15.40889,-2.46853 -29.80026,7.95 -32.2688,23.35889 31.50176,122.70915 70.0211,7.11497 160.43607,69.89707 29.14817,20.23983 38.82711,66.69062 63.06114,133.49427 z"
       style="fill:#25aae3;fill-opacity:1" /><g
       transform="matrix(0.85416567,0.15257583,-0.15447413,0.84366885,214.9569,115.39727)"
       id="g4400"><g
         transform="matrix(-0.72182858,-0.45879576,0.44850995,-0.7056459,1579.7752,643.04667)"
         id="g4394"
         style="fill:#ffffff;stroke:#ffffff;stroke-width:11.96791363;stroke-linecap:round;stroke-linejoin:round;stroke-miterlimit:4;stroke-dasharray:none"><path
           sodipodi:nodetypes="cccccccc"
           inkscape:connector-curvature="0"
           id="path4398"
           style="fill:#ffffff;fill-opacity:1;fill-rule:nonzero;stroke:#ffffff;stroke-width:11.96791363;stroke-linecap:round;stroke-linejoin:round;stroke-miterlimit:4;stroke-dasharray:none"
           d="m 1086.3529,351.1774 183.5106,0.006 -0.066,-215.06806 -35.0758,-8.7e-4 -5.2803,39.02074 -4.6049,-39.02103 -138.5495,-0.005 z" /></g><g
         id="g4313"
         transform="matrix(-0.72182858,-0.45879576,0.44850995,-0.7056459,1579.7752,643.04667)"><path
           id="path3411"
           transform="matrix(2.5301769,0,0,2.5301771,0,-0.36731117)"
           d="m 466.98828,-88.296875 c -7.60421,-0.001 -7.22656,6.001953 -7.22656,6.001953 l 0.0605,55.183594 -4.44141,-0.666016 -1.83789,-52.28125 c 0,0 -0.91974,-5.639439 -7.60156,-5.640625 -6.68072,0 -7.03516,7.757813 -7.03516,7.757813 l -0.24805,54.33789 -4.11328,1.230469 -0.9668,-48.267578 c 10e-4,-4.680004 -3.35168,-5.953892 -7.34179,-5.955078 -8.91068,-0.001 -7.96094,8.136719 -7.96094,8.136719 l 1.88867,92.347656 c 2.89972,8.559207 17.31836,13.68164 17.31836,13.68164 l -0.082,35.294922 54.06055,0.138672 0.8457,-40.927734 0.20898,-1.091797 c 12.05661,-6.589665 12.5801,-13.585937 12.5801,-13.585937 l 12.53125,-60.851563 c -15.90707,-1.010783 -19.00976,10.746094 -19.00976,10.746094 l -5.44922,23.0996091 1.36133,-65.8398441 c 0,0 -0.93651,-5.332798 -7.61719,-5.333984 -6.68068,-0.0021 -7.44336,6.771484 -7.44336,6.771484 l -0.61914,47.435547 -4.57031,0 0.29492,-54.810547 c 0,0 0.0182,-6.910133 -7.58594,-6.912109 z"
           style="fill:#7c6252;fill-opacity:1;fill-rule:nonzero;stroke:none"
           inkscape:connector-curvature="0" /><path
           d="m 1086.3529,351.1774 183.5106,0.006 -0.066,-215.06806 -35.0758,-8.7e-4 -5.2803,39.02074 -4.6049,-39.02103 -138.5495,-0.005 z"
           style="fill:#003399;fill-opacity:1;fill-rule:nonzero;stroke:none"
           id="path3415"
           inkscape:connector-curvature="0"
           sodipodi:nodetypes="cccccccc" /></g></g></g></svg>